<svg xmlns="http://www.w3.org/2000/svg" xmlns:xlink="http://www.w3.org/1999/xlink" viewBox="0 0 512 512"><defs><linearGradient id="linear-gradient" x1="-4406.3886" y1="-1501.9999" x2="-4406.3886" y2="-1383.5404" gradientTransform="matrix(-0.9397, -0.342, -0.342, 0.9397, -4290.6738, -1.9663)" gradientUnits="userSpaceOnUse"><stop offset="0" stop-color="#ffb03e"/><stop offset="1" stop-color="#ea911c"/></linearGradient><linearGradient id="linear-gradient-2" x1="-4406.3887" y1="-1477.4652" x2="-4406.3887" y2="-1383.5404" gradientTransform="matrix(-0.9397, -0.342, -0.342, 0.9397, -4290.6738, -1.9663)" gradientUnits="userSpaceOnUse"><stop offset="0" stop-color="#ffe2ba"/><stop offset="1" stop-color="#ffd2a3"/></linearGradient><linearGradient id="linear-gradient-3" x1="-316.2073" y1="1747.2811" x2="-316.2073" y2="1865.7407" gradientTransform="matrix(0.9397, -0.342, 0.342, 0.9397, -148.9436, -1656.3673)" xlink:href="#linear-gradient"/><linearGradient id="linear-gradient-4" x1="-316.2074" y1="1771.8158" x2="-316.2074" y2="1865.7407" gradientTransform="matrix(0.9397, -0.342, 0.342, 0.9397, -148.9436, -1656.3673)" xlink:href="#linear-gradient-2"/><linearGradient id="linear-gradient-5" x1="257.5932" y1="136.0166" x2="257.5932" y2="419.6047" gradientUnits="userSpaceOnUse"><stop offset="0" stop-color="#ff8c3e"/><stop offset="0.2059" stop-color="#ff953e"/><stop offset="0.4" stop-color="#ffa23e"/><stop offset="1" stop-color="#ea911c"/></linearGradient><linearGradient id="linear-gradient-6" x1="257.5932" y1="290.7664" x2="257.5932" y2="419.6047" gradientTransform="matrix(1, 0, 0, 1, 0, 0)" xlink:href="#linear-gradient-2"/><linearGradient id="linear-gradient-7" x1="4908.4041" y1="259.9724" x2="4881.4052" y2="286.9712" gradientTransform="matrix(-1, 0, 0, 1, 5224.4781, 0)" gradientUnits="userSpaceOnUse"><stop offset="0" stop-color="#4c1b00"/><stop offset="1" stop-color="#2d0000"/></linearGradient><linearGradient id="linear-gradient-8" x1="164.5611" y1="252.3911" x2="206.7226" y2="294.5526" gradientTransform="matrix(1, 0, 0, 1, 0, 0)" xlink:href="#linear-gradient-7"/></defs><g id="Brown_angry"><path d="M253.09,179.4956c24.2856-36.4824,56.9524-66.2036,93.5674-84.78a21.1847,21.1847,0,0,1,9.6688-2.32A21.4353,21.4353,0,0,1,376.08,105.4245c16.1074,37.7661,22.0278,81.5313,17.1812,125.0893Z" style="fill:url(#linear-gradient)"/><path d="M370.4517,222.2118c3.2867-37.1424-1.9183-73.4355-15.1521-105.4677-30.7308,16.0337-58.0458,40.49-79.4,71.0536Z" style="fill:url(#linear-gradient-2)"/><path d="M262.1252,179.4956c-24.2855-36.4824-56.9524-66.2036-93.5674-84.78a21.1847,21.1847,0,0,0-9.6688-2.32,21.4353,21.4353,0,0,0-19.7538,13.0292c-16.1074,37.7661-22.0278,81.5313-17.1812,125.0893Z" style="fill:url(#linear-gradient-3)"/><path d="M144.7636,222.2118c-3.2866-37.1424,1.9183-73.4355,15.1521-105.4677,30.7308,16.0337,58.0458,40.49,79.4,71.0536Z" style="fill:url(#linear-gradient-4)"/><path d="M412.1331,343.5132c0-98.5709-31.9549-207.4789-154.5254-207.4962v0l-.0143,0-.0146,0v0c-122.57.0173-154.5255,108.9253-154.5255,207.4962,0,48.428,32.3829,76.087,154.5255,76.0914v0l.0146,0,.0143,0v0C379.75,419.6,412.1331,391.9412,412.1331,343.5132Z" style="fill:url(#linear-gradient-5)"/><path d="M412.1331,343.5132c0-10.3356-.3571-20.7846-1.1273-31.21-21.1134-9.8771-52.4668-2.2806-70.07,3.4674a23.7132,23.7132,0,0,1-22.0433-3.9884c-13.3178-10.5748-36.4557-21.0158-61.2545-21.0158s-47.9366,10.441-61.2544,21.0159a23.7139,23.7139,0,0,1-22.0434,3.9883c-17.6291-5.7564-49.0484-13.3661-70.1626-3.4232-.768,10.4108-1.1242,20.8449-1.1242,31.1658,0,48.4155,32.3673,76.0724,154.4317,76.0911l.1049,0h.0035l.0143,0v0C379.75,419.6,412.1331,391.9412,412.1331,343.5132Z" style="fill:url(#linear-gradient-6)"/><path d="M360.347,363.1418c-1.8992-.9255-45.345-21.8335-96.2532-23.5295v-7.9671a15.0107,15.0107,0,0,0,4.1689-2.9316l17.305-17.305a8.5517,8.5517,0,0,0-6.0469-14.5986H235.6946a8.5517,8.5517,0,0,0-6.0469,14.5986l17.3052,17.305a15.0052,15.0052,0,0,0,4.1409,2.9184v7.98c-50.91,1.696-94.3555,22.604-96.2549,23.5295a6.5,6.5,0,1,0,5.6978,11.6848c.4585-.2234,46.37-22.3235,97.0571-22.3235,50.5691,0,96.6,22.1013,97.0557,22.3235a6.5,6.5,0,0,0,5.6975-11.6848Z" style="fill:#63250d"/><path d="M295.7293,280.3171a179.4365,179.4365,0,0,1,52.5253-30.3256,30.3255,30.3255,0,1,1-52.5253,30.3256Z" style="fill:url(#linear-gradient-7)"/><circle cx="335.3146" cy="268.5706" r="6.9478" style="fill:#ffefdc"/><path d="M219.486,280.3171a179.4365,179.4365,0,0,0-52.5253-30.3256,30.3255,30.3255,0,1,0,52.5253,30.3256Z" style="fill:url(#linear-gradient-8)"/><circle cx="202.4779" cy="280.1876" r="6.9478" style="fill:#ffefdc"/><path d="M257.5936,255.191a6.5,6.5,0,0,1-6.5-6.5V234.1929a6.5,6.5,0,0,1,13,0V248.691A6.5,6.5,0,0,1,257.5936,255.191Z" style="fill:#63250d"/><ellipse cx="306.097" cy="235.4931" rx="23.3887" ry="14.9654" transform="translate(-76.7372 184.5976) rotate(-29.9999)" style="fill:#ffe2ba"/><ellipse cx="209.1184" cy="235.4931" rx="14.9654" ry="23.3887" transform="translate(-99.3837 298.8491) rotate(-60.0001)" style="fill:#ffe2ba"/><path d="M411.26,252.9279a6.5017,6.5017,0,0,1-6.8373-4.795L401.74,238.12a16.9344,16.9344,0,0,1,11.9586-20.715l10.0139-2.6832a6.5,6.5,0,0,1,3.3644,12.5565l-10.0126,2.6831a3.92,3.92,0,0,0-2.7677,4.7955l2.683,10.0112a6.5078,6.5078,0,0,1-5.7192,8.1594Z" style="fill:#63250d"/><path d="M391.1889,258.3057a6.5018,6.5018,0,0,1-6.8373-4.795l-2.683-10.0125a3.9143,3.9143,0,0,0-4.7917-2.768l-10.0139,2.6831a6.5,6.5,0,0,1-3.3644-12.5565l10.0126-2.683a16.9117,16.9117,0,0,1,20.714,11.9612l2.6829,10.0113a6.5077,6.5077,0,0,1-5.7192,8.1594Z" style="fill:#63250d"/><path d="M408.7472,210.41a16.9217,16.9217,0,0,1-17.776-12.48l-2.6818-10.0127a6.5,6.5,0,0,1,12.5565-3.3644l2.6818,10.0127a3.9146,3.9146,0,0,0,4.793,2.7679l10.0138-2.6832a6.5,6.5,0,0,1,3.3644,12.5565l-10.0126,2.6831A17.096,17.096,0,0,1,408.7472,210.41Z" style="fill:#63250d"/><path d="M360.3608,223.5412a6.5006,6.5006,0,0,1-2.2412-12.7555l10.0138-2.6832a3.92,3.92,0,0,0,2.7665-4.7941l-2.683-10.0125a6.5,6.5,0,1,1,12.5565-3.3644l2.683,10.0125a16.9321,16.9321,0,0,1-11.9573,20.7149l-10.0151,2.6833A6.5571,6.5571,0,0,1,360.3608,223.5412Z" style="fill:#63250d"/><path d="M124.54,242.2443a6.5036,6.5036,0,0,1-6.1077-8.7242l4.66-12.8032a17.55,17.55,0,0,1,22.496-10.4889l12.8007,4.6592a6.5,6.5,0,1,1-4.4459,12.2154l-12.8019-4.6592a4.5531,4.5531,0,0,0-5.8335,2.7194l-4.6605,12.8032A6.5024,6.5024,0,0,1,124.54,242.2443Z" style="fill:#63250d"/><path d="M101.3537,233.8045A6.5038,6.5038,0,0,1,95.246,225.08l4.6592-12.8019a4.5531,4.5531,0,0,0-2.7194-5.8335l-12.8032-4.66a6.5,6.5,0,1,1,4.4459-12.2154l12.8032,4.66a17.55,17.55,0,0,1,10.4889,22.4961l-4.6592,12.8006A6.5012,6.5012,0,0,1,101.3537,233.8045Z" style="fill:#63250d"/><path d="M164.6056,204.3094a6.4668,6.4668,0,0,1-2.223-.3935l-12.8019-4.6592a17.5511,17.5511,0,0,1-10.4889-22.4961l4.6592-12.8019a6.5,6.5,0,1,1,12.2154,4.4459l-4.6592,12.8032a4.5561,4.5561,0,0,0,2.7206,5.8335l12.8007,4.6592a6.5006,6.5006,0,0,1-2.2229,12.6089Z" style="fill:#63250d"/><path d="M111.609,184.3181a17.4793,17.4793,0,0,1-5.9846-1.06l-12.802-4.6605a6.5,6.5,0,0,1,4.4459-12.2154l12.802,4.66a4.556,4.556,0,0,0,5.8335-2.7206l4.66-12.8019A6.5,6.5,0,0,1,132.78,159.966l-4.66,12.8019A17.5794,17.5794,0,0,1,111.609,184.3181Z" style="fill:#63250d"/></g></svg>