<svg xmlns="http://www.w3.org/2000/svg" xmlns:xlink="http://www.w3.org/1999/xlink" viewBox="0 0 512 512"><defs><linearGradient id="linear-gradient" x1="-374.3719" y1="266.2696" x2="-374.3719" y2="384.7292" gradientTransform="translate(-0.0112 -268.0877) rotate(-60)" gradientUnits="userSpaceOnUse"><stop offset="0" stop-color="#ffb03e"/><stop offset="1" stop-color="#ea911c"/></linearGradient><linearGradient id="linear-gradient-2" x1="-374.372" y1="290.8043" x2="-374.372" y2="384.7292" gradientTransform="translate(-0.0112 -268.0877) rotate(-60)" gradientUnits="userSpaceOnUse"><stop offset="0" stop-color="#ffe2ba"/><stop offset="1" stop-color="#ffd2a3"/></linearGradient><linearGradient id="linear-gradient-3" x1="-6386.7249" y1="-714.2987" x2="-6386.7249" y2="-595.8391" gradientTransform="matrix(-0.5, -0.866, -0.866, 0.5, -3343.3624, -4984.654)" xlink:href="#linear-gradient"/><linearGradient id="linear-gradient-4" x1="-6386.725" y1="-689.764" x2="-6386.725" y2="-595.8391" gradientTransform="matrix(-0.5, -0.866, -0.866, 0.5, -3343.3624, -4984.654)" xlink:href="#linear-gradient-2"/><linearGradient id="linear-gradient-5" x1="256.6356" y1="167.0568" x2="256.6356" y2="450.6449" gradientTransform="matrix(1, 0, 0, 1, 0, 0)" xlink:href="#linear-gradient"/><linearGradient id="linear-gradient-6" x1="256.6356" y1="341.9581" x2="256.6356" y2="450.6448" gradientTransform="matrix(1, 0, 0, 1, 0, 0)" xlink:href="#linear-gradient-2"/></defs><g id="Brown_sleeping"><path d="M183.28,183.9012c-42.0543-12.3367-86.183-14.1066-126.1727-4.8017a21.1838,21.1838,0,0,0-8.8979,4.438,21.4353,21.4353,0,0,0-6.7572,22.6784c11.9366,39.2842,35.533,76.6158,67.2442,106.8678Z" style="fill:url(#linear-gradient)"/><path d="M120.8331,292.0623c-26.3924-26.34-45.7339-57.4879-56.1862-90.5325,33.8475-7.4709,70.492-6.2942,106.4962,3.393Z" style="fill:url(#linear-gradient-2)"/><path d="M328.72,183.9012c42.0543-12.3367,86.183-14.1066,126.1727-4.8017a21.1838,21.1838,0,0,1,8.8979,4.438,21.4353,21.4353,0,0,1,6.7572,22.6784c-11.9366,39.2842-35.533,76.6158-67.2442,106.8678Z" style="fill:url(#linear-gradient-3)"/><path d="M391.1669,292.0623c26.3924-26.34,45.7339-57.4879,56.1862-90.5325-33.8475-7.4709-70.492-6.2942-106.4962,3.393Z" style="fill:url(#linear-gradient-4)"/><path d="M411.1754,374.5534c0-98.5709-31.9549-207.479-154.5254-207.4962v0l-.0143,0-.0146,0v0c-122.57.0172-154.5254,108.9253-154.5254,207.4962,0,48.428,32.3829,76.087,154.5254,76.0914v0l.0146,0,.0143,0v0C378.7927,450.64,411.1754,422.9814,411.1754,374.5534Z" style="fill:url(#linear-gradient-5)"/><path d="M411.1754,374.5534q0-6.18-.1771-12.4053c-21.6829-6.5392-50.34.5175-67.1,5.99a24.8287,24.8287,0,0,1-23.08-4.1758c-13.9442-11.0723-38.17-22.0044-64.1354-22.0044s-50.1919,10.9321-64.1355,22.0044a24.8294,24.8294,0,0,1-23.08,4.1758c-16.7847-5.4806-45.5012-12.55-67.1947-5.9608q-.1728,6.2058-.1764,12.3759c0,48.428,32.3829,76.0869,154.5254,76.0914h.0289C378.7929,450.64,411.1754,422.9814,411.1754,374.5534Z" style="fill:url(#linear-gradient-6)"/><path d="M263.15,411.5343a15.0111,15.0111,0,0,0,4.14-2.9179l17.3052-17.3052a8.5517,8.5517,0,0,0-6.0469-14.5986H234.7225a8.5517,8.5517,0,0,0-6.0469,14.5986l17.3052,17.3052a15.011,15.011,0,0,0,4.1694,2.9316v39.0674c2.1262.0181,4.273.0293,6.4566.0293h.0288c2.2033,0,4.3691-.0117,6.5146-.03Z" style="fill:#63250d"/><path d="M304.8712,342.0155a6.5,6.5,0,0,1,0-13c17.1781,0,36.2071-5.6482,43.6592-9.4644a6.5,6.5,0,1,1,5.9262,11.57C344.1455,336.4029,323.2629,342.0155,304.8712,342.0155Z" style="fill:#63250d"/><path d="M208.4,342.0155c-18.3905,0-39.273-5.6126-49.5841-10.8939a6.5,6.5,0,1,1,5.9262-11.57c7.4521,3.8162,26.4811,9.4644,43.6579,9.4644a6.5,6.5,0,0,1,0,13Z" style="fill:#63250d"/><ellipse cx="306.6737" cy="272.8594" rx="26.5773" ry="14.9654" transform="translate(-42.7221 57.398) rotate(-9.9999)" style="fill:#ffe2ba"/><ellipse cx="205.3263" cy="272.8594" rx="14.9654" ry="26.5773" transform="translate(-99.042 427.6854) rotate(-80.0001)" style="fill:#ffe2ba"/><path d="M401.3848,110.7551h-36.4a6.5,6.5,0,0,1-4.5957-11.0957l25.303-25.3043H364.9848a6.5,6.5,0,0,1,0-13h36.4a6.5,6.5,0,0,1,4.5957,11.0957l-25.303,25.3043h20.7073a6.5,6.5,0,0,1,0,13Z" style="fill:#63250d"/><path d="M345.6029,156.137h-26a6.5,6.5,0,0,1-4.5957-11.0957L329.91,130.137H319.6029a6.5,6.5,0,0,1,0-13h26a6.5,6.5,0,0,1,4.5957,11.0958l-14.903,14.9042h10.3073a6.5,6.5,0,0,1,0,13Z" style="fill:#63250d"/></g></svg>