<svg xmlns="http://www.w3.org/2000/svg" xmlns:xlink="http://www.w3.org/1999/xlink" viewBox="0 0 512 512"><defs><linearGradient id="linear-gradient" x1="-5202.1566" y1="-588.7633" x2="-5202.1566" y2="-470.3038" gradientTransform="matrix(-0.6428, -0.766, -0.766, 0.6428, -3349.3931, -3495.5316)" gradientUnits="userSpaceOnUse"><stop offset="0" stop-color="#ffb03e"/><stop offset="1" stop-color="#ea911c"/></linearGradient><linearGradient id="linear-gradient-2" x1="-5202.1567" y1="-564.2287" x2="-5202.1567" y2="-470.3038" gradientTransform="matrix(-0.6428, -0.766, -0.766, 0.6428, -3349.3931, -3495.5316)" gradientUnits="userSpaceOnUse"><stop offset="0" stop-color="#ffe2ba"/><stop offset="1" stop-color="#ffd2a3"/></linearGradient><linearGradient id="linear-gradient-3" x1="177.5107" y1="834.8163" x2="177.5107" y2="953.2759" gradientTransform="translate(-687.1157 -289.5267) rotate(-50)" xlink:href="#linear-gradient"/><linearGradient id="linear-gradient-4" x1="177.5106" y1="859.351" x2="177.5106" y2="953.2759" gradientTransform="translate(-687.1157 -289.5267) rotate(-50)" xlink:href="#linear-gradient-2"/><linearGradient id="linear-gradient-5" x1="256.6356" y1="114.7832" x2="256.6356" y2="398.3714" gradientTransform="matrix(1, 0, 0, 1, 0, 0)" xlink:href="#linear-gradient"/><linearGradient id="linear-gradient-6" x1="256.6359" y1="238.5848" x2="256.6359" y2="408.8458" gradientTransform="matrix(1, 0, 0, 1, 0, 0)" xlink:href="#linear-gradient-2"/><linearGradient id="linear-gradient-7" x1="-744.5246" y1="2272.1978" x2="-744.5246" y2="2308.5068" gradientTransform="translate(2176.0243 -1293.7987) rotate(30)" gradientUnits="userSpaceOnUse"><stop offset="0" stop-color="#35b1ef"/><stop offset="1" stop-color="#0f82bc"/></linearGradient><linearGradient id="linear-gradient-8" x1="-94.4742" y1="770.8169" x2="-94.4742" y2="816.2032" gradientTransform="translate(458.2605 -532.2321)" xlink:href="#linear-gradient-7"/><linearGradient id="linear-gradient-9" x1="3930.4428" y1="-426.8959" x2="3930.4428" y2="-390.5869" gradientTransform="matrix(-0.866, 0.5, 0.5, 0.866, 3735.4341, -1293.7987)" xlink:href="#linear-gradient-7"/><linearGradient id="linear-gradient-10" x1="4382.1068" y1="770.8169" x2="4382.1068" y2="816.2032" gradientTransform="matrix(-1, 0, 0, 1, 4531.5917, -532.2321)" xlink:href="#linear-gradient-7"/></defs><g id="Brown_cry"><path d="M306.8209,130.1118c39.2731-19.452,82.424-28.8578,123.422-26.6384a21.1843,21.1843,0,0,1,9.5334,2.8254,21.4353,21.4353,0,0,1,10.5926,21.1605c-4.9336,40.76-21.689,81.6221-47.6652,116.9211Z" style="fill:url(#linear-gradient)"/><path d="M387.101,225.7859c21.4175-30.5229,35.0564-64.5562,39.6117-98.9138-34.63-1.48-70.514,6.0422-104.289,21.8344Z" style="fill:url(#linear-gradient-2)"/><path d="M205.1791,130.1118c-39.2731-19.452-82.424-28.8578-123.422-26.6384a21.1843,21.1843,0,0,0-9.5334,2.8254,21.4353,21.4353,0,0,0-10.5926,21.1605c4.9336,40.76,21.689,81.6221,47.6652,116.9211Z" style="fill:url(#linear-gradient-3)"/><path d="M124.899,225.7859C103.4815,195.263,89.8426,161.23,85.2873,126.8721c34.6305-1.48,70.514,6.0422,104.289,21.8344Z" style="fill:url(#linear-gradient-4)"/><path d="M411.1754,322.28c0-98.571-31.9549-207.479-154.5254-207.4963v0l-.0143,0-.0146,0v0c-122.57.0173-154.5254,108.9253-154.5254,207.4963,0,48.428,32.3829,76.0869,154.5254,76.0914v0l.0146,0,.0143,0v0C378.7927,398.3668,411.1754,370.7079,411.1754,322.28Z" style="fill:url(#linear-gradient-5)"/><path d="M411.1758,322.28a386.23,386.23,0,0,0-5.0058-63.7372c-20.9231-7.3957-49.6371-.3593-66.1918,5.0463a23.7138,23.7138,0,0,1-22.0435-3.9884c-13.3174-10.5748-36.4552-21.0158-61.2542-21.0158s-47.9369,10.441-61.2543,21.0158a23.7137,23.7137,0,0,1-22.0435,3.9884c-16.58-5.4139-45.3559-12.4628-66.2867-5.0116a386.3031,386.3031,0,0,0-5,63.7025c0,31.62,13.8163,54.3813,57.3976,66.3761a10.5171,10.5171,0,0,1,7.0342,6.6125A20.7763,20.7763,0,0,0,188.68,408.6744a606.27,606.27,0,0,1,67.9606-4.2123,609.2075,609.2075,0,0,1,67.9644,4.2123,20.7552,20.7552,0,0,0,22.1535-13.4087,10.5173,10.5173,0,0,1,7.0341-6.6138C397.3623,376.6559,411.1758,353.8959,411.1758,322.28Z" style="fill:url(#linear-gradient-6)"/><path d="M256.654,283.9716v-.0005l-.0113,0-.0108,0v.0005c-62.19.0186-69.6616,75.8447-70.5166,98.04a5.1881,5.1881,0,0,0,5.761,5.3514,627.8483,627.8483,0,0,1,64.7664-3.701,627.843,627.843,0,0,1,64.7665,3.701,5.1882,5.1882,0,0,0,5.761-5.3514C326.3152,359.8164,318.8436,283.99,256.654,283.9716Z" style="fill:#ce2c2c"/><path d="M245.9879,264.8787a15.0017,15.0017,0,0,0,4.1695,2.9317v16.2207c0,.08.0092.1582.0119.238,2.086-.1887,4.2317-.2969,6.4553-.2976v0l.0108,0,.0112,0v0c2.239.0007,4.3989.1106,6.4986.3018.0029-.0811.0122-.16.0122-.2422V267.797a15.0077,15.0077,0,0,0,4.14-2.9183l17.3052-17.3049a8.5517,8.5517,0,0,0-6.0469-14.5986H234.73a8.5516,8.5516,0,0,0-6.0468,14.5986Z" style="fill:#63250d"/><path d="M339.862,245.0844a6.4727,6.4727,0,0,1-3.8886-1.2949L298.3775,215.663a6.5,6.5,0,0,1,3.1243-11.6594l46.6223-5.5605a6.5,6.5,0,0,1,1.5387,12.9086l-30.4865,3.6359,24.5844,18.3917a6.5,6.5,0,0,1-3.8987,11.7051Z" style="fill:#63250d"/><path d="M173.41,245.0844a6.5,6.5,0,0,1-3.8988-11.7051l24.5832-18.3917-30.4852-3.6359a6.5,6.5,0,1,1,1.5386-12.9086l46.621,5.5605a6.5,6.5,0,0,1,3.1244,11.6594L177.2985,243.79A6.4724,6.4724,0,0,1,173.41,245.0844Z" style="fill:#63250d"/><ellipse cx="310.5737" cy="168.898" rx="14.9654" ry="26.5773" transform="translate(26.2464 378.9946) rotate(-65.0001)" style="fill:#ffe2ba"/><ellipse cx="201.4263" cy="168.898" rx="26.5773" ry="14.9654" transform="translate(-52.5072 100.9504) rotate(-24.9999)" style="fill:#ffe2ba"/><path d="M396.9834,305.5551l-13.248-10.373a4.3857,4.3857,0,0,0-6.7718,1.8145l-6.2866,15.6072a17.0367,17.0367,0,0,0,7.2845,21.12h0a17.0369,17.0369,0,0,0,23.2729-6.2357l0,0A17.0365,17.0365,0,0,0,396.9834,305.5551Z" style="fill:url(#linear-gradient-7)"/><path d="M368.17,241.59,347.3453,238.64a5.4821,5.4821,0,0,0-6.1966,6.1966l2.9491,20.8245a21.2957,21.2957,0,0,0,21.0854,18.31h0a21.296,21.296,0,0,0,21.2962-21.2959v0A21.2957,21.2957,0,0,0,368.17,241.59Z" style="fill:url(#linear-gradient-8)"/><path d="M116.2878,305.5551l13.2479-10.373a4.3857,4.3857,0,0,1,6.7718,1.8145l6.2866,15.6072a17.0367,17.0367,0,0,1-7.2845,21.12h0a17.0369,17.0369,0,0,1-23.2729-6.2357l0,0A17.0364,17.0364,0,0,1,116.2878,305.5551Z" style="fill:url(#linear-gradient-9)"/><path d="M145.1014,241.59l20.8244-2.9491a5.4821,5.4821,0,0,1,6.1966,6.1966l-2.9491,20.8245a21.2956,21.2956,0,0,1-21.0853,18.31h0a21.296,21.296,0,0,1-21.2963-21.2959v0A21.2957,21.2957,0,0,1,145.1014,241.59Z" style="fill:url(#linear-gradient-10)"/></g></svg>