<svg xmlns="http://www.w3.org/2000/svg" xmlns:xlink="http://www.w3.org/1999/xlink" viewBox="0 0 512 512"><defs><linearGradient id="linear-gradient" x1="-801.3548" y1="-799.0567" x2="-801.3548" y2="-680.5971" gradientTransform="matrix(-0.9397, -0.342, -0.342, 0.9397, -659.8037, 537.1544)" gradientUnits="userSpaceOnUse"><stop offset="0" stop-color="#ffb03e"/><stop offset="1" stop-color="#ea911c"/></linearGradient><linearGradient id="linear-gradient-2" x1="-801.3549" y1="-774.522" x2="-801.3549" y2="-680.5971" gradientTransform="matrix(-0.9397, -0.342, -0.342, 0.9397, -659.8037, 537.1544)" gradientUnits="userSpaceOnUse"><stop offset="0" stop-color="#ffe2ba"/><stop offset="1" stop-color="#ffd2a3"/></linearGradient><linearGradient id="linear-gradient-3" x1="-934.7895" y1="734.2809" x2="-934.7895" y2="852.7404" gradientTransform="matrix(0.9397, -0.342, 0.342, 0.9397, 781.6257, -949.349)" xlink:href="#linear-gradient"/><linearGradient id="linear-gradient-4" x1="-934.7896" y1="758.8155" x2="-934.7896" y2="852.7404" gradientTransform="matrix(0.9397, -0.342, 0.342, 0.9397, 781.6257, -949.349)" xlink:href="#linear-gradient-2"/><linearGradient id="linear-gradient-5" x1="260.4189" y1="102.6937" x2="260.4189" y2="386.2818" gradientTransform="matrix(1, 0, 0, 1, 0, 0)" xlink:href="#linear-gradient"/><linearGradient id="linear-gradient-6" x1="105.8792" y1="339.0371" x2="414.9586" y2="339.0371" gradientTransform="matrix(1, 0, 0, 1, 0, 0)" xlink:href="#linear-gradient-2"/><linearGradient id="linear-gradient-7" x1="293.1116" y1="371.5078" x2="293.1116" y2="425.5576" gradientUnits="userSpaceOnUse"><stop offset="0" stop-color="#35b1ef"/><stop offset="1" stop-color="#0f82bc"/></linearGradient><linearGradient id="linear-gradient-8" x1="237.6515" y1="378.5576" x2="237.6515" y2="452.9277" xlink:href="#linear-gradient-7"/><linearGradient id="linear-gradient-9" x1="304.2685" y1="196.7738" x2="349.9782" y2="242.4836" gradientUnits="userSpaceOnUse"><stop offset="0" stop-color="#4c1b00"/><stop offset="1" stop-color="#2d0000"/></linearGradient><linearGradient id="linear-gradient-10" x1="170.8885" y1="196.7738" x2="216.5982" y2="242.4836" xlink:href="#linear-gradient-9"/></defs><g id="Brown_drooling"><path d="M255.9158,146.1727c24.2855-36.4825,56.9524-66.2037,93.5674-84.78a21.1835,21.1835,0,0,1,9.6688-2.32,21.4355,21.4355,0,0,1,19.7538,13.0292c16.1074,37.7662,22.0278,81.5314,17.1812,125.0893Z" style="fill:url(#linear-gradient)"/><path d="M373.2774,188.8888c3.2867-37.1423-1.9183-73.4354-15.1521-105.4676-30.7308,16.0337-58.0458,40.49-79.4,71.0536Z" style="fill:url(#linear-gradient-2)"/><path d="M264.9509,146.1727c-24.2855-36.4825-56.9524-66.2037-93.5674-84.78a21.1835,21.1835,0,0,0-9.6688-2.32,21.4355,21.4355,0,0,0-19.7538,13.0292c-16.1074,37.7662-22.0278,81.5314-17.1812,125.0893Z" style="fill:url(#linear-gradient-3)"/><path d="M147.5893,188.8888c-3.2867-37.1423,1.9183-73.4354,15.1521-105.4676,30.7308,16.0337,58.0458,40.49,79.4,71.0536Z" style="fill:url(#linear-gradient-4)"/><path d="M414.9588,310.19c0-98.5709-31.9549-207.4789-154.5255-207.4962v0l-.0142,0-.0146,0v0c-122.57.0173-154.5255,108.9253-154.5255,207.4962,0,48.428,32.3829,76.087,154.5255,76.0914v0l.0146,0,.0142,0v0C382.5761,386.2773,414.9588,358.6183,414.9588,310.19Z" style="fill:url(#linear-gradient-5)"/><path d="M414.9586,310.19c0-10.3357-.3567-20.7847-1.1273-31.21-21.1133-9.877-52.4666-2.2806-70.07,3.4674a23.7132,23.7132,0,0,1-22.0435-3.9884c-13.3177-10.5747-36.4555-21.0157-61.2542-21.0157s-47.9366,10.441-61.2546,21.0159a23.7135,23.7135,0,0,1-22.0432,3.9882c-17.6293-5.7564-49.0483-13.3661-70.1625-3.4231-.7681,10.4108-1.1242,20.8449-1.1242,31.1658,0,39.257,21.2853,64.8642,94.4071,73.1582,13.1476,24.1692,34.0472,37.2758,60.1405,37.2822h.0115c26.0834-.0064,46.9809-13.1135,60.1275-37.2838C393.6762,375.0513,414.9586,349.4447,414.9586,310.19Z" style="fill:url(#linear-gradient-6)"/><path d="M303.2966,371.5078v43.86a10.1851,10.1851,0,1,1-20.37,0v-21.17C292.1265,388.9775,298.6565,380.6577,303.2966,371.5078Z" style="fill:url(#linear-gradient-7)"/><path d="M253.6565,399.3876v37.54a16.005,16.005,0,0,1-32.01,0v-58.37C228.6565,389.0878,238.8466,397.4379,253.6565,399.3876Z" style="fill:url(#linear-gradient-8)"/><path d="M312.8235,329.0356a29.97,29.97,0,0,1-5.01-.4229l-47.4017-8.04-47.4043,8.04a29.9445,29.9445,0,0,1-5.0083.4229c-.4976,0-.9923-.0225-1.4866-.0474,1.5229,18.5684,9.73,70.8306,53.8986,70.8423v.0005l.0072-.0005.0073.0005v-.0005c44.1685-.0117,52.3759-52.2749,53.8987-70.8428C313.8257,329.0131,313.326,329.0356,312.8235,329.0356Z" style="fill:#ce2c2c"/><path d="M342.9847,294.7519a6.5013,6.5013,0,0,0-8.9591,2.0605l-7.1411,11.4063a16.579,16.579,0,0,1-16.8885,7.5766L266.92,308.4892V299.622a15.0085,15.0085,0,0,0,4.1687-2.9311l17.3052-17.3052a8.5517,8.5517,0,0,0-6.047-14.5987H238.52a8.5517,8.5517,0,0,0-6.0469,14.5987l17.3051,17.3052a15.0172,15.0172,0,0,0,4.1409,2.9184v8.88L210.84,315.7953a16.59,16.59,0,0,1-16.8872-7.5766l-7.1411-11.4063a6.5,6.5,0,1,0-11.0195,6.8985l7.1411,11.4067a29.5337,29.5337,0,0,0,25.0732,13.918,29.9436,29.9436,0,0,0,5.0083-.4229l47.4043-8.04,47.4018,8.04a29.9692,29.9692,0,0,0,5.01.4229,29.5337,29.5337,0,0,0,25.0732-13.918l7.1412-11.4067A6.5009,6.5009,0,0,0,342.9847,294.7519Z" style="fill:#63250d"/><rect x="300.9668" y="184.7533" width="52.313" height="69.7507" rx="26.1565" style="fill:url(#linear-gradient-9)"/><circle cx="333.6625" cy="208.7301" r="10.8985" style="fill:#ffefdc"/><rect x="167.5868" y="184.7533" width="52.313" height="69.7507" rx="26.1565" style="fill:url(#linear-gradient-10)"/><circle cx="200.2825" cy="208.7301" r="10.8985" style="fill:#ffefdc"/><ellipse cx="320.857" cy="147.9574" rx="17.8658" ry="14.9654" style="fill:#ffe2ba"/><ellipse cx="200.477" cy="147.9574" rx="17.8659" ry="14.9654" style="fill:#ffe2ba"/><path d="M435.5684,229.63a18.7488,18.7488,0,0,1-12.8431-13.1838l-5.107-19.255-5.1066,19.2546a18.7483,18.7483,0,0,1-12.843,13.1842l-11.4338,3.3553,11.4334,3.355a18.75,18.75,0,0,1,12.8438,13.1844l5.1062,19.2543,5.107-19.2545A18.75,18.75,0,0,1,435.5687,236.34l11.4331-3.355Z" style="fill:#ffca2e"/><path d="M121.4879,203.18A22.3755,22.3755,0,0,1,106.16,187.4458l-6.0948-22.9795-6.0944,22.9791A22.375,22.375,0,0,1,78.6437,203.18l-13.6455,4.0044,13.6451,4.004A22.3772,22.3772,0,0,1,93.9716,226.923l6.094,22.9789,6.0948-22.9791a22.3768,22.3768,0,0,1,15.3279-15.7345l13.6447-4.004Z" style="fill:#ffca2e"/></g></svg>