<svg xmlns="http://www.w3.org/2000/svg" xmlns:xlink="http://www.w3.org/1999/xlink" viewBox="0 0 512 512"><defs><linearGradient id="linear-gradient" x1="-1526.0455" y1="-321.7953" x2="-1526.0455" y2="-203.3357" gradientTransform="matrix(-0.866, -0.5, -0.5, 0.866, -1107.1823, -387.4856)" gradientUnits="userSpaceOnUse"><stop offset="0" stop-color="#ffb03e"/><stop offset="1" stop-color="#ea911c"/></linearGradient><linearGradient id="linear-gradient-2" x1="-1526.0456" y1="-297.2606" x2="-1526.0456" y2="-203.3357" gradientTransform="matrix(-0.866, -0.5, -0.5, 0.866, -1107.1823, -387.4856)" gradientUnits="userSpaceOnUse"><stop offset="0" stop-color="#ffe2ba"/><stop offset="1" stop-color="#ffd2a3"/></linearGradient><linearGradient id="linear-gradient-3" x1="104.155" y1="619.4014" x2="104.155" y2="737.861" gradientTransform="translate(-285.1764 -387.4856) rotate(-30)" xlink:href="#linear-gradient"/><linearGradient id="linear-gradient-4" x1="104.1549" y1="643.9361" x2="104.1549" y2="737.861" gradientTransform="translate(-285.1764 -387.4856) rotate(-30)" xlink:href="#linear-gradient-2"/><linearGradient id="linear-gradient-5" x1="245.0028" y1="134.4379" x2="245.0028" y2="418.026" gradientTransform="matrix(1, 0, 0, 1, 0, 0)" xlink:href="#linear-gradient"/><linearGradient id="linear-gradient-6" x1="245.0028" y1="289.1877" x2="245.0028" y2="418.026" gradientTransform="matrix(1, 0, 0, 1, 0, 0)" xlink:href="#linear-gradient-2"/><linearGradient id="linear-gradient-7" x1="245.0026" y1="397.3639" x2="245.0026" y2="342.1918" gradientUnits="userSpaceOnUse"><stop offset="0" stop-color="#ff9199"/><stop offset="1" stop-color="#fb5c64"/></linearGradient><linearGradient id="linear-gradient-8" x1="565.7131" y1="1150.8922" x2="565.7131" y2="1246.0367" gradientTransform="translate(181.5609 -1079.4468) rotate(15)" gradientUnits="userSpaceOnUse"><stop offset="0" stop-color="#f47873"/><stop offset="1" stop-color="#e2433e"/></linearGradient><linearGradient id="linear-gradient-9" x1="286.4122" y1="-1060.4551" x2="286.4122" y2="-985.3869" gradientTransform="matrix(0.9397, -0.342, 0.342, 0.9397, 162.9467, 1360.3005)" xlink:href="#linear-gradient-8"/></defs><g id="Brown_love"><path d="M251.4885,162.1515C281.74,130.44,319.0718,106.8433,358.3563,94.9068a21.1845,21.1845,0,0,1,9.9248-.6056,21.4354,21.4354,0,0,1,17.1912,16.2614c9.3046,39.9895,7.5354,84.1178-4.8014,126.1725Z" style="fill:url(#linear-gradient)"/><path d="M359.65,224.5983c9.6864-36.0073,10.8628-72.6529,3.3924-106.4965-33.0482,10.4538-64.195,29.795-90.5318,56.1865Z" style="fill:url(#linear-gradient-2)"/><path d="M238.5461,162.1515c-30.2517-31.7111-67.5833-55.3082-106.8678-67.2447a21.1845,21.1845,0,0,0-9.9248-.6056,21.4354,21.4354,0,0,0-17.1912,16.2614c-9.3047,39.9895-7.5354,84.1178,4.8013,126.1725Z" style="fill:url(#linear-gradient-3)"/><path d="M130.3851,224.5983c-9.6864-36.0073-10.8628-72.6529-3.3924-106.4965,33.0482,10.4538,64.1949,29.795,90.5318,56.1865Z" style="fill:url(#linear-gradient-4)"/><path d="M399.5427,341.9345c0-98.5709-31.9549-207.4789-154.5254-207.4962v0l-.0143,0-.0146,0v0C122.418,134.4556,90.463,243.3636,90.463,341.9345c0,48.428,32.3829,76.087,154.5254,76.0914v0l.0146,0,.0143,0v0C367.16,418.0215,399.5427,390.3625,399.5427,341.9345Z" style="fill:url(#linear-gradient-5)"/><path d="M399.5427,341.9345c0-10.3356-.357-20.7846-1.1273-31.21-21.1134-9.877-52.4667-2.2805-70.07,3.4674a23.713,23.713,0,0,1-22.0434-3.9883c-13.3178-10.5748-36.4557-21.0158-61.2545-21.0158s-47.9365,10.441-61.2544,21.0158a23.7133,23.7133,0,0,1-22.0434,3.9883c-17.6291-5.7563-49.0484-13.3661-70.1626-3.4231-.7679,10.4108-1.1241,20.8448-1.1241,31.1658,0,48.4155,32.3672,76.0724,154.4316,76.0911l.1049,0h.0035l.0143,0v0C367.16,418.0215,399.5427,390.3625,399.5427,341.9345Z" style="fill:url(#linear-gradient-6)"/><path d="M245.0023,342.1918l-33.7034,8.7969V363.66a33.7036,33.7036,0,0,0,33.7036,33.7038h0A33.7037,33.7037,0,0,0,278.7063,363.66V350.9887Z" style="fill:url(#linear-gradient-7)"/><path d="M323.1068,324.0077a6.4986,6.4986,0,0,0-9.1038,1.2735l-7.5156,9.9582a14.9143,14.9143,0,0,1-15.7168,5.4627l-39.2681-10.2488V317.0666a15.0053,15.0053,0,0,0,4.17-2.9317L272.9771,296.83a8.5516,8.5516,0,0,0-6.0468-14.5986h-43.826a8.5516,8.5516,0,0,0-6.0468,14.5986l17.3049,17.3049a15.01,15.01,0,0,0,4.14,2.9182v13.4L199.235,340.7021a14.9168,14.9168,0,0,1-15.7157-5.4627l-7.5182-9.9595a6.5,6.5,0,1,0-10.3745,7.8331l7.518,9.9594a27.8884,27.8884,0,0,0,29.3731,10.2083l42.4848-11.0889,42.4849,11.0889a27.8915,27.8915,0,0,0,29.376-10.21l7.5166-9.9595A6.5007,6.5007,0,0,0,323.1068,324.0077Z" style="fill:#63250d"/><path d="M290.4582,271.2562a6.6121,6.6121,0,0,1-1.3-.1307,6.5021,6.5021,0,0,1-5.0768-7.6642,28.2,28.2,0,0,1,55.2525-.0419,6.5,6.5,0,1,1-12.7359,2.6051,15.1994,15.1994,0,0,0-29.7756.0241A6.5032,6.5032,0,0,1,290.4582,271.2562Z" style="fill:#63250d"/><path d="M157.0788,271.2562a6.59,6.59,0,0,1-1.2988-.1307,6.5006,6.5006,0,0,1-5.0781-7.6629,28.2,28.2,0,0,1,55.2525-.0444,6.5,6.5,0,0,1-12.7359,2.6076,15.1994,15.1994,0,0,0-29.7756.0216A6.503,6.503,0,0,1,157.0788,271.2562Z" style="fill:#63250d"/><ellipse cx="305.4409" cy="187.1144" rx="17.8658" ry="14.9654" style="fill:#ffe2ba"/><ellipse cx="185.0609" cy="187.1144" rx="17.8659" ry="14.9654" style="fill:#ffe2ba"/><path d="M471.6515,196.9085c-9.2062-12.93-27.2829-15.8928-41.0284-7.9566l-3.8554,2.2253s-2.6913-4.66-2.8784-4.9855a30.39,30.39,0,1,0-52.6372,30.3905c.1433.2489,19.6194,33.9826,28.7018,49.7138a9.1364,9.1364,0,0,0,12.4978,3.33l49.6924-28.689A30.3972,30.3972,0,0,0,471.6515,196.9085Z" style="fill:url(#linear-gradient-8)"/><path d="M104.492,258.85c-11.8017-4.1909-24.8253,2.0752-30.1176,13.4249L72.89,275.4575s-3.8485-1.7941-4.1165-1.9195A23.9776,23.9776,0,1,0,48.5067,317c.2053.096,28.0589,13.0844,41.0479,19.1413a7.2086,7.2086,0,0,0,9.5843-3.5038l19.1332-41.03A23.983,23.983,0,0,0,104.492,258.85Z" style="fill:url(#linear-gradient-9)"/></g></svg>