<svg xmlns="http://www.w3.org/2000/svg" xmlns:xlink="http://www.w3.org/1999/xlink" viewBox="0 0 512 512"><defs><linearGradient id="linear-gradient" x1="-4037.546" y1="-1599.493" x2="-4037.546" y2="-1481.0334" gradientTransform="matrix(-0.9659, -0.2588, -0.2588, 0.9659, -3973.8633, 562.8628)" gradientUnits="userSpaceOnUse"><stop offset="0" stop-color="#ffb03e"/><stop offset="1" stop-color="#ea911c"/></linearGradient><linearGradient id="linear-gradient-2" x1="-4037.5461" y1="-1574.9583" x2="-4037.5461" y2="-1481.0334" gradientTransform="matrix(-0.9659, -0.2588, -0.2588, 0.9659, -3973.8633, 562.8628)" gradientUnits="userSpaceOnUse"><stop offset="0" stop-color="#ffe2ba"/><stop offset="1" stop-color="#ffd2a3"/></linearGradient><linearGradient id="linear-gradient-3" x1="533.1494" y1="1039.3992" x2="533.1494" y2="1157.8588" gradientTransform="translate(-1023.5791 -227.6635) rotate(-45)" xlink:href="#linear-gradient"/><linearGradient id="linear-gradient-4" x1="533.1493" y1="1063.9339" x2="533.1493" y2="1157.8588" gradientTransform="translate(-1023.5791 -227.6635) rotate(-45)" xlink:href="#linear-gradient-2"/><linearGradient id="linear-gradient-5" x1="346.6984" y1="-443.0561" x2="346.6984" y2="-159.468" gradientTransform="translate(3.7331 650.5852) rotate(-15)" xlink:href="#linear-gradient"/><linearGradient id="linear-gradient-6" x1="271.5228" y1="474.2539" x2="329.6275" y2="633.8951" gradientTransform="translate(34.8456 -213.7432) rotate(5)" xlink:href="#linear-gradient-2"/><linearGradient id="linear-gradient-7" x1="315.2924" y1="166.5657" x2="315.2924" y2="211.952" gradientTransform="translate(23.7469 164.2655) rotate(-15)" gradientUnits="userSpaceOnUse"><stop offset="0" stop-color="#35b1ef"/><stop offset="1" stop-color="#0f82bc"/></linearGradient><linearGradient id="linear-gradient-8" x1="4351.8478" y1="166.5657" x2="4351.8478" y2="211.952" gradientTransform="matrix(-0.9659, 0.2588, 0.2588, 0.9659, 4312.0516, -984.7823)" xlink:href="#linear-gradient-7"/></defs><g id="Brown_laugh_with_tear"><path d="M237.3841,157.9845c21.0135-38.46,50.9657-70.9155,85.8222-92.6129a21.1858,21.1858,0,0,1,9.43-3.1537A21.4356,21.4356,0,0,1,353.45,73.4759c19.3376,36.2186,29.05,79.3012,28.0181,123.1159Z" style="fill:url(#linear-gradient)"/><path d="M358.0221,190.3093c.037-37.2875-8.3114-72.9888-24.2866-103.7457-29.2164,18.6511-54.296,45.3946-72.9048,77.7034Z" style="fill:url(#linear-gradient-2)"/><path d="M224.8828,161.3342c-37.4284-22.8008-79.5953-35.9318-120.6307-37.294a21.1841,21.1841,0,0,0-9.7433,1.9838,21.4355,21.4355,0,0,0-12.3967,20.1567c1.3625,41.0351,14.4927,83.2019,37.2936,120.6306Z" style="fill:url(#linear-gradient-3)"/><path d="M136.57,249.6473c-18.6757-32.2734-29.2965-67.3658-30.84-101.99,34.6278,1.5441,69.7191,12.1649,101.9892,30.8407Z" style="fill:url(#linear-gradient-4)"/><path d="M426.9248,293.3222C401.4128,198.11,342.3593,101.1835,223.9607,132.89l0,0-.0137.0039-.0142.0036,0,0c-118.3894,31.74-121.0681,145.2079-95.5561,240.42,12.5341,46.7778,50.9722,65.113,168.954,33.5045v0l.0141-.0039.0138-.0036v0C415.3383,375.1979,439.4589,340.1,426.9248,293.3222Z" style="fill:url(#linear-gradient-5)"/><path d="M426.9273,293.3224c-2.6751-9.9834-5.7246-19.9839-9.1665-29.8548-22.9506-4.076-51.27,11.3766-66.7852,21.4847a23.7128,23.7128,0,0,1-22.3245,1.8528c-15.6012-6.7676-40.653-10.8643-64.6067-4.4459s-43.6009,22.4922-53.7279,36.1536a23.7136,23.7136,0,0,1-20.26,9.5577c-18.5184-.9975-50.8365-.216-68.6578,14.8529,1.9527,10.2548,4.309,20.4255,6.98,30.3947,9.0706,33.8518,31.7186,52.8005,88.25,48.7124a10.4772,10.4772,0,0,1,8.0786,2.9874,91.647,91.647,0,0,0,17.7361,13.6878c19.6823,11.5278,41.7293,14.14,65.5274,7.763s41.5854-19.6622,52.8669-39.4872a92.0519,92.0519,0,0,0,8.5366-20.7386,10.4765,10.4765,0,0,1,5.4992-6.6174C425.8611,354.9021,435.9966,327.1705,426.9273,293.3224Z" style="fill:url(#linear-gradient-6)"/><path d="M330.8805,330.503l-53.89.3521L230.142,357.4972a32.6492,32.6492,0,0,1-16.156,4.2886c-.4539,0-.906-.0367-1.3594-.0557,3.7229,12.5635,26.8281,80.0161,89.5713,63.2041,62.7317-16.8088,49.0315-86.7549,45.9705-99.5154A32.5957,32.5957,0,0,1,330.8805,330.503Z" style="fill:#ce2c2c"/><path d="M330.8813,330.503l-16.2348.106,9.9206,9.9207a4.5218,4.5218,0,0,0,7.565-2.0271l2.2038-8.2246A32.94,32.94,0,0,1,330.8813,330.503Z" style="fill:#ffefdc"/><path d="M230.1428,357.4972a33.0344,33.0344,0,0,1-3.0749,1.5244l6.02,6.02a4.5217,4.5217,0,0,0,7.5649-2.0273l3.6336-13.56Z" style="fill:#ffefdc"/><path d="M363.0614,287.5421a6.5023,6.5023,0,0,0-8.4653,3.5852l-5.709,14.0994a19.5914,19.5914,0,0,1-18.09,12.2763l-50.5664.33-3.0739-11.4721a15.0068,15.0068,0,0,0,3.2678-3.91l12.2365-21.1941a8.5516,8.5516,0,0,0-9.6191-12.5362L240.71,280.0634a8.5517,8.5517,0,0,0-2.0625,15.6662l21.1944,12.2363a15.0035,15.0035,0,0,0,4.7541,1.7471l3.0777,11.4861-43.9571,24.9968a19.596,19.596,0,0,1-21.8051-1.5869l-11.9934-9.3552a6.5,6.5,0,1,0-7.9954,10.25l11.9932,9.355a32.5571,32.5571,0,0,0,36.2272,2.6382l46.8482-26.6421,53.89-.3521a32.5537,32.5537,0,0,0,30.0561-20.3962l5.709-14.0994A6.5014,6.5014,0,0,0,363.0614,287.5421Z" style="fill:#63250d"/><path d="M346.91,256.3282a6.43,6.43,0,0,1-.7769-.047l-46.6223-5.5592a6.5,6.5,0,0,1-3.1243-11.6594l37.5959-28.1277a6.5,6.5,0,1,1,7.7873,10.41l-24.5845,18.393,30.4865,3.6347a6.5006,6.5006,0,0,1-.7617,12.9555Z" style="fill:#63250d"/><path d="M175.9642,302.1316a6.5,6.5,0,0,1-3.8987-11.705l24.5832-18.3917-30.4853-3.636a6.5,6.5,0,0,1,1.5387-12.9086l46.621,5.5606a6.5,6.5,0,0,1,3.1243,11.6594l-37.5946,28.1264A6.4721,6.4721,0,0,1,175.9642,302.1316Z" style="fill:#63250d"/><ellipse cx="299.3237" cy="180.6899" rx="17.8658" ry="14.9654" transform="translate(-36.5668 83.6275) rotate(-15)" style="fill:#ffe2ba"/><ellipse cx="183.0456" cy="211.8465" rx="17.8659" ry="14.9654" transform="translate(-48.5938 54.5956) rotate(-15.0004)" style="fill:#ffe2ba"/><path d="M376.4181,245.32,355.54,247.8608a5.4821,5.4821,0,0,0-4.3816,7.5893l8.2383,19.3516A21.2957,21.2957,0,0,0,384.5025,287.03h0a21.2961,21.2961,0,0,0,15.0588-26.0822l0,0A21.2955,21.2955,0,0,0,376.4181,245.32Z" style="fill:url(#linear-gradient-7)"/><path d="M148.1434,306.4857l19.3515-8.2383a5.4821,5.4821,0,0,1,7.5893,4.3816l2.5412,20.8782a21.2956,21.2956,0,0,1-15.628,23.143h0a21.296,21.296,0,0,1-26.0824-15.0583l0,0A21.2957,21.2957,0,0,1,148.1434,306.4857Z" style="fill:url(#linear-gradient-8)"/></g></svg>