<svg xmlns="http://www.w3.org/2000/svg" xmlns:xlink="http://www.w3.org/1999/xlink" viewBox="0 0 512 512"><defs><linearGradient id="linear-gradient" x1="-2333.5693" y1="-541.1173" x2="-2333.5693" y2="-422.6577" gradientTransform="matrix(-0.866, -0.5, -0.5, 0.866, -1905.1823, -601.309)" gradientUnits="userSpaceOnUse"><stop offset="0" stop-color="#ffb03e"/><stop offset="1" stop-color="#ea911c"/></linearGradient><linearGradient id="linear-gradient-2" x1="-2333.5694" y1="-516.5826" x2="-2333.5694" y2="-422.6577" gradientTransform="matrix(-0.866, -0.5, -0.5, 0.866, -1905.1823, -601.309)" gradientUnits="userSpaceOnUse"><stop offset="0" stop-color="#ffe2ba"/><stop offset="1" stop-color="#ffd2a3"/></linearGradient><linearGradient id="linear-gradient-3" x1="-684.3212" y1="411.0765" x2="-684.3212" y2="529.5361" gradientTransform="translate(512.8236 -601.309) rotate(-30)" xlink:href="#linear-gradient"/><linearGradient id="linear-gradient-4" x1="-684.3213" y1="435.6112" x2="-684.3213" y2="529.5361" gradientTransform="translate(512.8236 -601.309) rotate(-30)" xlink:href="#linear-gradient-2"/><linearGradient id="linear-gradient-5" x1="256" y1="134.4379" x2="256" y2="418.026" gradientTransform="matrix(1, 0, 0, 1, 0, 0)" xlink:href="#linear-gradient"/><linearGradient id="linear-gradient-6" x1="256" y1="289.1877" x2="256" y2="418.026" gradientTransform="matrix(1, 0, 0, 1, 0, 0)" xlink:href="#linear-gradient-2"/><linearGradient id="linear-gradient-7" x1="311.6736" y1="251.0447" x2="345.9058" y2="285.2769" gradientUnits="userSpaceOnUse"><stop offset="0" stop-color="#4c1b00"/><stop offset="1" stop-color="#2d0000"/></linearGradient><linearGradient id="linear-gradient-8" x1="7976.0849" y1="249.0931" x2="7937.9494" y2="287.2286" gradientTransform="matrix(-1, 0, 0, 1, 8156.3236, 0)" xlink:href="#linear-gradient-7"/></defs><g id="Brown_smirk"><path d="M262.4856,162.1515c30.2517-31.7111,67.5833-55.3082,106.8679-67.2447a21.1843,21.1843,0,0,1,9.9248-.6056,21.4354,21.4354,0,0,1,17.1911,16.2614c9.3047,39.9895,7.5354,84.1178-4.8013,126.1725Z" style="fill:url(#linear-gradient)"/><path d="M370.6467,224.5983c9.6864-36.0073,10.8627-72.6529,3.3923-106.4965-33.0482,10.4538-64.1949,29.795-90.5318,56.1865Z" style="fill:url(#linear-gradient-2)"/><path d="M249.5433,162.1515C219.2916,130.44,181.96,106.8433,142.6754,94.9068a21.1843,21.1843,0,0,0-9.9248-.6056,21.4356,21.4356,0,0,0-17.1912,16.2614c-9.3046,39.9895-7.5353,84.1178,4.8014,126.1725Z" style="fill:url(#linear-gradient-3)"/><path d="M141.3822,224.5983c-9.6864-36.0073-10.8627-72.6529-3.3924-106.4965,33.0483,10.4538,64.195,29.795,90.5319,56.1865Z" style="fill:url(#linear-gradient-4)"/><path d="M410.54,341.9345c0-98.5709-31.9549-207.4789-154.5255-207.4962v0l-.0142,0-.0146,0v0c-122.57.0173-154.5255,108.9253-154.5255,207.4962,0,48.428,32.3829,76.087,154.5255,76.0914v0l.0146,0,.0142,0v0C378.1572,418.0215,410.54,390.3625,410.54,341.9345Z" style="fill:url(#linear-gradient-5)"/><path d="M410.54,341.9345c0-10.3356-.3571-20.7846-1.1274-31.21-21.1133-9.877-52.4667-2.2805-70.07,3.4674a23.7128,23.7128,0,0,1-22.0433-3.9883c-13.3178-10.5748-36.4557-21.0158-61.2545-21.0158s-47.9366,10.441-61.2544,21.0158a23.7135,23.7135,0,0,1-22.0435,3.9883c-17.6291-5.7563-49.0483-13.3661-70.1625-3.4231-.768,10.4108-1.1242,20.8448-1.1242,31.1658,0,48.4155,32.3673,76.0724,154.4317,76.0911l.1049,0H256l.0142,0v0C378.1572,418.0215,410.54,390.3625,410.54,341.9345Z" style="fill:url(#linear-gradient-6)"/><path d="M358.7,336.0837a6.4977,6.4977,0,0,0-9.1914,0,37.3941,37.3941,0,0,1-26.6133,11.0235H262.5V333.9665a14.9979,14.9979,0,0,0,4.1695-2.9316L283.9745,313.73a8.5513,8.5513,0,0,0-6.0471-14.5981H234.1015a8.5513,8.5513,0,0,0-6.0469,14.5981l17.305,17.3052a15.0063,15.0063,0,0,0,4.14,2.918v13.1543H180.8461a6.5,6.5,0,0,0,0,13H322.8954A50.3013,50.3013,0,0,0,358.7,345.2751,6.4976,6.4976,0,0,0,358.7,336.0837Z" style="fill:#63250d"/><path d="M352.539,262.81a21.801,21.801,0,0,0-43.602,0v23.6339a127.155,127.155,0,0,1,43.602-7.8Z" style="fill:url(#linear-gradient-7)"/><circle cx="336.1854" cy="260.9898" r="8.1739" style="fill:#ffefdc"/><path d="M175.5571,262.81a21.8011,21.8011,0,0,1,43.6021,0v23.6339a127.1559,127.1559,0,0,0-43.6021-7.8Z" style="fill:url(#linear-gradient-8)"/><circle cx="202.8054" cy="260.9898" r="8.1739" style="fill:#ffefdc"/><ellipse cx="306.0381" cy="209.2144" rx="14.9654" ry="21.0217" transform="matrix(0.342, -0.9397, 0.9397, 0.342, 4.7704, 425.2416)" style="fill:#ffe2ba"/><ellipse cx="196.0581" cy="209.2144" rx="14.9654" ry="21.0217" transform="translate(-67.5946 321.894) rotate(-70.0002)" style="fill:#ffe2ba"/></g></svg>