<svg xmlns="http://www.w3.org/2000/svg" xmlns:xlink="http://www.w3.org/1999/xlink" viewBox="0 0 512 512"><defs><linearGradient id="linear-gradient" x1="-452.6555" y1="-823.6464" x2="-452.6555" y2="-705.1869" gradientTransform="matrix(-0.9397, -0.342, -0.342, 0.9397, -344.9626, 693.7691)" gradientUnits="userSpaceOnUse"><stop offset="0" stop-color="#ffb03e"/><stop offset="1" stop-color="#ea911c"/></linearGradient><linearGradient id="linear-gradient-2" x1="-452.6556" y1="-799.1117" x2="-452.6556" y2="-705.1869" gradientTransform="matrix(-0.9397, -0.342, -0.342, 0.9397, -344.9626, 693.7691)" gradientUnits="userSpaceOnUse"><stop offset="0" stop-color="#ffe2ba"/><stop offset="1" stop-color="#ffd2a3"/></linearGradient><linearGradient id="linear-gradient-3" x1="-364.8002" y1="968.907" x2="-364.8002" y2="1087.3666" gradientTransform="matrix(0.9397, -0.342, 0.342, 0.9397, 161.3452, -960.6319)" xlink:href="#linear-gradient"/><linearGradient id="linear-gradient-4" x1="-364.8003" y1="993.4417" x2="-364.8003" y2="1087.3666" gradientTransform="matrix(0.9397, -0.342, 0.342, 0.9397, 161.3452, -960.6319)" xlink:href="#linear-gradient-2"/><linearGradient id="linear-gradient-5" x1="256" y1="116.9393" x2="256" y2="400.5275" gradientUnits="userSpaceOnUse"><stop offset="0.1" stop-color="#ff503e"/><stop offset="0.1587" stop-color="#ff593e"/><stop offset="0.2543" stop-color="#ff713e"/><stop offset="0.3744" stop-color="#ff993e"/><stop offset="0.4" stop-color="#ffa23e"/><stop offset="1" stop-color="#ea911c"/></linearGradient><linearGradient id="linear-gradient-6" x1="255.9999" y1="271.6892" x2="255.9999" y2="438.682" gradientTransform="matrix(1, 0, 0, 1, 0, 0)" xlink:href="#linear-gradient-2"/><radialGradient id="radial-gradient" cx="332.9158" cy="258.8611" r="45.5" gradientUnits="userSpaceOnUse"><stop offset="0.6" stop-color="#ff503e"/><stop offset="0.6365" stop-color="#ff503e" stop-opacity="0.9274"/><stop offset="0.71" stop-color="#ff503e" stop-opacity="0.7386"/><stop offset="0.8142" stop-color="#ff503e" stop-opacity="0.4341"/><stop offset="0.9439" stop-color="#ff503e" stop-opacity="0.0203"/><stop offset="0.95" stop-color="#ff503e" stop-opacity="0"/></radialGradient><radialGradient id="radial-gradient-2" cx="179.1131" cy="258.8611" xlink:href="#radial-gradient"/></defs><g id="Brown_mad"><path d="M251.4969,160.4184c24.2855-36.4825,56.9524-66.2037,93.5674-84.7806a21.1847,21.1847,0,0,1,9.6688-2.32,21.4353,21.4353,0,0,1,19.7538,13.0292c16.1074,37.7662,22.0278,81.5313,17.1812,125.0893Z" style="fill:url(#linear-gradient)"/><path d="M368.8585,203.1345c3.2866-37.1424-1.9183-73.4354-15.1521-105.4677-30.7308,16.0338-58.0458,40.49-79.4,71.0537Z" style="fill:url(#linear-gradient-2)"/><path d="M260.532,160.4184c-24.2856-36.4825-56.9524-66.2037-93.5674-84.7806a21.1847,21.1847,0,0,0-9.6688-2.32A21.4353,21.4353,0,0,0,137.542,86.3472c-16.1074,37.7662-22.0278,81.5313-17.1812,125.0893Z" style="fill:url(#linear-gradient-3)"/><path d="M143.17,203.1345c-3.2867-37.1424,1.9183-73.4354,15.1521-105.4677,30.7308,16.0338,58.0458,40.49,79.4,71.0537Z" style="fill:url(#linear-gradient-4)"/><path d="M410.54,324.436c0-98.571-31.9549-207.479-154.5255-207.4963v0l-.0142,0-.0146,0v0C133.4152,116.957,101.46,225.865,101.46,324.436c0,48.428,32.3829,76.0869,154.5255,76.0914v0l.0146,0,.0142,0v0C378.1572,400.5229,410.54,372.864,410.54,324.436Z" style="fill:url(#linear-gradient-5)"/><path d="M410.54,324.4359c0-10.3356-.3568-20.7845-1.1274-31.21-21.1129-9.877-52.4665-2.2805-70.07,3.4674a23.7125,23.7125,0,0,1-22.0432-3.9884c-13.3177-10.5748-36.4558-21.0157-61.2545-21.0157S208.1081,282.13,194.79,292.705a23.7136,23.7136,0,0,1-22.0435,3.9883c-17.6293-5.7563-49.0483-13.3661-70.1625-3.4231-.7681,10.4108-1.1242,20.8448-1.1242,31.1657,0,24.079,8.0139,43.02,31.08,55.9834a10.4821,10.4821,0,0,1,5.2649,10.9962l-.209,1.1495a39.39,39.39,0,0,0,5.2806,28.3191A38.4543,38.4543,0,0,0,175.345,438.682H335.9419a39.3979,39.3979,0,0,0,26.9168-10.2573,38.454,38.454,0,0,0,11.7075-35.1323l-.344-1.8915a10.4823,10.4823,0,0,1,5.2619-10.9951C402.5315,367.4431,410.54,348.5066,410.54,324.4359Z" style="fill:url(#linear-gradient-6)"/><path d="M336.6841,417.8823H175.3449a17.7023,17.7023,0,0,1-17.4167-20.869l11.2811-62.0465a17.7024,17.7024,0,0,1,17.4168-14.5356H325.4029A17.7024,17.7024,0,0,1,342.82,334.9668l11.2811,62.0465A17.7023,17.7023,0,0,1,336.6841,417.8823Z" style="fill:#ce2c2c"/><path d="M351.7158,409.4784a17.5516,17.5516,0,0,1-15.0169,8.4161H175.329a17.5484,17.5484,0,0,1-15.0158-8.4161L182.24,387.5518l24.5844,24.5842,24.5834-24.5842,24.5845,24.5842,24.6288-24.5842,24.5845,24.5842,24.5834-24.5842Z" style="fill:#ffefdc"/><path d="M343.2546,337.276l-13.4661,13.4659-24.5834-24.5842-24.5845,24.5842-24.6288-24.5842-24.5845,24.5842-24.5834-24.5842L182.24,350.7419,168.7733,337.276l.4423-2.3034a17.6747,17.6747,0,0,1,17.4091-14.5292H325.4032a17.6747,17.6747,0,0,1,17.4091,14.5292Z" style="fill:#ffefdc"/><path d="M245.36,308.3364a15.0135,15.0135,0,0,0,4.1543,2.9248v9.17h13v-9.17a15.002,15.002,0,0,0,4.1554-2.9251l17.3051-17.3052a8.5516,8.5516,0,0,0-6.0469-14.5984H234.1015a8.5516,8.5516,0,0,0-6.047,14.5984Z" style="fill:#63250d"/><path d="M266.4077,240.0144a6.5,6.5,0,0,1-6.5-6.5v-14.498a6.5,6.5,0,1,1,13,0v14.498A6.5,6.5,0,0,1,266.4077,240.0144Z" style="fill:#63250d"/><path d="M245.6216,240.0144a6.5,6.5,0,0,1-6.5-6.5v-14.498a6.5,6.5,0,0,1,13,0v14.498A6.5,6.5,0,0,1,245.6216,240.0144Z" style="fill:#63250d"/><ellipse cx="304.5037" cy="216.4158" rx="23.3887" ry="14.9654" transform="translate(-67.4121 181.2452) rotate(-29.9999)" style="fill:#ffe2ba"/><ellipse cx="207.5251" cy="216.4158" rx="14.9654" ry="23.3887" transform="translate(-83.6589 287.9307) rotate(-60.0001)" style="fill:#ffe2ba"/><circle cx="332.9158" cy="258.8611" r="45.5" style="fill:url(#radial-gradient)"/><circle cx="332.9158" cy="258.8611" r="25.0168" style="fill:#ffefdc"/><circle cx="179.1131" cy="258.8611" r="45.5" style="fill:url(#radial-gradient-2)"/><circle cx="179.1131" cy="258.8611" r="25.0168" style="fill:#ffefdc"/></g></svg>