<svg xmlns="http://www.w3.org/2000/svg" xmlns:xlink="http://www.w3.org/1999/xlink" viewBox="0 0 512 512"><defs><linearGradient id="linear-gradient" x1="-3899.1939" y1="1394.8987" x2="-3899.1939" y2="1513.3582" gradientTransform="matrix(-0.342, -0.9397, -0.9397, 0.342, 453.2833, -3973.2954)" gradientUnits="userSpaceOnUse"><stop offset="0" stop-color="#ffb03e"/><stop offset="1" stop-color="#ea911c"/></linearGradient><linearGradient id="linear-gradient-2" x1="-3899.1939" y1="1419.4334" x2="-3899.1939" y2="1513.3582" gradientTransform="matrix(-0.342, -0.9397, -0.9397, 0.342, 453.2833, -3973.2954)" gradientUnits="userSpaceOnUse"><stop offset="0" stop-color="#ffe2ba"/><stop offset="1" stop-color="#ffd2a3"/></linearGradient><linearGradient id="linear-gradient-3" x1="1618.1966" y1="-905.7097" x2="1618.1966" y2="-787.2502" gradientTransform="translate(333.5228 1998.2101) rotate(-70)" xlink:href="#linear-gradient"/><linearGradient id="linear-gradient-4" x1="1618.1965" y1="-881.1751" x2="1618.1965" y2="-787.2502" gradientTransform="translate(333.5228 1998.2101) rotate(-70)" xlink:href="#linear-gradient-2"/><linearGradient id="linear-gradient-5" x1="255.0883" y1="72.5687" x2="255.0883" y2="356.1569" gradientTransform="translate(1.5473 41.6372)" xlink:href="#linear-gradient"/><linearGradient id="linear-gradient-6" x1="255.0883" y1="247.4702" x2="255.0883" y2="356.1569" gradientTransform="translate(1.5473 41.6372)" xlink:href="#linear-gradient-2"/><linearGradient id="linear-gradient-7" x1="256.0145" y1="336.4261" x2="256.0145" y2="397.7941" gradientUnits="userSpaceOnUse"><stop offset="0" stop-color="#fff7ee"/><stop offset="0.4951" stop-color="#fef6ec"/><stop offset="0.6734" stop-color="#fcf1e5"/><stop offset="0.8005" stop-color="#f8e9da"/><stop offset="0.9025" stop-color="#f2dec9"/><stop offset="0.9896" stop-color="#ebd0b3"/><stop offset="1" stop-color="#eaceb0"/></linearGradient><linearGradient id="linear-gradient-8" x1="406.3345" y1="148.9188" x2="406.3345" y2="177.4421" gradientTransform="translate(-44.5616 134.6483)" gradientUnits="userSpaceOnUse"><stop offset="0" stop-color="#35b1ef"/><stop offset="1" stop-color="#0f82bc"/></linearGradient><linearGradient id="linear-gradient-9" x1="196.0599" y1="148.9188" x2="196.0599" y2="177.4421" xlink:href="#linear-gradient-8"/></defs><g id="Brown_afraid"><path d="M339.2855,138.2617c43.5577-4.8467,87.3232,1.0732,125.09,17.1809a21.1835,21.1835,0,0,1,7.9921,5.9156,21.4356,21.4356,0,0,1,2.7166,23.5073c-18.577,36.6145-48.2975,69.2816-84.78,93.5674Z" style="fill:url(#linear-gradient)"/><path d="M382.0016,255.6233c30.5654-21.3569,55.0218-48.6729,71.0534-79.4-32.036-13.2349-68.3281-18.4394-105.4674-15.1513Z" style="fill:url(#linear-gradient-2)"/><path d="M172.7145,138.2617c-43.5577-4.8467-87.3232,1.0732-125.09,17.1809a21.1835,21.1835,0,0,0-7.9921,5.9156,21.4356,21.4356,0,0,0-2.7166,23.5073c18.577,36.6145,48.2975,69.2816,84.78,93.5674Z" style="fill:url(#linear-gradient-3)"/><path d="M129.9984,255.6233c-30.5654-21.3569-55.0218-48.6729-71.0534-79.4,32.036-13.2349,68.3281-18.4394,105.4674-15.1513Z" style="fill:url(#linear-gradient-4)"/><path d="M411.1754,321.7026c0-98.571-31.9549-207.479-154.5254-207.4963v0l-.0143,0-.0146,0v0c-122.57.0173-154.5254,108.9253-154.5254,207.4963,0,48.428,32.3829,76.0869,154.5254,76.0914v0l.0146,0,.0143,0v0C378.7927,397.79,411.1754,370.1306,411.1754,321.7026Z" style="fill:url(#linear-gradient-5)"/><path d="M411.1754,321.7026q0-6.1794-.1771-12.4052c-21.6829-6.5392-50.34.5175-67.1,5.99a24.8281,24.8281,0,0,1-23.08-4.1758c-13.9442-11.0722-38.17-22.0043-64.1354-22.0043s-50.1919,10.9321-64.1355,22.0043a24.8289,24.8289,0,0,1-23.08,4.1758c-16.7847-5.4805-45.5012-12.55-67.1947-5.9607q-.1728,6.2058-.1764,12.3758c0,48.4281,32.3829,76.087,154.5254,76.0915h.0289C378.7929,397.79,411.1754,370.1307,411.1754,321.7026Z" style="fill:url(#linear-gradient-6)"/><path d="M363.9551,357.6865a35.8249,35.8249,0,0,0-47.0133-18.28l-29.4756,12.8177a79.1387,79.1387,0,0,1-63.1189,0L194.872,339.4067a35.8252,35.8252,0,0,0-47.0136,18.28L137.84,380.1836c23.7094,11.4993,61.2809,17.6084,118.6732,17.6105h.0289c56.577-.0021,93.8847-5.9418,117.6465-17.1265Z" style="fill:url(#linear-gradient-7)"/><path d="M324.8517,337.01a35.89,35.89,0,0,0-7.91,2.397l-5.09,2.2135v53.7524q6.7812-.6792,13-1.5466Z" style="fill:#ddc1a3"/><path d="M249.5145,358.506v39.2527c2.3036.0209,4.6281.0353,6.9989.0354h.0286c2.0173,0,4.0035-.01,5.9725-.0249V358.49A79.1206,79.1206,0,0,1,249.5145,358.506Z" style="fill:#ddc1a3"/><path d="M194.872,339.4067a35.9252,35.9252,0,0,0-7.6947-2.3568v56.6326q6.2242.8872,13,1.5885V341.7139Z" style="fill:#ddc1a3"/><path d="M245.36,340.9153a15.0164,15.0164,0,0,0,4.155,2.9253v14.6655a79.1537,79.1537,0,0,0,13-.0166V343.84a15.0136,15.0136,0,0,0,4.1548-2.9248L283.9745,323.61a8.5517,8.5517,0,0,0-6.0472-14.5986H234.1014a8.5517,8.5517,0,0,0-6.0469,14.5986Z" style="fill:#63250d"/><path d="M347.19,297.83a6.4989,6.4989,0,0,1-1.3356-.1384l-45.96-9.6027a6.5,6.5,0,0,1-2.096-11.8866l39.904-24.7432a6.4995,6.4995,0,1,1,6.85,11.0475l-26.0939,16.18,30.0536,6.2791A6.5008,6.5008,0,0,1,347.19,297.83Z" style="fill:#63250d"/><path d="M164.8091,297.83a6.5009,6.5009,0,0,1-1.3229-12.8642l30.0537-6.2791-26.094-16.18a6.5,6.5,0,0,1,6.85-11.0475L214.2,276.2025a6.5,6.5,0,0,1-2.096,11.8866l-45.96,9.6027A6.4979,6.4979,0,0,1,164.8091,297.83Z" style="fill:#63250d"/><ellipse cx="304.489" cy="231.6664" rx="23.3887" ry="14.9654" transform="translate(-75.0393 183.2809) rotate(-29.9999)" style="fill:#ffe2ba"/><ellipse cx="207.5104" cy="231.6664" rx="14.9654" ry="23.3887" transform="translate(-96.8736 295.5432) rotate(-60.0001)" style="fill:#ffe2ba"/><ellipse cx="361.7728" cy="297.8287" rx="21.3925" ry="14.2617" style="fill:url(#linear-gradient-8)"/><ellipse cx="151.4983" cy="297.8287" rx="21.3925" ry="14.2617" style="fill:url(#linear-gradient-9)"/></g></svg>