<svg xmlns="http://www.w3.org/2000/svg" xmlns:xlink="http://www.w3.org/1999/xlink" viewBox="0 0 512 512"><defs><linearGradient id="linear-gradient" x1="-73.7609" y1="-657.1843" x2="-73.7609" y2="-538.7247" gradientTransform="matrix(-0.9397, -0.342, -0.342, 0.9397, 68.0152, 665.4885)" gradientUnits="userSpaceOnUse"><stop offset="0" stop-color="#ffb03e"/><stop offset="1" stop-color="#ea911c"/></linearGradient><linearGradient id="linear-gradient-2" x1="-73.761" y1="-632.6496" x2="-73.761" y2="-538.7247" gradientTransform="matrix(-0.9397, -0.342, -0.342, 0.9397, 68.0152, 665.4885)" gradientUnits="userSpaceOnUse"><stop offset="0" stop-color="#ffe2ba"/><stop offset="1" stop-color="#ffd2a3"/></linearGradient><linearGradient id="linear-gradient-3" x1="-215.5005" y1="873.1305" x2="-215.5005" y2="991.5901" gradientTransform="matrix(0.9397, -0.342, 0.342, 0.9397, 53.8068, -821.0149)" xlink:href="#linear-gradient"/><linearGradient id="linear-gradient-4" x1="-215.5006" y1="897.6652" x2="-215.5006" y2="991.5901" gradientTransform="matrix(0.9397, -0.342, 0.342, 0.9397, 53.8068, -821.0149)" xlink:href="#linear-gradient-2"/><linearGradient id="linear-gradient-5" x1="95.9357" y1="85.0571" x2="95.9357" y2="368.6452" gradientTransform="translate(160.0643 30.4354)" xlink:href="#linear-gradient"/><linearGradient id="linear-gradient-6" x1="256" y1="270.2423" x2="256" y2="440.1289" gradientTransform="matrix(1, 0, 0, 1, 0, 0)" xlink:href="#linear-gradient-2"/><linearGradient id="linear-gradient-7" x1="322.7044" y1="202.2195" x2="322.7044" y2="278.2354" gradientUnits="userSpaceOnUse"><stop offset="0" stop-color="#f47873"/><stop offset="1" stop-color="#e2433e"/></linearGradient><linearGradient id="linear-gradient-8" x1="189.3244" y1="202.2195" x2="189.3244" y2="278.2354" xlink:href="#linear-gradient-7"/></defs><g id="Brown_falling_in_love"><path d="M251.4969,158.9715c24.2855-36.4825,56.9524-66.2037,93.5674-84.7806a21.1847,21.1847,0,0,1,9.6688-2.32A21.4353,21.4353,0,0,1,374.4869,84.9c16.1074,37.7662,22.0278,81.5313,17.1812,125.0893Z" style="fill:url(#linear-gradient)"/><path d="M368.8585,201.6876c3.2866-37.1424-1.9183-73.4354-15.1521-105.4677-30.7308,16.0338-58.0458,40.49-79.4,71.0537Z" style="fill:url(#linear-gradient-2)"/><path d="M260.532,158.9715C236.2464,122.489,203.58,92.7678,166.9646,74.1909a21.1847,21.1847,0,0,0-9.6688-2.32A21.4353,21.4353,0,0,0,137.542,84.9c-16.1074,37.7662-22.0278,81.5313-17.1812,125.0893Z" style="fill:url(#linear-gradient-3)"/><path d="M143.17,201.6876c-3.2867-37.1424,1.9183-73.4354,15.1521-105.4677,30.7308,16.0338,58.0458,40.49,79.4,71.0537Z" style="fill:url(#linear-gradient-4)"/><path d="M410.54,322.9891c0-98.571-31.9549-207.479-154.5255-207.4963v0l-.0142,0-.0146,0v0C133.4152,115.51,101.46,224.4181,101.46,322.9891c0,48.428,32.3829,76.0869,154.5255,76.0914v0l.0146,0,.0142,0v0C378.1572,399.076,410.54,371.4171,410.54,322.9891Z" style="fill:url(#linear-gradient-5)"/><path d="M410.54,322.9891c0-10.3357-.3567-20.7846-1.1273-31.21-21.1133-9.877-52.4666-2.2805-70.07,3.4674a23.7129,23.7129,0,0,1-22.0435-3.9884c-13.3177-10.5748-36.4555-21.0157-61.2542-21.0157s-47.9366,10.4409-61.2546,21.0158a23.713,23.713,0,0,1-22.0432,3.9883c-17.6293-5.7564-49.0483-13.3661-70.1625-3.4231-.7681,10.4108-1.1242,20.8448-1.1242,31.1658,0,35.0422,16.9681,59.2055,72.6177,69.89a10.4751,10.4751,0,0,1,7.026,4.9723,91.9028,91.9028,0,0,0,13.61,17.8194C210.7422,431.9,231.3619,440.1289,256,440.1289S301.2572,431.9,317.285,415.67A92.28,92.28,0,0,0,330.92,397.84a10.4747,10.4747,0,0,1,7.02-4.9643C393.5755,382.19,410.54,358.0276,410.54,322.9891Z" style="fill:url(#linear-gradient-6)"/><path d="M316.447,335.1148a32.8471,32.8471,0,0,1-8.3-1.0691l-52.146-13.6089-52.146,13.6089a32.8494,32.8494,0,0,1-8.3015,1.0691A32.5052,32.5052,0,0,1,185.84,333.62c.3485,13.1492,5.2353,84.2151,70.16,84.2151s69.8118-71.0676,70.16-84.2156A32.4917,32.4917,0,0,1,316.447,335.1148Z" style="fill:#ce2c2c"/><path d="M307.2837,342.0957l4.2537-7.3676a33.0729,33.0729,0,0,1-3.3907-.6824l-15.71-4.1,7.0147,12.15A4.5217,4.5217,0,0,0,307.2837,342.0957Z" style="fill:#ffefdc"/><path d="M203.8547,334.0457a32.957,32.957,0,0,1-3.3655.6782l4.2561,7.3718a4.5216,4.5216,0,0,0,7.8319,0l7.02-12.1584Z" style="fill:#ffefdc"/><path d="M350.3483,300.8767a6.5,6.5,0,0,0-9.105,1.2735L332.08,314.2893a19.5947,19.5947,0,0,1-20.65,7.178l-48.929-12.769V296.8208a15.0055,15.0055,0,0,0,4.1687-2.9314l17.3052-17.3049a8.5517,8.5517,0,0,0-6.047-14.5986h-43.826a8.5517,8.5517,0,0,0-6.0469,14.5986l17.305,17.3049a15.0069,15.0069,0,0,0,4.141,2.9185v11.89l-48.929,12.769a19.5906,19.5906,0,0,1-20.6515-7.178L170.7566,302.15a6.5,6.5,0,1,0-10.3771,7.83l9.1635,12.1418a32.5793,32.5793,0,0,0,34.3116,11.9234l52.146-13.6089,52.146,13.6089a32.5773,32.5773,0,0,0,34.31-11.9234l9.1635-12.1418A6.5018,6.5018,0,0,0,350.3483,300.8767Z" style="fill:#63250d"/><path d="M358.5273,207.7253c-9.7776-8.0753-24.3412-6.6233-33.3082,2.3437l-2.5145,2.5146s-3.04-3.04-3.2528-3.2523a24.28,24.28,0,1,0-34.3374,34.3377c.1627.1625,22.1688,22.1684,32.43,32.4306a7.2993,7.2993,0,0,0,10.3332-.0146l32.4167-32.416A24.2851,24.2851,0,0,0,358.5273,207.7253Z" style="fill:url(#linear-gradient-7)"/><path d="M225.1473,207.7253c-9.7776-8.0753-24.3412-6.6233-33.3082,2.3437l-2.5145,2.5146s-3.04-3.04-3.2528-3.2523a24.28,24.28,0,1,0-34.3374,34.3377c.1627.1625,22.1688,22.1684,32.43,32.4306a7.2993,7.2993,0,0,0,10.3332-.0146l32.4167-32.416A24.2851,24.2851,0,0,0,225.1473,207.7253Z" style="fill:url(#linear-gradient-8)"/><ellipse cx="316.4381" cy="173.3689" rx="17.8658" ry="14.9654" style="fill:#ffe2ba"/><ellipse cx="196.0581" cy="173.3689" rx="17.8659" ry="14.9654" style="fill:#ffe2ba"/></g></svg>