<svg xmlns="http://www.w3.org/2000/svg" xmlns:xlink="http://www.w3.org/1999/xlink" viewBox="0 0 512 512"><defs><linearGradient id="linear-gradient" x1="-3521.0078" y1="-859.2866" x2="-3521.0078" y2="-740.827" gradientTransform="matrix(-0.866, -0.5, -0.5, 0.866, -3092.6333, -919.4856)" gradientUnits="userSpaceOnUse"><stop offset="0" stop-color="#ffb03e"/><stop offset="1" stop-color="#ea911c"/></linearGradient><linearGradient id="linear-gradient-2" x1="-3521.0079" y1="-834.7519" x2="-3521.0079" y2="-740.827" gradientTransform="matrix(-0.866, -0.5, -0.5, 0.866, -3092.6333, -919.4856)" gradientUnits="userSpaceOnUse"><stop offset="0" stop-color="#ffe2ba"/><stop offset="1" stop-color="#ffd2a3"/></linearGradient><linearGradient id="linear-gradient-3" x1="-28.8828" y1="1156.8927" x2="-28.8828" y2="1275.3523" gradientTransform="translate(-427.7254 -919.4856) rotate(-30)" xlink:href="#linear-gradient"/><linearGradient id="linear-gradient-4" x1="-28.8829" y1="1181.4274" x2="-28.8829" y2="1275.3523" gradientTransform="translate(-427.7254 -919.4856) rotate(-30)" xlink:href="#linear-gradient-2"/><linearGradient id="linear-gradient-5" x1="255.9855" y1="134.4379" x2="255.9855" y2="418.026" gradientTransform="matrix(1, 0, 0, 1, 0, 0)" xlink:href="#linear-gradient"/><linearGradient id="linear-gradient-6" x1="255.9855" y1="289.1877" x2="255.9855" y2="418.026" gradientTransform="matrix(1, 0, 0, 1, 0, 0)" xlink:href="#linear-gradient-2"/><linearGradient id="linear-gradient-7" x1="552.0042" y1="-757.2459" x2="552.0042" y2="-719.0258" gradientTransform="translate(-155.3276 1043.4034)" gradientUnits="userSpaceOnUse"><stop offset="0" stop-color="#f47873"/><stop offset="1" stop-color="#e2433e"/></linearGradient><linearGradient id="linear-gradient-8" x1="330.385" y1="1343.3358" x2="330.385" y2="1381.5559" gradientTransform="translate(1477.7692 -25.1175) rotate(90)" xlink:href="#linear-gradient-7"/></defs><g id="Brown_shy"><path d="M262.4711,162.1515c30.2517-31.7111,67.5833-55.3082,106.8679-67.2447a21.1843,21.1843,0,0,1,9.9248-.6056,21.4354,21.4354,0,0,1,17.1911,16.2614c9.3047,39.9895,7.5354,84.1178-4.8013,126.1725Z" style="fill:url(#linear-gradient)"/><path d="M370.6322,224.5983c9.6864-36.0073,10.8627-72.6529,3.3923-106.4965-33.0482,10.4538-64.1949,29.795-90.5318,56.1865Z" style="fill:url(#linear-gradient-2)"/><path d="M249.5288,162.1515c-30.2517-31.7111-67.5833-55.3082-106.8679-67.2447a21.1843,21.1843,0,0,0-9.9248-.6056,21.4354,21.4354,0,0,0-17.1911,16.2614c-9.3047,39.9895-7.5354,84.1178,4.8013,126.1725Z" style="fill:url(#linear-gradient-3)"/><path d="M141.3677,224.5983c-9.6864-36.0073-10.8627-72.6529-3.3924-106.4965,33.0483,10.4538,64.195,29.795,90.5319,56.1865Z" style="fill:url(#linear-gradient-4)"/><path d="M410.5254,341.9345c0-98.5709-31.9549-207.4789-154.5255-207.4962v0l-.0142,0-.0146,0v0c-122.57.0173-154.5255,108.9253-154.5255,207.4962,0,48.428,32.3829,76.087,154.5255,76.0914v0l.0146,0,.0142,0v0C378.1427,418.0215,410.5254,390.3625,410.5254,341.9345Z" style="fill:url(#linear-gradient-5)"/><path d="M410.5254,341.9345c0-10.3356-.3571-20.7846-1.1274-31.21-21.1133-9.877-52.4667-2.2805-70.07,3.4674a23.7129,23.7129,0,0,1-22.0433-3.9883c-13.3178-10.5748-36.4557-21.0158-61.2545-21.0158s-47.9366,10.441-61.2544,21.0158a23.7135,23.7135,0,0,1-22.0435,3.9883c-17.6291-5.7563-49.0483-13.3661-70.1625-3.4231-.768,10.4108-1.1242,20.8448-1.1242,31.1658,0,48.4155,32.3673,76.0724,154.4317,76.0911l.1049,0h.0035l.0142,0v0C378.1427,418.0215,410.5254,390.3625,410.5254,341.9345Z" style="fill:url(#linear-gradient-6)"/><path d="M321.5283,326.9778c-24.4793,0-46.7076,9.2078-59.0284,15.4932V320.96a15.0029,15.0029,0,0,0,4.1548-2.9248L283.96,300.73a8.5517,8.5517,0,0,0-6.0469-14.5987H234.0869A8.5517,8.5517,0,0,0,228.04,300.73l17.3052,17.3052a15.0119,15.0119,0,0,0,4.1408,2.9184V342.471c-12.3208-6.2854-34.5476-15.4932-59.0268-15.4932a6.5,6.5,0,0,0,0,13c32.4048,0,61.6738,18.8765,61.9607,19.0645.124.0813.257.1416.3852.2138.0357.02.0674.0457.1035.0655.0283.0154.0586.0254.0869.04.1778.0923.3575.1758.5413.2508.093.0383.1865.0722.2808.1059.17.06.34.1179.5146.1638.116.0308.2329.0523.35.0767.16.0327.3193.0686.4812.0893.1657.0215.3322.0274.499.0359.1081.0056.2153.0235.3237.0235a6.4951,6.4951,0,0,0,.8782-.0645c.1016-.0134.2009-.0378.3018-.0561.1767-.0328.353-.0674.5273-.115.1382-.0371.2729-.0835.4092-.13.1289-.0447.2568-.0913.3838-.1441.1574-.0654.312-.1369.4651-.2148.04-.0207.0822-.0349.1223-.0564.05-.0271.0932-.0618.1423-.09.1145-.0649.2339-.1179.345-.19.2907-.1919,29.5625-19.0684,61.9673-19.0684a6.5,6.5,0,1,0,0-13Z" style="fill:#63250d"/><path d="M347.19,288.1618a6.4979,6.4979,0,0,1-1.3355-.1384l-45.96-9.6027a6.5,6.5,0,0,1-2.096-11.8866l39.9039-24.7432a6.5,6.5,0,0,1,6.85,11.0475l-26.094,16.18,30.0537,6.2791a6.5008,6.5008,0,0,1-1.3229,12.8642Z" style="fill:#63250d"/><path d="M164.81,288.1618a6.5008,6.5008,0,0,1-1.3229-12.8642l30.0536-6.2791-26.0939-16.18a6.5,6.5,0,1,1,6.85-11.0475l39.9039,24.7432a6.5,6.5,0,0,1-2.096,11.8866l-45.96,9.6027A6.4979,6.4979,0,0,1,164.81,288.1618Z" style="fill:#63250d"/><ellipse cx="304.4893" cy="221.9983" rx="23.3887" ry="14.9654" transform="translate(-70.2052 181.9858) rotate(-29.9999)" style="fill:#ffe2ba"/><ellipse cx="207.5107" cy="221.9983" rx="14.9654" ry="23.3887" transform="translate(-88.5007 290.7095) rotate(-60.0001)" style="fill:#ffe2ba"/><ellipse cx="396.6766" cy="305.2675" rx="28.6651" ry="19.1101" transform="translate(-80.4851 154.0813) rotate(-20)" style="fill:url(#linear-gradient-7)"/><ellipse cx="115.3234" cy="305.2675" rx="19.1101" ry="28.6651" transform="translate(-210.9772 309.2284) rotate(-70)" style="fill:url(#linear-gradient-8)"/></g></svg>