<svg id="Brown_injured" xmlns="http://www.w3.org/2000/svg" xmlns:xlink="http://www.w3.org/1999/xlink" viewBox="0 0 512 512"><defs><linearGradient id="linear-gradient" x1="-7040.891" y1="-804.9413" x2="-7040.891" y2="-686.4818" gradientTransform="matrix(-0.342, -0.9397, -0.9397, 0.342, -2688.4138, -6173.1354)" gradientUnits="userSpaceOnUse"><stop offset="0" stop-color="#ffb03e"/><stop offset="1" stop-color="#ea911c"/></linearGradient><linearGradient id="linear-gradient-2" x1="-7040.8911" y1="-780.4066" x2="-7040.8911" y2="-686.4818" gradientTransform="matrix(-0.342, -0.9397, -0.9397, 0.342, -2688.4138, -6173.1354)" gradientUnits="userSpaceOnUse"><stop offset="0" stop-color="#ffe2ba"/><stop offset="1" stop-color="#ffd2a3"/></linearGradient><linearGradient id="linear-gradient-3" x1="-431.7722" y1="-106.0509" x2="-431.7722" y2="12.4087" gradientTransform="translate(283.2199 -201.6299) rotate(-70)" xlink:href="#linear-gradient"/><linearGradient id="linear-gradient-4" x1="-431.7723" y1="-81.5162" x2="-431.7723" y2="12.4087" gradientTransform="translate(283.2199 -201.6299) rotate(-70)" xlink:href="#linear-gradient-2"/><linearGradient id="linear-gradient-5" x1="255.0883" y1="72.5687" x2="255.0883" y2="356.1569" gradientTransform="translate(1.5473 41.6372)" xlink:href="#linear-gradient"/><linearGradient id="linear-gradient-6" x1="255.0883" y1="247.4702" x2="255.0883" y2="356.1569" gradientTransform="translate(1.5473 41.6372)" xlink:href="#linear-gradient-2"/><linearGradient id="linear-gradient-7" x1="307.6106" y1="241.7907" x2="343.0021" y2="277.1822" gradientUnits="userSpaceOnUse"><stop offset="0" stop-color="#4c1b00"/><stop offset="1" stop-color="#2d0000"/></linearGradient><linearGradient id="linear-gradient-8" x1="102.0957" y1="221.8816" x2="349.288" y2="221.8816" gradientUnits="userSpaceOnUse"><stop offset="0" stop-color="#fff7ee"/><stop offset="0.2919" stop-color="#fef5eb"/><stop offset="0.5263" stop-color="#fbeee1"/><stop offset="0.7407" stop-color="#f5e3d0"/><stop offset="0.9422" stop-color="#edd3b8"/><stop offset="1" stop-color="#eaceb0"/></linearGradient></defs><path d="M339.2855,138.2617c43.5577-4.8467,87.3232,1.0732,125.09,17.1809a21.1835,21.1835,0,0,1,7.9921,5.9156,21.4356,21.4356,0,0,1,2.7166,23.5073c-18.577,36.6146-48.2975,69.2816-84.78,93.5674Z" style="fill:url(#linear-gradient)"/><path d="M382.0016,255.6233c30.5654-21.3569,55.0218-48.6729,71.0534-79.4-32.036-13.2349-68.3281-18.4394-105.4674-15.1513Z" style="fill:url(#linear-gradient-2)"/><path d="M172.7145,138.2617c-43.5577-4.8467-87.3232,1.0732-125.09,17.1809a21.1835,21.1835,0,0,0-7.9921,5.9156,21.4356,21.4356,0,0,0-2.7166,23.5073c18.577,36.6146,48.2975,69.2816,84.78,93.5674Z" style="fill:url(#linear-gradient-3)"/><path d="M129.9984,255.6233c-30.5654-21.3569-55.0218-48.6729-71.0534-79.4,32.036-13.2349,68.3281-18.4394,105.4674-15.1513Z" style="fill:url(#linear-gradient-4)"/><path d="M411.1754,321.7026c0-98.571-31.9549-207.479-154.5254-207.4963v0l-.0143,0-.0146,0v0c-122.57.0173-154.5254,108.9253-154.5254,207.4963,0,48.428,32.3829,76.0869,154.5254,76.0914v0l.0146,0,.0143,0v0C378.7927,397.79,411.1754,370.1306,411.1754,321.7026Z" style="fill:url(#linear-gradient-5)"/><path d="M411.1754,321.7026q0-6.1794-.1771-12.4052c-21.6829-6.5392-50.34.5175-67.1,5.99a24.8281,24.8281,0,0,1-23.08-4.1758c-13.9442-11.0722-38.17-22.0043-64.1354-22.0043s-50.1919,10.9321-64.1355,22.0043a24.8289,24.8289,0,0,1-23.08,4.1758c-16.7847-5.4805-45.5012-12.55-67.1947-5.9607q-.1728,6.2058-.1764,12.3758c0,48.4281,32.3829,76.087,154.5254,76.0915h.0289C378.7929,397.79,411.1754,370.1307,411.1754,321.7026Z" style="fill:url(#linear-gradient-6)"/><path d="M294.5746,364.1372c-11.7788-8.2949-25.13-13.5014-32.0747-15.8764v-4.4136a15.0161,15.0161,0,0,0,4.1694-2.9316L283.9745,323.61a8.5517,8.5517,0,0,0-6.0469-14.5986H234.1015a8.5517,8.5517,0,0,0-6.0469,14.5986L245.36,340.9156a15.0132,15.0132,0,0,0,4.14,2.9179v4.4273c-6.9456,2.375-20.2974,7.5815-32.0747,15.8764a6.5,6.5,0,0,0,7.4853,10.6289c11.9309-8.4023,26.19-13.39,31.0889-14.957,4.9038,1.5684,19.1607,6.5557,31.09,14.957a6.5,6.5,0,1,0,7.4851-10.6289Z" style="fill:#63250d"/><path d="M325.3041,282.73a29.3056,29.3056,0,0,0,29.3166-29.3166H295.9874A29.321,29.321,0,0,0,325.3041,282.73Z" style="fill:url(#linear-gradient-7)"/><circle cx="337.2376" cy="264.4366" r="6.5391" style="fill:#ffefdc"/><ellipse cx="314.4737" cy="218.3833" rx="14.9654" ry="26.5773" transform="translate(44.8008 490.158) rotate(-80.0001)" style="fill:#ffe2ba"/><path d="M349.288,144.5129c-22.689-18.8376-52.895-30.3008-92.6377-30.3066v0l-.0146,0-.0146,0v0c-122.57.0173-154.5254,108.9252-154.5254,207.4964q0,4.0251.3148,7.8545C275.298,327.17,334.6376,191.6,349.288,144.5129Z" style="fill:url(#linear-gradient-8)"/><path d="M349.288,144.5154a277.4135,277.4135,0,0,1-13.4938,34.5672,315.2289,315.2289,0,0,1-52.273,47.4239c-28.6133,20.7089-61.6719,37.7651-98.2414,50.674a465.67,465.67,0,0,1-82.55,20.839c.3383-6.253.8322-12.5058,1.4822-18.72a450.352,450.352,0,0,0,75.53-19.4607c50.4271-17.875,117.8842-52.975,163.4617-120.0551C345.2839,141.2915,347.312,142.8774,349.288,144.5154Z" style="fill:#eaceb0"/><path d="M332.2192,132.6336a340.4982,340.4982,0,0,1-28.249,24.6479,9.4072,9.4072,0,0,1-1.7424,1.3651,357.4744,357.4744,0,0,1-118.1566,59.67,348.3578,348.3578,0,0,1-71.2143,13.065q2.5545-9.6133,5.876-18.8109a338.1607,338.1607,0,0,0,60.9184-11.9339,342.88,342.88,0,0,0,73.15-30.9531,329.2113,329.2113,0,0,1-41.4565,2.626,326.0686,326.0686,0,0,1-67.3664-6.9942,132.6667,132.6667,0,0,1,14.352-15.8339c69.849,12.025,124.9955-3.6921,134.6935-6.7469q10.9-8.5216,21.6315-18.512A126.4449,126.4449,0,0,1,332.2192,132.6336Z" style="fill:#eaceb0"/></svg>