<svg xmlns="http://www.w3.org/2000/svg" xmlns:xlink="http://www.w3.org/1999/xlink" viewBox="0 0 512 512"><defs><linearGradient id="linear-gradient" x1="-6604.6413" y1="-177.2509" x2="-6604.6413" y2="-58.7914" gradientTransform="matrix(-0.2588, -0.9659, -0.9659, 0.2588, -1404.7136, -6131.3835)" gradientUnits="userSpaceOnUse"><stop offset="0" stop-color="#ffb03e"/><stop offset="1" stop-color="#ea911c"/></linearGradient><linearGradient id="linear-gradient-2" x1="-6604.6414" y1="-152.7162" x2="-6604.6414" y2="-58.7914" gradientTransform="matrix(-0.2588, -0.9659, -0.9659, 0.2588, -1404.7136, -6131.3835)" gradientUnits="userSpaceOnUse"><stop offset="0" stop-color="#ffe2ba"/><stop offset="1" stop-color="#ffd2a3"/></linearGradient><linearGradient id="linear-gradient-3" x1="-376.2704" y1="-525.476" x2="-376.2704" y2="-407.0165" gradientTransform="translate(672.6365 44.6767) rotate(-65)" xlink:href="#linear-gradient"/><linearGradient id="linear-gradient-4" x1="-376.2705" y1="-500.9413" x2="-376.2705" y2="-407.0165" gradientTransform="translate(672.6365 44.6767) rotate(-65)" xlink:href="#linear-gradient-2"/><linearGradient id="linear-gradient-5" x1="229.9932" y1="377.0531" x2="229.9932" y2="660.6412" gradientTransform="translate(65.6909 -266.0539) rotate(5)" gradientUnits="userSpaceOnUse"><stop offset="0.0944" stop-color="#3bca9e"/><stop offset="0.1259" stop-color="#44c89a"/><stop offset="0.1773" stop-color="#5cc38e"/><stop offset="0.2421" stop-color="#84bb7a"/><stop offset="0.3179" stop-color="#bbb05f"/><stop offset="0.4" stop-color="#ffa23e"/><stop offset="1" stop-color="#ea911c"/></linearGradient><linearGradient id="linear-gradient-6" x1="229.9932" y1="551.9545" x2="229.9932" y2="660.6412" gradientTransform="translate(65.6909 -266.0539) rotate(5)" xlink:href="#linear-gradient-2"/><linearGradient id="linear-gradient-7" x1="313.8111" y1="387.4027" x2="313.8111" y2="336.149" gradientUnits="userSpaceOnUse"><stop offset="0" stop-color="#e2433e"/><stop offset="1" stop-color="#f47873"/></linearGradient></defs><g id="Brown_sick_thermometer"><path d="M342.1778,160.9515c43.8143-1.0319,86.8974,8.68,123.1162,28.0178a21.1844,21.1844,0,0,1,7.4461,6.59,21.4354,21.4354,0,0,1,.6574,23.6546C451.7,254.07,419.2456,284.0222,380.7851,305.0359Z" style="fill:url(#linear-gradient)"/><path d="M374.5027,281.59c32.31-18.6117,59.0545-43.6922,77.7031-72.9056C421.4453,192.7072,385.7449,184.36,348.46,184.3981Z" style="fill:url(#linear-gradient-2)"/><path d="M176.2559,146.0853c-42.97-8.6245-87.0845-6.5416-126.1111,6.2132a21.1836,21.1836,0,0,0-8.4772,5.1966,21.4354,21.4354,0,0,0-4.755,23.181c15.3151,38.0944,42.0753,73.2274,76.3025,100.6Z" style="fill:url(#linear-gradient-3)"/><path d="M123.4735,259.2774c-28.5876-23.94-50.57-53.2832-63.8627-85.2911,33.0675-10.3924,69.6751-12.414,106.3866-5.9016Z" style="fill:url(#linear-gradient-4)"/><path d="M397.8139,349.7857c8.591-98.1958-13.75-209.4745-135.853-220.1744l0,0-.0143-.001-.0145-.0016v0C139.8267,118.9433,98.5013,224.6518,89.91,322.8476c-4.2208,48.2437,25.6282,78.62,147.3056,89.27h0l.0145.0012.0142.0014v0C358.923,422.7608,393.5931,398.0294,397.8139,349.7857Z" style="fill:url(#linear-gradient-5)"/><path d="M397.8139,349.7858q.5385-6.156.9047-12.3735c-21.03-8.4041-50.1933-3.8719-67.3668.1192a24.8281,24.8281,0,0,1-22.6283-6.1715c-12.9262-12.2454-36.107-25.2473-61.9736-27.51s-50.9537,6.5159-65.8092,16.3308a24.8292,24.8292,0,0,1-23.3565,2.1483c-16.2433-6.9226-44.2344-16.4676-66.42-11.7945q-.7131,6.1673-1.2545,12.3134c-4.2207,48.2437,25.6283,78.62,147.3057,89.27h0l.0145.0013.0142.0013h0C358.9231,422.7609,393.5931,398.03,397.8139,349.7858Z" style="fill:url(#linear-gradient-6)"/><path d="M372.2937,344.993l-82.6,47.68a6.1752,6.1752,0,0,0-1.4-1.49c-1.71-1.33-3.43-2.59-5.14-3.78a120.3982,120.3982,0,0,0-11.38-7.04c-2.85-1.55-5.67-2.92-8.45-4.15l95.25-54.99a13.7043,13.7043,0,0,1,18.74,5.02A13.7508,13.7508,0,0,1,372.2937,344.993Z" style="fill:#ffefdc"/><path d="M355.6435,343.5628a5.9666,5.9666,0,0,1-2.74,3.57l-69.75,40.27a120.3982,120.3982,0,0,0-11.38-7.04l75.25-43.42a5.8826,5.8826,0,0,1,8.62,6.62Z" style="fill:url(#linear-gradient-7)"/><path d="M288.289,391.1829a114.7671,114.7671,0,0,0-41.5256-20.7446l.8969-10.2554a14.9968,14.9968,0,0,0,4.4094-2.5571l18.7476-15.7309a8.5519,8.5519,0,0,0-4.7515-15.07l-43.6591-3.8193a8.5517,8.5517,0,0,0-7.2964,14.0161l15.7309,18.7471a15,15,0,0,0,3.87,3.2676l-.7784,8.8911c-21.7094-2.876-37.1626,1.9233-38.2534,2.2759a6.5,6.5,0,0,0,3.9776,12.3764c1.02-.3232,16.5854-5.0439,37.956-.9033a6.4859,6.4859,0,0,0,1.6113.3574c.0579.0054.1155.0039.1734.0078a101.115,101.115,0,0,1,40.9341,19.4224,6.5,6.5,0,0,0,7.9575-10.2808Z" style="fill:#63250d"/><path d="M322.8188,312.9622A41.313,41.313,0,0,1,287.6122,293.32,6.5,6.5,0,0,1,298.7,286.5319a28.281,28.281,0,0,0,33.6882,11.7431,6.5,6.5,0,1,1,4.4459,12.2154A40.9393,40.9393,0,0,1,322.8188,312.9622Z" style="fill:#63250d"/><path d="M177.3394,300.2339a41.0229,41.0229,0,0,1-20.5524-5.4958,6.5,6.5,0,1,1,6.5-11.2582,28.275,28.275,0,0,0,35.2155-5.7142,6.5,6.5,0,0,1,9.74,8.61A41.2091,41.2091,0,0,1,177.3394,300.2339Z" style="fill:#63250d"/><path d="M251.3924,249.5377c-.19,0-.3808-.0076-.5738-.0241a6.5016,6.5016,0,0,1-5.91-7.0421l1.9157-21.8994a6.5006,6.5006,0,1,1,12.9517,1.1324l-1.9157,21.8994A6.5019,6.5019,0,0,1,251.3924,249.5377Z" style="fill:#63250d"/><ellipse cx="301.5702" cy="250.8333" rx="14.9654" ry="26.5773" transform="matrix(0.5, -0.866, 0.866, 0.5, -66.4427, 386.5848)" style="fill:#ffe2ba"/><ellipse cx="200.6084" cy="242.0003" rx="26.5773" ry="14.9654" transform="translate(-70.6705 83.206) rotate(-19.9999)" style="fill:#ffe2ba"/><path d="M359.7838,219.691c-.19,0-.3809-.0076-.5739-.0241a6.5017,6.5017,0,0,1-5.91-7.0421l7.0712-80.83a6.5006,6.5006,0,0,1,12.9518,1.1325l-7.0713,80.83A6.5019,6.5019,0,0,1,359.7838,219.691Z" style="fill:#63250d"/><path d="M337.5632,235.0105c-.19,0-.3809-.0077-.5739-.0242a6.5015,6.5015,0,0,1-5.91-7.042l9.93-113.5025a6.5006,6.5006,0,1,1,12.9518,1.1324l-9.93,113.5025A6.5019,6.5019,0,0,1,337.5632,235.0105Z" style="fill:#63250d"/><path d="M317.3421,227.4872c-.1905,0-.3809-.0076-.5739-.0241a6.5017,6.5017,0,0,1-5.91-7.0421L321.1,103.37a6.5006,6.5006,0,0,1,12.9517,1.1325L323.81,221.5534A6.5019,6.5019,0,0,1,317.3421,227.4872Z" style="fill:#63250d"/><path d="M298.0972,208.8111c-.19,0-.3808-.0076-.5738-.0241a6.5017,6.5017,0,0,1-5.91-7.0421l7.3874-84.4466a6.5006,6.5006,0,0,1,12.9518,1.1324l-7.3874,84.4467A6.5018,6.5018,0,0,1,298.0972,208.8111Z" style="fill:#63250d"/></g></svg>