<svg xmlns="http://www.w3.org/2000/svg" xmlns:xlink="http://www.w3.org/1999/xlink" viewBox="0 0 512 512"><defs><linearGradient id="linear-gradient" x1="-4148.1273" y1="-373.6891" x2="-4148.1273" y2="-255.2295" gradientTransform="matrix(-0.7071, -0.7071, -0.7071, 0.7071, -2765.6283, -2558.9368)" gradientUnits="userSpaceOnUse"><stop offset="0" stop-color="#ffb03e"/><stop offset="1" stop-color="#ea911c"/></linearGradient><linearGradient id="linear-gradient-2" x1="-4148.1274" y1="-349.1544" x2="-4148.1274" y2="-255.2295" gradientTransform="matrix(-0.7071, -0.7071, -0.7071, 0.7071, -2765.6283, -2558.9368)" gradientUnits="userSpaceOnUse"><stop offset="0" stop-color="#ffe2ba"/><stop offset="1" stop-color="#ffd2a3"/></linearGradient><linearGradient id="linear-gradient-3" x1="152.5856" y1="596.7962" x2="152.5856" y2="715.2557" gradientTransform="translate(-449.6716 -204.1102) rotate(-45)" xlink:href="#linear-gradient"/><linearGradient id="linear-gradient-4" x1="152.5855" y1="621.3308" x2="152.5855" y2="715.2557" gradientTransform="translate(-449.6716 -204.1102) rotate(-45)" xlink:href="#linear-gradient-2"/><linearGradient id="linear-gradient-5" x1="255.9856" y1="124.699" x2="255.9856" y2="408.2871" gradientTransform="matrix(1, 0, 0, 1, 0, 0)" xlink:href="#linear-gradient"/><linearGradient id="linear-gradient-6" x1="255.9856" y1="279.4488" x2="255.9856" y2="408.2871" gradientTransform="matrix(1, 0, 0, 1, 0, 0)" xlink:href="#linear-gradient-2"/><linearGradient id="linear-gradient-7" x1="294.3783" y1="207.5813" x2="345.8018" y2="259.0048" gradientUnits="userSpaceOnUse"><stop offset="0" stop-color="#4c1b00"/><stop offset="1" stop-color="#2d0000"/></linearGradient><linearGradient id="linear-gradient-8" x1="166.1983" y1="207.5813" x2="217.6218" y2="259.0048" xlink:href="#linear-gradient-7"/></defs><g id="Brown_pleading"><path d="M295.2766,141.0191c37.4283-22.8008,79.5953-35.9318,120.6307-37.294a21.1841,21.1841,0,0,1,9.7433,1.9838,21.4352,21.4352,0,0,1,12.3966,20.1567c-1.3624,41.0351-14.4926,83.2019-37.2935,120.6306Z" style="fill:url(#linear-gradient)"/><path d="M383.59,229.3322c18.6758-32.2734,29.2966-67.3658,30.84-101.99-34.6277,1.5441-69.719,12.1649-101.9891,30.8407Z" style="fill:url(#linear-gradient-2)"/><path d="M216.7234,141.0191c-37.4283-22.8008-79.5953-35.9318-120.6307-37.294a21.1841,21.1841,0,0,0-9.7433,1.9838,21.4352,21.4352,0,0,0-12.3966,20.1567c1.3624,41.0351,14.4926,83.2019,37.2935,120.6306Z" style="fill:url(#linear-gradient-3)"/><path d="M128.41,229.3322c-18.6758-32.2734-29.2966-67.3658-30.84-101.99,34.6277,1.5441,69.719,12.1649,101.9891,30.8407Z" style="fill:url(#linear-gradient-4)"/><path d="M410.5254,332.1956c0-98.5709-31.9549-207.4789-154.5254-207.4962v0l-.0143,0-.0146,0v0c-122.57.0173-154.5254,108.9253-154.5254,207.4962,0,48.428,32.3829,76.087,154.5254,76.0914v0l.0146,0,.0143,0v0C378.1427,408.2826,410.5254,380.6236,410.5254,332.1956Z" style="fill:url(#linear-gradient-5)"/><path d="M410.5254,332.1956c0-10.3357-.357-20.7846-1.1273-31.21-21.1133-9.877-52.4667-2.2805-70.07,3.4674a23.7128,23.7128,0,0,1-22.0434-3.9884C303.9669,289.89,280.829,279.4488,256.03,279.4488s-47.9365,10.4409-61.2544,21.0158a23.7133,23.7133,0,0,1-22.0434,3.9883c-17.6291-5.7563-49.0483-13.3661-70.1626-3.4231-.7679,10.4108-1.1241,20.8448-1.1241,31.1658,0,48.4155,32.3672,76.0724,154.4316,76.0911l.1049,0h.0035l.0143,0v0C378.1427,408.2826,410.5254,380.6236,410.5254,332.1956Z" style="fill:url(#linear-gradient-6)"/><path d="M307.5826,355.8059c-4.2922-12.539-20.8012-29.79-45.0976-32.467V309.9278a15.0078,15.0078,0,0,0,4.17-2.9317L283.96,289.691a8.5518,8.5518,0,0,0-6.0469-14.5987H234.087A8.5518,8.5518,0,0,0,228.04,289.691l17.3052,17.3051a15.01,15.01,0,0,0,4.14,2.918v13.4248c-24.295,2.6775-40.8037,19.928-45.0962,32.467a6.5,6.5,0,1,0,12.2993,4.21c2.5771-7.5284,16.0508-24.0308,39.2969-24.0308,23.2478,0,36.7212,16.5024,39.2983,24.0308a6.5,6.5,0,1,0,12.2993-4.21Z" style="fill:#63250d"/><rect x="290.664" y="194.0583" width="58.8522" height="78.4696" rx="29.4261" style="fill:url(#linear-gradient-7)"/><circle cx="307.5363" cy="247.1029" r="4.9043" style="fill:#ffefdc"/><circle cx="327.4466" cy="221.0322" r="12.2609" style="fill:#ffefdc"/><rect x="162.484" y="194.0583" width="58.8522" height="78.4696" rx="29.4261" style="fill:url(#linear-gradient-8)"/><circle cx="179.3563" cy="247.1029" r="4.9043" style="fill:#ffefdc"/><circle cx="199.2666" cy="221.0322" r="12.2609" style="fill:#ffefdc"/><ellipse cx="309.9237" cy="167.3074" rx="14.9654" ry="21.0217" transform="translate(27.313 377.4874) rotate(-65.0002)" style="fill:#ffe2ba"/><ellipse cx="202.5436" cy="167.3074" rx="21.0217" ry="14.9654" transform="translate(-51.7302 101.2732) rotate(-24.9998)" style="fill:#ffe2ba"/></g></svg>