<svg xmlns="http://www.w3.org/2000/svg" xmlns:xlink="http://www.w3.org/1999/xlink" viewBox="0 0 512 512"><defs><linearGradient id="linear-gradient" x1="-4901.2872" y1="-684.5291" x2="-4901.2872" y2="-566.0696" gradientTransform="matrix(-0.7071, -0.7071, -0.7071, 0.7071, -3517.9899, -2870.5752)" gradientUnits="userSpaceOnUse"><stop offset="0" stop-color="#ffb03e"/><stop offset="1" stop-color="#ea911c"/></linearGradient><linearGradient id="linear-gradient-2" x1="-4901.2873" y1="-659.9944" x2="-4901.2873" y2="-566.0696" gradientTransform="matrix(-0.7071, -0.7071, -0.7071, 0.7071, -3517.9899, -2870.5752)" gradientUnits="userSpaceOnUse"><stop offset="0" stop-color="#ffe2ba"/><stop offset="1" stop-color="#ffd2a3"/></linearGradient><linearGradient id="linear-gradient-3" x1="-600.5743" y1="285.9561" x2="-600.5743" y2="404.4156" gradientTransform="translate(302.69 -515.7486) rotate(-45)" xlink:href="#linear-gradient"/><linearGradient id="linear-gradient-4" x1="-600.5744" y1="310.4908" x2="-600.5744" y2="404.4156" gradientTransform="translate(302.69 -515.7486) rotate(-45)" xlink:href="#linear-gradient-2"/><linearGradient id="linear-gradient-5" x1="255.9856" y1="125.828" x2="255.9856" y2="409.4161" gradientTransform="matrix(1, 0, 0, 1, 0, 0)" xlink:href="#linear-gradient"/><linearGradient id="linear-gradient-6" x1="101.4458" y1="354.2277" x2="410.5255" y2="354.2277" gradientTransform="matrix(1, 0, 0, 1, 0, 0)" xlink:href="#linear-gradient-2"/><linearGradient id="linear-gradient-7" x1="405.9325" y1="86.1762" x2="405.9325" y2="114.6996" gradientTransform="translate(-44.5616 134.6483)" gradientUnits="userSpaceOnUse"><stop offset="0" stop-color="#35b1ef"/><stop offset="1" stop-color="#0f82bc"/></linearGradient><linearGradient id="linear-gradient-8" x1="195.658" y1="86.1762" x2="195.658" y2="114.6996" xlink:href="#linear-gradient-7"/></defs><g id="Brown_sleepy"><path d="M295.2766,142.1481c37.4283-22.8009,79.5953-35.9318,120.6307-37.294a21.1853,21.1853,0,0,1,9.7433,1.9837,21.4355,21.4355,0,0,1,12.3966,20.1568c-1.3624,41.0351-14.4926,83.2018-37.2935,120.6305Z" style="fill:url(#linear-gradient)"/><path d="M383.59,230.4612c18.6758-32.2734,29.2966-67.3658,30.84-101.99-34.6277,1.5441-69.719,12.1649-101.9891,30.8406Z" style="fill:url(#linear-gradient-2)"/><path d="M216.7234,142.1481c-37.4283-22.8009-79.5953-35.9318-120.6307-37.294a21.1853,21.1853,0,0,0-9.7433,1.9837,21.4355,21.4355,0,0,0-12.3966,20.1568c1.3624,41.0351,14.4926,83.2018,37.2935,120.6305Z" style="fill:url(#linear-gradient-3)"/><path d="M128.41,230.4612c-18.6758-32.2734-29.2966-67.3658-30.84-101.99,34.6277,1.5441,69.719,12.1649,101.9891,30.8406Z" style="fill:url(#linear-gradient-4)"/><path d="M410.5254,333.3246c0-98.5709-31.9549-207.479-154.5254-207.4963v0l-.0143,0-.0146,0v0c-122.57.0173-154.5254,108.9254-154.5254,207.4963,0,48.428,32.3829,76.087,154.5254,76.0914v0l.0146,0,.0143,0v0C378.1427,409.4116,410.5254,381.7526,410.5254,333.3246Z" style="fill:url(#linear-gradient-5)"/><path d="M410.5255,333.3246a386.2716,386.2716,0,0,0-5.0057-63.7371c-20.9232-7.3959-49.6368-.3595-66.1918,5.0462a23.7126,23.7126,0,0,1-22.0432-3.9886C303.9668,260.07,280.829,249.63,256.03,249.63s-47.9366,10.4409-61.2546,21.0158a23.7136,23.7136,0,0,1-22.0432,3.9884c-16.58-5.4139-45.3556-12.4628-66.2867-5.0116a386.3039,386.3039,0,0,0-5,63.7025c0,33.6141,15.6048,57.221,65.9954,68.52a6.6171,6.6171,0,0,1,5.172,6.473v.0544c0,29.2348,35.07,50.4537,83.3866,50.4537s83.3866-21.2189,83.3866-50.4537v-.0608a6.6169,6.6169,0,0,1,5.1711-6.4729C394.9261,390.5367,410.5255,366.9325,410.5255,333.3246Z" style="fill:url(#linear-gradient-6)"/><path d="M318.568,408.3736c0,8.19-7.0069,15.6-18.33,20.969s-26.9617,8.6839-44.2387,8.6839h-.0131c-34.5541,0-62.5691-13.286-62.5691-29.6529,0-31.9019,2.288-62.062,11.2448-84.266a77.5492,77.5492,0,0,1,5.0442-10.3739,55.0381,55.0381,0,0,1,12.051-14.6381c8.6449-7.2931,19.8381-11.414,34.2291-11.427h.0131c14.3907.013,25.5709,4.1339,34.2157,11.414a54.73,54.73,0,0,1,12.0641,14.6511C315.4611,336.3275,318.568,371.1806,318.568,408.3736Z" style="fill:#ce2c2c"/><path d="M302.279,313.7337l-5.2911,3.0549a4.5157,4.5157,0,0,1-6.773-3.913v-13.793A54.73,54.73,0,0,1,302.279,313.7337Z" style="fill:#ffefdc"/><path d="M221.757,299.0956v13.78a4.5155,4.5155,0,0,1-6.7729,3.913l-5.2781-3.0549A55.0381,55.0381,0,0,1,221.757,299.0956Z" style="fill:#ffefdc"/><path d="M245.3377,273.3235a15.0113,15.0113,0,0,0,4.1553,2.9253v11.7329c2.0888-.1978,4.2441-.311,6.4856-.313h.0129c2.2478.002,4.408.1157,6.5015.3145V276.2483a15.0131,15.0131,0,0,0,4.1545-2.9248l17.305-17.3052a8.5517,8.5517,0,0,0-6.0469-14.5986H234.0794a8.5517,8.5517,0,0,0-6.0469,14.5986Z" style="fill:#63250d"/><path d="M342.806,233.7878a6.53,6.53,0,0,1-1.5666-.1917l-42.0355-10.4a6.5,6.5,0,0,1,3.1231-12.6191l42.0354,10.4a6.5007,6.5007,0,0,1-1.5564,12.8108Z" style="fill:#63250d"/><path d="M169.661,233.7878a6.5007,6.5007,0,0,1-1.5565-12.8108l42.0355-10.4a6.5,6.5,0,1,1,3.123,12.6191l-42.0354,10.4A6.53,6.53,0,0,1,169.661,233.7878Z" style="fill:#63250d"/><ellipse cx="309.9237" cy="174.9335" rx="14.9654" ry="21.0217" transform="translate(20.4014 381.8906) rotate(-65.0002)" style="fill:#ffe2ba"/><ellipse cx="202.5436" cy="174.9335" rx="21.0217" ry="14.9654" transform="translate(-54.9531 101.9877) rotate(-24.9998)" style="fill:#ffe2ba"/><ellipse cx="361.3709" cy="235.0862" rx="21.3925" ry="14.2617" style="fill:url(#linear-gradient-7)"/><ellipse cx="151.0963" cy="235.0862" rx="21.3925" ry="14.2617" style="fill:url(#linear-gradient-8)"/><path d="M326.1472,102.5742h-36.4a6.5,6.5,0,0,1-4.5957-11.0958l25.303-25.3042H289.7472a6.5,6.5,0,0,1,0-13h36.4A6.5,6.5,0,0,1,330.7429,64.27L305.44,89.5742h20.7073a6.5,6.5,0,0,1,0,13Z" style="fill:#63250d"/></g></svg>