<svg xmlns="http://www.w3.org/2000/svg" xmlns:xlink="http://www.w3.org/1999/xlink" viewBox="0 0 512 512"><defs><linearGradient id="linear-gradient" x1="-3255.0203" y1="-788.0193" x2="-3255.0203" y2="-669.5598" gradientTransform="matrix(-0.866, -0.5, -0.5, 0.866, -2826.6333, -848.2111)" gradientUnits="userSpaceOnUse"><stop offset="0" stop-color="#ffb03e"/><stop offset="1" stop-color="#ea911c"/></linearGradient><linearGradient id="linear-gradient-2" x1="-3255.0204" y1="-763.4847" x2="-3255.0204" y2="-669.5598" gradientTransform="matrix(-0.866, -0.5, -0.5, 0.866, -2826.6333, -848.2111)" gradientUnits="userSpaceOnUse"><stop offset="0" stop-color="#ffe2ba"/><stop offset="1" stop-color="#ffd2a3"/></linearGradient><linearGradient id="linear-gradient-3" x1="237.1298" y1="1228.1745" x2="237.1298" y2="1346.634" gradientTransform="translate(-693.7254 -848.2111) rotate(-30)" xlink:href="#linear-gradient"/><linearGradient id="linear-gradient-4" x1="237.1297" y1="1252.7092" x2="237.1297" y2="1346.634" gradientTransform="translate(-693.7254 -848.2111) rotate(-30)" xlink:href="#linear-gradient-2"/><linearGradient id="linear-gradient-5" x1="256" y1="134.4379" x2="256" y2="418.026" gradientTransform="matrix(1, 0, 0, 1, 0, 0)" xlink:href="#linear-gradient"/><linearGradient id="linear-gradient-6" x1="256" y1="289.1877" x2="256" y2="418.026" gradientTransform="matrix(1, 0, 0, 1, 0, 0)" xlink:href="#linear-gradient-2"/></defs><g id="Brown_laugh"><path d="M262.4856,162.1515c30.2517-31.7111,67.5833-55.3082,106.8679-67.2447a21.1843,21.1843,0,0,1,9.9248-.6056,21.4354,21.4354,0,0,1,17.1911,16.2614c9.3047,39.9895,7.5354,84.1178-4.8013,126.1725Z" style="fill:url(#linear-gradient)"/><path d="M370.6467,224.5983c9.6864-36.0073,10.8627-72.6529,3.3923-106.4965-33.0482,10.4538-64.1949,29.795-90.5318,56.1865Z" style="fill:url(#linear-gradient-2)"/><path d="M249.5433,162.1515C219.2916,130.44,181.96,106.8433,142.6754,94.9068a21.1843,21.1843,0,0,0-9.9248-.6056,21.4356,21.4356,0,0,0-17.1912,16.2614c-9.3046,39.9895-7.5353,84.1178,4.8014,126.1725Z" style="fill:url(#linear-gradient-3)"/><path d="M141.3822,224.5983c-9.6864-36.0073-10.8627-72.6529-3.3924-106.4965,33.0483,10.4538,64.195,29.795,90.5319,56.1865Z" style="fill:url(#linear-gradient-4)"/><path d="M410.54,341.9345c0-98.5709-31.9549-207.4789-154.5255-207.4962v0l-.0142,0-.0146,0v0c-122.57.0173-154.5255,108.9253-154.5255,207.4962,0,48.428,32.3829,76.087,154.5255,76.0914v0l.0146,0,.0142,0v0C378.1572,418.0215,410.54,390.3625,410.54,341.9345Z" style="fill:url(#linear-gradient-5)"/><path d="M410.54,341.9345c0-10.3356-.3571-20.7846-1.1274-31.21-21.1133-9.877-52.4667-2.2805-70.07,3.4674a23.7128,23.7128,0,0,1-22.0433-3.9883c-13.3178-10.5748-36.4557-21.0158-61.2545-21.0158s-47.9366,10.441-61.2544,21.0158a23.7135,23.7135,0,0,1-22.0435,3.9883c-17.6291-5.7563-49.0483-13.3661-70.1625-3.4231-.768,10.4108-1.1242,20.8448-1.1242,31.1658,0,48.4155,32.3673,76.0724,154.4317,76.0911l.1049,0H256l.0142,0v0C378.1572,418.0215,410.54,390.3625,410.54,341.9345Z" style="fill:url(#linear-gradient-6)"/><path d="M304.51,355.3761,256.29,342.7918l-48.2193,12.5843a31.0956,31.0956,0,0,1-4.091.7749c1.6552,8.3549,10.6626,40.9655,50.4284,40.9655.543,0,1.0518-.0334,1.5833-.0446.5315.0112,1.04.0446,1.5832.0446,39.8912,0,48.8306-32.8193,50.4449-41.0468A31.128,31.128,0,0,1,304.51,355.3761Z" style="fill:#ce2c2c"/><path d="M343.7451,323.7913a6.499,6.499,0,0,0-9.1041,1.2735l-8.4931,11.2529a17.6862,17.6862,0,0,1-18.6455,6.48L262.5,331.0531V320.9666a15.0119,15.0119,0,0,0,4.1695-2.9316L283.9745,300.73a8.5516,8.5516,0,0,0-6.0468-14.5986H234.1015a8.5517,8.5517,0,0,0-6.0469,14.5986L245.36,318.035a15.0126,15.0126,0,0,0,4.14,2.918v10.1l-45.0024,11.7443a17.6986,17.6986,0,0,1-18.644-6.4782l-8.4947-11.2544a6.5,6.5,0,1,0-10.3769,7.83l8.4956,11.2556a30.6726,30.6726,0,0,0,32.3032,11.2254L256,342.7918l48.2193,12.5843A30.6735,30.6735,0,0,0,336.5239,344.15l8.4943-11.2544A6.5009,6.5009,0,0,0,343.7451,323.7913Z" style="fill:#63250d"/><path d="M344.499,285.7117a6.4877,6.4877,0,0,1-2.4108-.4659l-43.5945-17.437a6.5,6.5,0,0,1-.0012-12.0707L342.0869,238.3a6.5,6.5,0,0,1,4.8293,12.0707l-28.5073,11.4029,28.506,11.4017a6.5008,6.5008,0,0,1-2.4159,12.5366Z" style="fill:#63250d"/><path d="M167.53,285.7117a6.5008,6.5008,0,0,1-2.416-12.5366L193.62,261.7734,165.113,250.3705A6.5,6.5,0,1,1,169.9423,238.3l43.5944,17.4383a6.5,6.5,0,0,1-.0013,12.0707l-43.5944,17.437A6.4877,6.4877,0,0,1,167.53,285.7117Z" style="fill:#63250d"/><ellipse cx="316.4381" cy="200.1144" rx="17.8658" ry="14.9654" style="fill:#ffe2ba"/><ellipse cx="196.0581" cy="200.1144" rx="17.8659" ry="14.9654" style="fill:#ffe2ba"/></g></svg>