<svg xmlns="http://www.w3.org/2000/svg" xmlns:xlink="http://www.w3.org/1999/xlink" viewBox="0 0 512 512"><defs><linearGradient id="linear-gradient" x1="-2262.2948" y1="-522.0193" x2="-2262.2948" y2="-403.5598" gradientTransform="matrix(-0.866, -0.5, -0.5, 0.866, -1833.9078, -582.2111)" gradientUnits="userSpaceOnUse"><stop offset="0" stop-color="#ffb03e"/><stop offset="1" stop-color="#ea911c"/></linearGradient><linearGradient id="linear-gradient-2" x1="-2262.2949" y1="-497.4847" x2="-2262.2949" y2="-403.5598" gradientTransform="matrix(-0.866, -0.5, -0.5, 0.866, -1833.9078, -582.2111)" gradientUnits="userSpaceOnUse"><stop offset="0" stop-color="#ffe2ba"/><stop offset="1" stop-color="#ffd2a3"/></linearGradient><linearGradient id="linear-gradient-3" x1="308.4043" y1="962.1745" x2="308.4043" y2="1080.634" gradientTransform="translate(-622.4509 -582.2111) rotate(-30)" xlink:href="#linear-gradient"/><linearGradient id="linear-gradient-4" x1="308.4042" y1="986.7092" x2="308.4042" y2="1080.634" gradientTransform="translate(-622.4509 -582.2111) rotate(-30)" xlink:href="#linear-gradient-2"/><linearGradient id="linear-gradient-5" x1="256" y1="134.4379" x2="256" y2="418.026" gradientTransform="matrix(1, 0, 0, 1, 0, 0)" xlink:href="#linear-gradient"/><linearGradient id="linear-gradient-6" x1="256" y1="289.1877" x2="256" y2="418.026" gradientTransform="matrix(1, 0, 0, 1, 0, 0)" xlink:href="#linear-gradient-2"/><linearGradient id="linear-gradient-7" x1="256.0005" y1="397.3639" x2="256.0005" y2="342.193" gradientUnits="userSpaceOnUse"><stop offset="0" stop-color="#ff9199"/><stop offset="1" stop-color="#fb5c64"/></linearGradient></defs><g id="Brown_pleased"><path d="M262.4856,162.1515c30.2517-31.7111,67.5833-55.3082,106.8679-67.2447a21.1843,21.1843,0,0,1,9.9248-.6056,21.4354,21.4354,0,0,1,17.1911,16.2614c9.3047,39.9895,7.5354,84.1178-4.8013,126.1725Z" style="fill:url(#linear-gradient)"/><path d="M370.6467,224.5983c9.6864-36.0073,10.8627-72.6529,3.3923-106.4965-33.0482,10.4538-64.1949,29.795-90.5318,56.1865Z" style="fill:url(#linear-gradient-2)"/><path d="M249.5433,162.1515C219.2916,130.44,181.96,106.8433,142.6754,94.9068a21.1843,21.1843,0,0,0-9.9248-.6056,21.4356,21.4356,0,0,0-17.1912,16.2614c-9.3046,39.9895-7.5353,84.1178,4.8014,126.1725Z" style="fill:url(#linear-gradient-3)"/><path d="M141.3822,224.5983c-9.6864-36.0073-10.8627-72.6529-3.3924-106.4965,33.0483,10.4538,64.195,29.795,90.5319,56.1865Z" style="fill:url(#linear-gradient-4)"/><path d="M410.54,341.9345c0-98.5709-31.9549-207.4789-154.5255-207.4962v0l-.0142,0-.0146,0v0c-122.57.0173-154.5255,108.9253-154.5255,207.4962,0,48.428,32.3829,76.087,154.5255,76.0914v0l.0146,0,.0142,0v0C378.1572,418.0215,410.54,390.3625,410.54,341.9345Z" style="fill:url(#linear-gradient-5)"/><path d="M410.54,341.9345c0-10.3356-.3571-20.7846-1.1274-31.21-21.1133-9.877-52.4667-2.2805-70.07,3.4674a23.7128,23.7128,0,0,1-22.0433-3.9883c-13.3178-10.5748-36.4557-21.0158-61.2545-21.0158s-47.9366,10.441-61.2544,21.0158a23.7135,23.7135,0,0,1-22.0435,3.9883c-17.6291-5.7563-49.0483-13.3661-70.1625-3.4231-.768,10.4108-1.1242,20.8448-1.1242,31.1658,0,48.4155,32.3673,76.0724,154.4317,76.0911l.1049,0H256l.0142,0v0C378.1572,418.0215,410.54,390.3625,410.54,341.9345Z" style="fill:url(#linear-gradient-6)"/><path d="M256.001,342.193l-33.7041,8.7959V363.66a33.7037,33.7037,0,0,0,33.7036,33.7036h0A33.7036,33.7036,0,0,0,289.7041,363.66V350.9887Z" style="fill:url(#linear-gradient-7)"/><path d="M334.1056,324.0089a6.4972,6.4972,0,0,0-9.1035,1.2708l-7.5183,9.9594a14.9316,14.9316,0,0,1-15.7156,5.4629L262.5,330.4542V317.0665a15.0077,15.0077,0,0,0,4.1689-2.9316L283.9745,296.83a8.5517,8.5517,0,0,0-6.0471-14.5987H234.1015a8.5517,8.5517,0,0,0-6.0469,14.5987L245.36,314.1349a15.0172,15.0172,0,0,0,4.1409,2.9185v13.4008L210.2326,340.702A14.9217,14.9217,0,0,1,194.517,335.24L187,325.2809a6.5,6.5,0,0,0-10.3772,7.8306l7.5183,9.9607A27.8617,27.8617,0,0,0,206.41,354.1959a28.1522,28.1522,0,0,0,7.1057-.9155L256,342.193,298.4852,353.28a28.1466,28.1466,0,0,0,7.1058.9155,27.8649,27.8649,0,0,0,22.2675-11.1237l7.5181-9.9595A6.499,6.499,0,0,0,334.1056,324.0089Z" style="fill:#63250d"/><path d="M301.4559,271.2561a6.59,6.59,0,0,1-1.2987-.1308,6.5006,6.5006,0,0,1-5.0781-7.6629,28.2,28.2,0,0,1,55.2525-.0444,6.5,6.5,0,1,1-12.7359,2.6076,15.2,15.2,0,0,0-29.7756.0216A6.5031,6.5031,0,0,1,301.4559,271.2561Z" style="fill:#63250d"/><path d="M168.0764,271.2561a6.59,6.59,0,0,1-1.2987-.1308,6.5006,6.5006,0,0,1-5.0781-7.6629,28.1993,28.1993,0,0,1,55.2513-.0432,6.5,6.5,0,1,1-12.736,2.6051,15.1991,15.1991,0,0,0-29.7743.0229A6.5031,6.5031,0,0,1,168.0764,271.2561Z" style="fill:#63250d"/><ellipse cx="316.4381" cy="187.1144" rx="17.8658" ry="14.9654" style="fill:#ffe2ba"/><ellipse cx="196.0581" cy="187.1144" rx="17.8659" ry="14.9654" style="fill:#ffe2ba"/></g></svg>