<svg xmlns="http://www.w3.org/2000/svg" xmlns:xlink="http://www.w3.org/1999/xlink" viewBox="0 0 512 512"><defs><linearGradient id="linear-gradient" x1="-1055.6324" y1="-237.1179" x2="-1055.6324" y2="-118.6583" gradientTransform="matrix(-0.866, -0.5, -0.5, 0.866, -646.4568, -264.0346)" gradientUnits="userSpaceOnUse"><stop offset="0" stop-color="#ffb03e"/><stop offset="1" stop-color="#ea911c"/></linearGradient><linearGradient id="linear-gradient-2" x1="-1055.6325" y1="-212.5832" x2="-1055.6325" y2="-118.6583" gradientTransform="matrix(-0.866, -0.5, -0.5, 0.866, -646.4568, -264.0346)" gradientUnits="userSpaceOnUse"><stop offset="0" stop-color="#ffe2ba"/><stop offset="1" stop-color="#ffd2a3"/></linearGradient><linearGradient id="linear-gradient-3" x1="-327.8354" y1="183.0759" x2="-327.8354" y2="301.5355" gradientTransform="translate(318.098 -264.0346) rotate(-30)" xlink:href="#linear-gradient"/><linearGradient id="linear-gradient-4" x1="-327.8355" y1="207.6106" x2="-327.8355" y2="301.5355" gradientTransform="translate(318.098 -264.0346) rotate(-30)" xlink:href="#linear-gradient-2"/><linearGradient id="linear-gradient-5" x1="256" y1="94.9087" x2="256" y2="378.4969" gradientUnits="userSpaceOnUse"><stop offset="0.1" stop-color="#6298d6"/><stop offset="0.4" stop-color="#ffa23e"/><stop offset="1" stop-color="#ea911c"/></linearGradient><linearGradient id="linear-gradient-6" x1="256.0001" y1="250.7649" x2="256.0001" y2="456.4488" gradientTransform="matrix(1, 0, 0, 1, 0, 0)" xlink:href="#linear-gradient-2"/></defs><g id="Brown_screaming"><path d="M262.4856,123.7288c30.2517-31.7111,67.5833-55.3082,106.8679-67.2448a21.1856,21.1856,0,0,1,9.9248-.6056A21.4354,21.4354,0,0,1,396.4694,72.14c9.3047,39.9894,7.5354,84.1178-4.8013,126.1724Z" style="fill:url(#linear-gradient)"/><path d="M370.6467,186.1756c9.6864-36.0074,10.8627-72.6529,3.3923-106.4965-33.0482,10.4538-64.1949,29.795-90.5318,56.1865Z" style="fill:url(#linear-gradient-2)"/><path d="M249.5433,123.7288C219.2916,92.0177,181.96,68.4206,142.6754,56.484a21.1856,21.1856,0,0,0-9.9248-.6056A21.4356,21.4356,0,0,0,115.5594,72.14c-9.3046,39.9894-7.5353,84.1178,4.8014,126.1724Z" style="fill:url(#linear-gradient-3)"/><path d="M141.3822,186.1756c-9.6864-36.0074-10.8627-72.6529-3.3924-106.4965,33.0483,10.4538,64.195,29.795,90.5319,56.1865Z" style="fill:url(#linear-gradient-4)"/><path d="M410.54,302.4054c0-98.571-31.9549-207.479-154.5255-207.4963v0l-.0142,0-.0146,0v0C133.4152,94.9264,101.46,203.8344,101.46,302.4054c0,48.428,32.3829,76.087,154.5255,76.0914v0l.0146,0,.0142,0v0C378.1572,378.4924,410.54,350.8334,410.54,302.4054Z" style="fill:url(#linear-gradient-5)"/><path d="M410.54,303.5117c0-10.3356-.3567-20.7846-1.1273-31.21-21.113-9.8771-52.4666-2.2806-70.07,3.4674a23.7132,23.7132,0,0,1-22.0435-3.9884c-13.318-10.5748-36.4559-21.0158-61.2543-21.0158s-47.9368,10.441-61.2548,21.0159a23.7123,23.7123,0,0,1-22.0429,3.9883c-17.6294-5.7564-49.0484-13.3661-70.1626-3.4232-.768,10.4108-1.1241,20.8449-1.1241,31.1658,0,32.3286,14.4353,55.4,60.3681,67.1691a32.2924,32.2924,0,0,1,24.204,35.5808,220.8928,220.8928,0,0,0-2.2905,28.9108A21.3384,21.3384,0,0,0,188.23,448.54a20.8312,20.8312,0,0,0,22.4931,6.9693c.226-.07,22.9518-7.0268,45.2778-7.0268,22.1457,0,44.6888,6.8453,45.269,7.0243a20.8186,20.8186,0,0,0,22.4588-6.8847,21.15,21.15,0,0,0,4.531-13.3214,220.5027,220.5027,0,0,0-2.2928-29.0539,32.2857,32.2857,0,0,1,24.2064-35.5662C396.1045,358.9117,410.54,335.84,410.54,303.5117Z" style="fill:url(#linear-gradient-6)"/><path d="M355.4757,333.371a6.5046,6.5046,0,0,1-6.2258-8.3763c6.495-21.558,28.3956-26.8392,29.3237-27.0538a6.5,6.5,0,0,1,2.9491,12.6611c-.71.1726-15.5492,3.9482-19.8263,18.1429A6.5015,6.5015,0,0,1,355.4757,333.371Z" style="fill:#63250d"/><path d="M156.5529,333.371a6.5014,6.5014,0,0,1-6.2207-4.6261c-4.2885-14.234-19.1992-17.9906-19.8314-18.1442a6.5,6.5,0,0,1,2.9542-12.66c.928.2146,22.8287,5.4958,29.3236,27.0538a6.5045,6.5045,0,0,1-6.2257,8.3763Z" style="fill:#63250d"/><path d="M256,304.9472c-29.2367,0-51.4586,88.6589-51.4586,130.7014,0,0,25.4706-7.9659,51.4586-7.9659s51.4592,7.9659,51.4592,7.9659C307.459,393.6061,285.2371,304.9472,256,304.9472Z" style="fill:#ce2c2c"/><path d="M245.3451,292.6122A15.0136,15.0136,0,0,0,249.5,295.537v10.0376a6.5456,6.5456,0,0,0,.0559.8115,15.0916,15.0916,0,0,1,12.8865.0112,6.5275,6.5275,0,0,0,.0576-.8227V295.537a15.0041,15.0041,0,0,0,4.155-2.9248L283.96,275.307a8.5516,8.5516,0,0,0-6.0469-14.5986h-43.826A8.5516,8.5516,0,0,0,228.04,275.307Z" style="fill:#63250d"/><path d="M323.8162,265.0644c-22.7653,0-40.5971-23.6793-40.5971-53.9081s17.8318-53.9081,40.5971-53.9081,40.5958,23.6793,40.5958,53.9081S346.58,265.0644,323.8162,265.0644Z" style="fill:#1b6e8e"/><path d="M323.8156,170.248c-15.2406,0-27.5962,18.3153-27.5962,40.9085s12.3556,40.9084,27.5962,40.9084,27.5968-18.3153,27.5968-40.9084S339.0568,170.248,323.8156,170.248Z" style="fill:#ffefdc"/><path d="M188.2125,265.0644c-22.764,0-40.5958-23.6793-40.5958-53.9081s17.8318-53.9081,40.5958-53.9081,40.597,23.6793,40.597,53.9081S210.9777,265.0644,188.2125,265.0644Z" style="fill:#1b6e8e"/><path d="M188.2128,170.248c-15.24,0-27.5962,18.3153-27.5962,40.9085s12.3557,40.9084,27.5962,40.9084S215.81,233.75,215.81,211.1565,203.454,170.248,188.2128,170.248Z" style="fill:#ffefdc"/><path d="M256.0143,136.0034a6.5,6.5,0,0,1-6.5-6.5V115.004a6.5,6.5,0,0,1,13,0v14.4994A6.5,6.5,0,0,1,256.0143,136.0034Z" style="fill:#63250d"/><ellipse cx="302.7882" cy="131.1299" rx="14.9654" ry="26.5773" transform="translate(55.9807 350.1318) rotate(-65.0001)" style="fill:#ffe2ba"/><ellipse cx="209.2408" cy="131.1299" rx="26.5773" ry="14.9654" transform="translate(-35.8136 100.7144) rotate(-24.9999)" style="fill:#ffe2ba"/></g></svg>