<svg xmlns="http://www.w3.org/2000/svg" xmlns:xlink="http://www.w3.org/1999/xlink" viewBox="0 0 512 512"><defs><linearGradient id="linear-gradient" x1="-2528.2948" y1="-593.2938" x2="-2528.2948" y2="-474.8343" gradientTransform="matrix(-0.866, -0.5, -0.5, 0.866, -2099.9078, -653.4856)" gradientUnits="userSpaceOnUse"><stop offset="0" stop-color="#ffb03e"/><stop offset="1" stop-color="#ea911c"/></linearGradient><linearGradient id="linear-gradient-2" x1="-2528.2949" y1="-568.7591" x2="-2528.2949" y2="-474.8343" gradientTransform="matrix(-0.866, -0.5, -0.5, 0.866, -2099.9078, -653.4856)" gradientUnits="userSpaceOnUse"><stop offset="0" stop-color="#ffe2ba"/><stop offset="1" stop-color="#ffd2a3"/></linearGradient><linearGradient id="linear-gradient-3" x1="42.4043" y1="890.9" x2="42.4043" y2="1009.3596" gradientTransform="translate(-356.4509 -653.4856) rotate(-30)" xlink:href="#linear-gradient"/><linearGradient id="linear-gradient-4" x1="42.4042" y1="915.4347" x2="42.4042" y2="1009.3596" gradientTransform="translate(-356.4509 -653.4856) rotate(-30)" xlink:href="#linear-gradient-2"/><linearGradient id="linear-gradient-5" x1="256" y1="134.4379" x2="256" y2="418.026" gradientTransform="matrix(1, 0, 0, 1, 0, 0)" xlink:href="#linear-gradient"/><linearGradient id="linear-gradient-6" x1="256" y1="289.1877" x2="256" y2="418.026" gradientTransform="matrix(1, 0, 0, 1, 0, 0)" xlink:href="#linear-gradient-2"/><linearGradient id="linear-gradient-7" x1="515.5958" y1="1156.6873" x2="515.5958" y2="1230.8653" gradientTransform="translate(163.4335 -941.755) rotate(15)" gradientUnits="userSpaceOnUse"><stop offset="0" stop-color="#f47873"/><stop offset="1" stop-color="#e2433e"/></linearGradient></defs><g id="Brown_kiss"><path d="M262.4856,162.1515c30.2517-31.7111,67.5833-55.3082,106.8679-67.2447a21.1843,21.1843,0,0,1,9.9248-.6056,21.4354,21.4354,0,0,1,17.1911,16.2614c9.3047,39.9895,7.5354,84.1178-4.8013,126.1725Z" style="fill:url(#linear-gradient)"/><path d="M370.6467,224.5983c9.6864-36.0073,10.8627-72.6529,3.3923-106.4965-33.0482,10.4538-64.1949,29.795-90.5318,56.1865Z" style="fill:url(#linear-gradient-2)"/><path d="M249.5433,162.1515C219.2916,130.44,181.96,106.8433,142.6754,94.9068a21.1843,21.1843,0,0,0-9.9248-.6056,21.4356,21.4356,0,0,0-17.1912,16.2614c-9.3046,39.9895-7.5353,84.1178,4.8014,126.1725Z" style="fill:url(#linear-gradient-3)"/><path d="M141.3822,224.5983c-9.6864-36.0073-10.8627-72.6529-3.3924-106.4965,33.0483,10.4538,64.195,29.795,90.5319,56.1865Z" style="fill:url(#linear-gradient-4)"/><path d="M410.54,341.9345c0-98.5709-31.9549-207.4789-154.5255-207.4962v0l-.0142,0-.0146,0v0c-122.57.0173-154.5255,108.9253-154.5255,207.4962,0,48.428,32.3829,76.087,154.5255,76.0914v0l.0146,0,.0142,0v0C378.1572,418.0215,410.54,390.3625,410.54,341.9345Z" style="fill:url(#linear-gradient-5)"/><path d="M410.54,341.9345c0-10.3356-.3571-20.7846-1.1274-31.21-21.1133-9.877-52.4667-2.2805-70.07,3.4674a23.7128,23.7128,0,0,1-22.0433-3.9883c-13.3178-10.5748-36.4557-21.0158-61.2545-21.0158s-47.9366,10.441-61.2544,21.0158a23.7135,23.7135,0,0,1-22.0435,3.9883c-17.6291-5.7563-49.0483-13.3661-70.1625-3.4231-.768,10.4108-1.1242,20.8448-1.1242,31.1658,0,48.4155,32.3673,76.0724,154.4317,76.0911l.1049,0H256l.0142,0v0C378.1572,418.0215,410.54,390.3625,410.54,341.9345Z" style="fill:url(#linear-gradient-6)"/><path d="M289.92,347.0821A23.3042,23.3042,0,0,0,262.5,324.118v-3.1514a15.0091,15.0091,0,0,0,4.1692-2.9316L283.9745,300.73a8.5517,8.5517,0,0,0-6.0469-14.5987H234.1014a8.5517,8.5517,0,0,0-6.0468,14.5987L245.36,318.035a15.01,15.01,0,0,0,4.1406,2.9182v10.27a23.2389,23.2389,0,0,0-6.24,15.8592,6.5,6.5,0,0,0,13,0,10.33,10.33,0,1,1,10.3288,10.33,6.5,6.5,0,0,0,0,13A10.33,10.33,0,1,1,256.26,380.741a6.5,6.5,0,0,0-13,0,23.33,23.33,0,1,0,39.47-16.8288A23.2636,23.2636,0,0,0,289.92,347.0821Z" style="fill:#63250d"/><path d="M347.1981,285.5529a6.4769,6.4769,0,0,1-4.5957-1.9043,55.8669,55.8669,0,0,0-39.7643-16.47,6.5,6.5,0,1,1,0-13,68.781,68.781,0,0,1,48.9557,20.2782,6.5,6.5,0,0,1-4.5957,11.0957Z" style="fill:#63250d"/><path d="M164.83,285.5529a6.5,6.5,0,0,1-4.5957-11.097A68.7847,68.7847,0,0,1,209.19,254.179a6.5,6.5,0,1,1,0,13A55.8672,55.8672,0,0,0,169.4256,283.65,6.4809,6.4809,0,0,1,164.83,285.5529Z" style="fill:#63250d"/><ellipse cx="304.5038" cy="221.9983" rx="23.3887" ry="14.9654" transform="translate(-70.2033 181.9931) rotate(-29.9999)" style="fill:#ffe2ba"/><ellipse cx="207.5252" cy="221.9983" rx="14.9654" ry="23.3887" transform="translate(-88.4934 290.722) rotate(-60.0001)" style="fill:#ffe2ba"/><path d="M394.4636,323.2024c-7.1775-10.0811-21.2707-12.3906-31.9872-6.2033l-3.0058,1.7349s-2.0983-3.6334-2.2441-3.8869a23.6933,23.6933,0,1,0-41.0378,23.6936c.1117.194,15.296,26.494,22.3769,38.7586a7.123,7.123,0,0,0,9.7437,2.596l38.742-22.367A23.6987,23.6987,0,0,0,394.4636,323.2024Z" style="fill:url(#linear-gradient-7)"/></g></svg>