<svg xmlns="http://www.w3.org/2000/svg" xmlns:xlink="http://www.w3.org/1999/xlink" viewBox="0 0 512 512"><defs><linearGradient id="linear-gradient" x1="-3741.9991" y1="-471.0508" x2="-3741.9991" y2="-352.5913" gradientTransform="matrix(-0.766, -0.6428, -0.6428, 0.766, -2753.4596, -1942.0431)" gradientUnits="userSpaceOnUse"><stop offset="0" stop-color="#ffb03e"/><stop offset="1" stop-color="#ea911c"/></linearGradient><linearGradient id="linear-gradient-2" x1="-3741.9992" y1="-446.5161" x2="-3741.9992" y2="-352.5913" gradientTransform="matrix(-0.766, -0.6428, -0.6428, 0.766, -2753.4596, -1942.0431)" gradientUnits="userSpaceOnUse"><stop offset="0" stop-color="#ffe2ba"/><stop offset="1" stop-color="#ffd2a3"/></linearGradient><linearGradient id="linear-gradient-3" x1="-580.2174" y1="168.9394" x2="-580.2174" y2="287.399" gradientTransform="matrix(0.766, -0.6428, 0.6428, 0.766, 432.0165, -399.95)" xlink:href="#linear-gradient"/><linearGradient id="linear-gradient-4" x1="-580.2175" y1="193.4741" x2="-580.2175" y2="287.399" gradientTransform="matrix(0.766, -0.6428, 0.6428, 0.766, 432.0165, -399.95)" xlink:href="#linear-gradient-2"/><linearGradient id="linear-gradient-5" x1="255.9856" y1="131.0112" x2="255.9856" y2="414.5993" gradientTransform="matrix(1, 0, 0, 1, 0, 0)" xlink:href="#linear-gradient"/><linearGradient id="linear-gradient-6" x1="255.9856" y1="285.761" x2="255.9856" y2="414.5993" gradientTransform="matrix(1, 0, 0, 1, 0, 0)" xlink:href="#linear-gradient-2"/><linearGradient id="linear-gradient-7" x1="302.6513" y1="206.4413" x2="342.6998" y2="246.4898" gradientUnits="userSpaceOnUse"><stop offset="0" stop-color="#4c1b00"/><stop offset="1" stop-color="#2d0000"/></linearGradient><linearGradient id="linear-gradient-8" x1="169.2714" y1="206.4413" x2="209.3199" y2="246.4898" xlink:href="#linear-gradient-7"/></defs><g id="Brown_rolling_eyes"><path d="M282.585,145.2256c35.2987-25.9762,76.1608-42.7322,116.9213-47.6657a21.1837,21.1837,0,0,1,9.8791,1.127,21.4354,21.4354,0,0,1,14.1063,19c2.2192,40.9976-7.186,84.1483-26.638,123.4218Z" style="fill:url(#linear-gradient)"/><path d="M378.2591,225.5057c15.7919-33.7784,23.3138-69.6629,21.8338-104.29-34.3614,4.5563-68.3936,18.1951-98.9132,39.6123Z" style="fill:url(#linear-gradient-2)"/><path d="M229.415,145.2256c-35.2987-25.9762-76.1608-42.7322-116.9213-47.6657a21.1837,21.1837,0,0,0-9.8791,1.127,21.4354,21.4354,0,0,0-14.1063,19c-2.2192,40.9976,7.186,84.1483,26.638,123.4218Z" style="fill:url(#linear-gradient-3)"/><path d="M133.7409,225.5057c-15.7919-33.7784-23.3138-69.6629-21.8338-104.29,34.3614,4.5563,68.3936,18.1951,98.9132,39.6123Z" style="fill:url(#linear-gradient-4)"/><path d="M410.5254,338.5078c0-98.5709-31.9549-207.479-154.5254-207.4963v0l-.0143,0-.0146,0v0c-122.57.0173-154.5254,108.9254-154.5254,207.4963,0,48.428,32.3829,76.087,154.5254,76.0914v0l.0146,0,.0143,0v0C378.1427,414.5948,410.5254,386.9358,410.5254,338.5078Z" style="fill:url(#linear-gradient-5)"/><path d="M410.5254,338.5078c0-10.3357-.357-20.7846-1.1273-31.21-21.1133-9.877-52.4667-2.2805-70.07,3.4674a23.7128,23.7128,0,0,1-22.0434-3.9884C303.9669,296.2019,280.829,285.761,256.03,285.761s-47.9365,10.4409-61.2544,21.0158a23.7133,23.7133,0,0,1-22.0434,3.9883c-17.6291-5.7564-49.0483-13.3661-70.1626-3.4231-.7679,10.4108-1.1241,20.8448-1.1241,31.1658,0,48.4155,32.3672,76.0724,154.4316,76.0911l.1049,0h.0035l.0143,0v0C378.1427,414.5948,410.5254,386.9358,410.5254,338.5078Z" style="fill:url(#linear-gradient-6)"/><path d="M292.7708,382.4519c-2.9695-8.67-14.0156-20.479-30.2847-23.0483V327.94a15.0126,15.0126,0,0,0,4.169-2.9316L283.96,307.7029a8.5514,8.5514,0,0,0-6.0469-14.5982H234.0872a8.5515,8.5515,0,0,0-6.0471,14.5982l17.3051,17.3052a15.0067,15.0067,0,0,0,4.1409,2.9184v31.4771c-16.2715,2.5683-27.3164,14.3784-30.2847,23.0493a6.5,6.5,0,1,0,12.2994,4.21c1.7619-5.1494,10.7539-14.7656,24.4853-14.7656s22.7222,9.6177,24.4854,14.7671a6.5,6.5,0,1,0,12.2993-4.2124Z" style="fill:#63250d"/><rect x="287.6341" y="200.9302" width="70.0828" height="90.8437" rx="35.0413" style="fill:#ffefdc"/><path d="M322.6755,200.93h0a35.0046,35.0046,0,0,0-29.0843,15.4926,30.0667,30.0667,0,1,0,58.1692.0007A35.0045,35.0045,0,0,0,322.6755,200.93Z" style="fill:url(#linear-gradient-7)"/><circle cx="329.72" cy="216.9481" r="10.7267" style="fill:#ffefdc"/><rect x="156.3029" y="200.9302" width="65.9855" height="85.3807" rx="32.9927" style="fill:#ffefdc"/><path d="M189.2956,200.93h0a35.0049,35.0049,0,0,0-29.0843,15.4926,30.0668,30.0668,0,1,0,58.1693.0007A35.0049,35.0049,0,0,0,189.2956,200.93Z" style="fill:url(#linear-gradient-8)"/><circle cx="196.3401" cy="216.9481" r="10.7267" style="fill:#ffefdc"/><ellipse cx="313.8237" cy="167.9233" rx="14.9654" ry="21.0217" transform="translate(48.6941 405.3888) rotate(-70.0002)" style="fill:#ffe2ba"/><ellipse cx="198.6436" cy="167.9233" rx="21.0217" ry="14.9654" transform="translate(-45.4532 78.0663) rotate(-19.9998)" style="fill:#ffe2ba"/></g></svg>