<svg xmlns="http://www.w3.org/2000/svg" xmlns:xlink="http://www.w3.org/1999/xlink" viewBox="0 0 512 512"><defs><linearGradient id="linear-gradient" x1="-2434.5212" y1="-904.6503" x2="-2434.5212" y2="-786.1907" gradientTransform="matrix(-0.9063, -0.4226, -0.4226, 0.9063, -2222.42, -125.79)" gradientUnits="userSpaceOnUse"><stop offset="0" stop-color="#ffb03e"/><stop offset="1" stop-color="#ea911c"/></linearGradient><linearGradient id="linear-gradient-2" x1="-2434.5213" y1="-880.1156" x2="-2434.5213" y2="-786.1907" gradientTransform="matrix(-0.9063, -0.4226, -0.4226, 0.9063, -2222.42, -125.79)" gradientUnits="userSpaceOnUse"><stop offset="0" stop-color="#ffe2ba"/><stop offset="1" stop-color="#ffd2a3"/></linearGradient><linearGradient id="linear-gradient-3" x1="-779.742" y1="50.737" x2="-779.742" y2="169.1965" gradientTransform="matrix(0.8192, -0.5736, 0.5736, 0.8192, 716.3602, -382.9)" xlink:href="#linear-gradient"/><linearGradient id="linear-gradient-4" x1="-779.7421" y1="75.2717" x2="-779.7421" y2="169.1965" gradientTransform="matrix(0.8192, -0.5736, 0.5736, 0.8192, 716.3602, -382.9)" xlink:href="#linear-gradient-2"/><linearGradient id="linear-gradient-5" x1="259.1934" y1="-201.1894" x2="259.1934" y2="82.3987" gradientTransform="translate(-0.8801 355.0031) rotate(-5)" xlink:href="#linear-gradient"/><linearGradient id="linear-gradient-6" x1="255.3393" y1="-46.1714" x2="255.3393" y2="82.3987" gradientTransform="translate(-0.8801 355.0031) rotate(-5)" xlink:href="#linear-gradient-2"/><linearGradient id="linear-gradient-7" x1="928.7424" y1="-1808.66" x2="959.1133" y2="-1778.2891" gradientTransform="matrix(0.8192, -0.5736, 0.5736, 0.8192, 582.5849, 2405.4228)" gradientUnits="userSpaceOnUse"><stop offset="0" stop-color="#35b1ef"/><stop offset="1" stop-color="#0f82bc"/></linearGradient></defs><g id="Brown_chewing"><path d="M248.6685,159.032c27.3728-34.227,62.5057-60.988,100.6-76.303a21.1841,21.1841,0,0,1,9.8343-1.4683,21.4354,21.4354,0,0,1,18.543,14.7013c12.7545,39.0263,14.8381,83.1409,6.2136,126.1107Z" style="fill:url(#linear-gradient)"/><path d="M361.8606,211.8143c6.5113-36.7146,4.4893-73.3232-5.9024-106.3869-32.0113,13.2943-61.3538,35.2766-85.29,63.8631Z" style="fill:url(#linear-gradient-2)"/><path d="M235.7754,160.16c-32.9-28.9538-72.1466-49.2075-112.322-57.6747a21.1835,21.1835,0,0,0-9.94.2617,21.4352,21.4352,0,0,0-15.7084,17.6979c-5.784,40.6482-.1754,84.4544,15.78,125.2738Z" style="fill:url(#linear-gradient-3)"/><path d="M133.4685,231.796C120.6807,196.77,116.315,160.3663,120.8073,126c33.8335,7.5337,66.5475,24.0867,95.0843,48.0824Z" style="fill:url(#linear-gradient-4)"/><path d="M411.8285,325.2271c-8.591-98.1959-49.9163-203.9044-172.0219-193.2389l0,0-.0142.0015-.0145.001v0c-122.1025,10.7-144.444,121.9786-135.8529,220.1744,4.2208,48.2438,38.891,72.9751,160.5692,62.3341v0l.0145-.0013.0143-.0012v0C386.2,403.8468,416.0493,373.4708,411.8285,325.2271Z" style="fill:url(#linear-gradient-5)"/><path d="M383.4854,291.5345c-.8862.0775-1.7635.1807-2.634.3034-15.7947,1.7046-31.7232,7.4208-42.3673,11.9573a23.7126,23.7126,0,0,1-22.3069-2.052c-37.4105-24.5315-89.5567-19.8986-122.0428,10.6784a23.7164,23.7164,0,0,1-21.6121,5.8934c-17.842-4.15-49.0345-8.8491-69.1547,2.1363a55.062,55.062,0,0,0-29.3914,53.6215c3.3922,41.9323,51.7787,63.9266,85.4306,41.0129a10.5972,10.5972,0,0,1,7.8626-1.73c23.5838,4.2716,55.3245,4.8131,97.2537,1.1411l0,0c51.59-4.5154,86.6623-12.58,109.6382-24.0463a10.4287,10.4287,0,0,1,6.3256-.9327c30.5706,4.9057,59.7432-21.6971,56.4389-53.141A49.3285,49.3285,0,0,0,383.4854,291.5345Z" style="fill:url(#linear-gradient-6)"/><path d="M350.6668,362.0691a42.4683,42.4683,0,0,1-5.5479-17.6592,43.7216,43.7216,0,0,1-.1543-4.6309c.0008-.0263,0-.0522,0-.0791a42.2277,42.2277,0,0,1,2.8624-14.4751,6.5,6.5,0,0,0-12.1216-4.6972,55.3755,55.3755,0,0,0-3.1619,11.98,314.3212,314.3212,0,0,0-68.5688,1.3062l-1.79-20.458a15.0087,15.0087,0,0,0,3.898-3.2837l15.7309-18.7476a8.5517,8.5517,0,0,0-7.2961-14.0161l-43.6594,3.82a8.5519,8.5519,0,0,0-4.7515,15.07l18.7473,15.73a15.0067,15.0067,0,0,0,4.3779,2.5459l1.8565,21.2173A331.0179,331.0179,0,0,0,188.02,352.4485a61.4367,61.4367,0,0,0-7.4522-16.5215,6.5,6.5,0,0,0-10.9231,7.0483,48.6592,48.6592,0,0,1,7.541,22.0674,48.1515,48.1515,0,0,1-2.5058,20.2119,6.5,6.5,0,1,0,12.2737,4.2862,61.005,61.005,0,0,0,3.2846-23.9732c15.9012-6.23,74.1463-26.5605,141.9287-20.0351l.0008.01a55.3949,55.3949,0,0,0,7.2412,23.0264,6.5,6.5,0,1,0,11.2583-6.5Z" style="fill:#63250d"/><path d="M298.7113,266.4113a6.5076,6.5076,0,0,1-6.4188-7.5714,28.1991,28.1991,0,0,1,55.2157-1.97,6.5,6.5,0,1,1-12.6369,3.0495,15.2,15.2,0,0,0-29.7565,1.0613A6.5019,6.5019,0,0,1,298.7113,266.4113Z" style="fill:#63250d"/><path d="M164.1118,271.0667a6.5076,6.5076,0,0,1-6.4188-7.5715,28.2,28.2,0,0,1,55.217-1.97,6.5,6.5,0,1,1-12.6369,3.0494,15.2,15.2,0,0,0-29.7578,1.0614A6.5019,6.5019,0,0,1,164.1118,271.0667Z" style="fill:#63250d"/><ellipse cx="307.8397" cy="186.4949" rx="17.8658" ry="14.9654" transform="translate(-15.0827 27.5397) rotate(-5)" style="fill:#ffe2ba"/><ellipse cx="187.2595" cy="189.4628" rx="17.8659" ry="14.9654" transform="matrix(0.9962, -0.0872, 0.0872, 0.9962, -15.8013, 17.043)" style="fill:#ffe2ba"/><path d="M334.4312,377.2511l-18.9229-6.1705a5.1878,5.1878,0,0,0-6.7933,4.7567l-.6738,19.892a20.1537,20.1537,0,0,0,16.642,20.5291h0a20.1532,20.1532,0,0,0,9.7476-39.0073Z" style="fill:url(#linear-gradient-7)"/><path d="M440.033,393.7758a6.5,6.5,0,0,1-4.8281-10.8494,62.365,62.365,0,0,0,15.9606-47.8817,6.4994,6.4994,0,0,1,12.9314-1.3228,75.3809,75.3809,0,0,1-19.2308,57.9033A6.4829,6.4829,0,0,1,440.033,393.7758Z" style="fill:#63250d"/><path d="M64.5792,335.352a6.5017,6.5017,0,0,1-5.4945-9.9646,82.2563,82.2563,0,0,1,9.9646-12.8108,6.5,6.5,0,1,1,9.4224,8.9552,69.2649,69.2649,0,0,0-8.3852,10.7822A6.497,6.497,0,0,1,64.5792,335.352Z" style="fill:#63250d"/><path d="M76.68,430.822a6.4764,6.4764,0,0,1-4.4319-1.7469,80.2493,80.2493,0,0,1-24.6327-45.8986,6.5,6.5,0,1,1,12.8248-2.1328,67.3545,67.3545,0,0,0,20.6743,38.5252A6.5,6.5,0,0,1,76.68,430.822Z" style="fill:#63250d"/></g></svg>