<svg xmlns="http://www.w3.org/2000/svg" xmlns:xlink="http://www.w3.org/1999/xlink" viewBox="0 0 512 512"><defs><linearGradient id="linear-gradient" x1="-4053.0203" y1="-1001.8428" x2="-4053.0203" y2="-883.3832" gradientTransform="matrix(-0.866, -0.5, -0.5, 0.866, -3624.6333, -1062.0346)" gradientUnits="userSpaceOnUse"><stop offset="0" stop-color="#ffb03e"/><stop offset="1" stop-color="#ea911c"/></linearGradient><linearGradient id="linear-gradient-2" x1="-4053.0204" y1="-977.3081" x2="-4053.0204" y2="-883.3832" gradientTransform="matrix(-0.866, -0.5, -0.5, 0.866, -3624.6333, -1062.0346)" gradientUnits="userSpaceOnUse"><stop offset="0" stop-color="#ffe2ba"/><stop offset="1" stop-color="#ffd2a3"/></linearGradient><linearGradient id="linear-gradient-3" x1="-560.8702" y1="1014.351" x2="-560.8702" y2="1132.8106" gradientTransform="translate(104.2746 -1062.0346) rotate(-30)" xlink:href="#linear-gradient"/><linearGradient id="linear-gradient-4" x1="-560.8703" y1="1038.8857" x2="-560.8703" y2="1132.8106" gradientTransform="translate(104.2746 -1062.0346) rotate(-30)" xlink:href="#linear-gradient-2"/><linearGradient id="linear-gradient-5" x1="256" y1="134.4379" x2="256" y2="418.026" gradientTransform="matrix(1, 0, 0, 1, 0, 0)" xlink:href="#linear-gradient"/><linearGradient id="linear-gradient-6" x1="256" y1="289.1877" x2="256" y2="418.026" gradientTransform="matrix(1, 0, 0, 1, 0, 0)" xlink:href="#linear-gradient-2"/></defs><g id="Brown_expressionless"><path d="M262.4856,162.1515c30.2517-31.7111,67.5833-55.3082,106.8679-67.2447a21.1843,21.1843,0,0,1,9.9248-.6056,21.4354,21.4354,0,0,1,17.1911,16.2614c9.3047,39.9895,7.5354,84.1178-4.8013,126.1725Z" style="fill:url(#linear-gradient)"/><path d="M370.6467,224.5983c9.6864-36.0073,10.8627-72.6529,3.3923-106.4965-33.0482,10.4538-64.1949,29.795-90.5318,56.1865Z" style="fill:url(#linear-gradient-2)"/><path d="M249.5433,162.1515C219.2916,130.44,181.96,106.8433,142.6754,94.9068a21.1843,21.1843,0,0,0-9.9248-.6056,21.4356,21.4356,0,0,0-17.1912,16.2614c-9.3046,39.9895-7.5353,84.1178,4.8014,126.1725Z" style="fill:url(#linear-gradient-3)"/><path d="M141.3822,224.5983c-9.6864-36.0073-10.8627-72.6529-3.3924-106.4965,33.0483,10.4538,64.195,29.795,90.5319,56.1865Z" style="fill:url(#linear-gradient-4)"/><path d="M410.54,341.9345c0-98.5709-31.9549-207.4789-154.5255-207.4962v0l-.0142,0-.0146,0v0c-122.57.0173-154.5255,108.9253-154.5255,207.4962,0,48.428,32.3829,76.087,154.5255,76.0914v0l.0146,0,.0142,0v0C378.1572,418.0215,410.54,390.3625,410.54,341.9345Z" style="fill:url(#linear-gradient-5)"/><path d="M410.54,341.9345c0-10.3356-.3571-20.7846-1.1274-31.21-21.1133-9.877-52.4667-2.2805-70.07,3.4674a23.7128,23.7128,0,0,1-22.0433-3.9883c-13.3178-10.5748-36.4557-21.0158-61.2545-21.0158s-47.9366,10.441-61.2544,21.0158a23.7135,23.7135,0,0,1-22.0435,3.9883c-17.6291-5.7563-49.0483-13.3661-70.1625-3.4231-.768,10.4108-1.1242,20.8448-1.1242,31.1658,0,48.4155,32.3673,76.0724,154.4317,76.0911l.1049,0H256l.0142,0v0C378.1572,418.0215,410.54,390.3625,410.54,341.9345Z" style="fill:url(#linear-gradient-6)"/><path d="M366.5853,362.6927c-1.7072-.414-41.2614-9.8159-104.071-10.437V333.96a15.01,15.01,0,0,0,4.155-2.9248L283.9745,313.73a8.5517,8.5517,0,0,0-6.0471-14.5986H234.1015a8.5517,8.5517,0,0,0-6.0469,14.5986L245.36,331.035a15.0245,15.0245,0,0,0,4.1406,2.9185v18.3022c-62.81.6211-102.3635,10.023-104.0708,10.437a6.5,6.5,0,1,0,3.06,12.6343c.4163-.1006,42.4805-10.1025,107.5183-10.103,64.8933,0,107.1023,10.0024,107.5186,10.103a6.5,6.5,0,0,0,3.06-12.6343Z" style="fill:#63250d"/><path d="M360.4167,277.2112H301.06a6.5,6.5,0,0,1,0-13h59.3569a6.5,6.5,0,0,1,0,13Z" style="fill:#63250d"/><path d="M211.4372,277.2112H152.079a6.5,6.5,0,0,1,0-13h59.3582a6.5,6.5,0,1,1,0,13Z" style="fill:#63250d"/><ellipse cx="316.4382" cy="200.1144" rx="17.8658" ry="14.9654" style="fill:#ffe2ba"/><ellipse cx="196.0581" cy="200.1144" rx="17.8659" ry="14.9654" style="fill:#ffe2ba"/></g></svg>