<svg xmlns="http://www.w3.org/2000/svg" xmlns:xlink="http://www.w3.org/1999/xlink" viewBox="0 0 512 512"><defs><linearGradient id="linear-gradient" x1="-5045.7459" y1="-1267.8428" x2="-5045.7459" y2="-1149.3832" gradientTransform="matrix(-0.866, -0.5, -0.5, 0.866, -4617.3589, -1328.0346)" gradientUnits="userSpaceOnUse"><stop offset="0" stop-color="#ffb03e"/><stop offset="1" stop-color="#ea911c"/></linearGradient><linearGradient id="linear-gradient-2" x1="-5045.746" y1="-1243.3081" x2="-5045.746" y2="-1149.3832" gradientTransform="matrix(-0.866, -0.5, -0.5, 0.866, -4617.3589, -1328.0346)" gradientUnits="userSpaceOnUse"><stop offset="0" stop-color="#ffe2ba"/><stop offset="1" stop-color="#ffd2a3"/></linearGradient><linearGradient id="linear-gradient-3" x1="-632.1447" y1="1280.351" x2="-632.1447" y2="1398.8106" gradientTransform="translate(33.0001 -1328.0346) rotate(-30)" xlink:href="#linear-gradient"/><linearGradient id="linear-gradient-4" x1="-632.1448" y1="1304.8857" x2="-632.1448" y2="1398.8106" gradientTransform="translate(33.0001 -1328.0346) rotate(-30)" xlink:href="#linear-gradient-2"/><linearGradient id="linear-gradient-5" x1="256" y1="134.4379" x2="256" y2="418.026" gradientTransform="matrix(1, 0, 0, 1, 0, 0)" xlink:href="#linear-gradient"/><linearGradient id="linear-gradient-6" x1="256" y1="289.1877" x2="256" y2="418.026" gradientTransform="matrix(1, 0, 0, 1, 0, 0)" xlink:href="#linear-gradient-2"/><linearGradient id="linear-gradient-7" x1="305.0109" y1="248.1039" x2="340.4025" y2="283.4954" gradientUnits="userSpaceOnUse"><stop offset="0" stop-color="#4c1b00"/><stop offset="1" stop-color="#2d0000"/></linearGradient><linearGradient id="linear-gradient-8" x1="171.631" y1="248.1039" x2="207.0226" y2="283.4954" xlink:href="#linear-gradient-7"/></defs><g id="Brown_unamused"><path d="M262.4856,162.1515c30.2517-31.7111,67.5833-55.3082,106.8679-67.2447a21.1843,21.1843,0,0,1,9.9248-.6056,21.4354,21.4354,0,0,1,17.1911,16.2614c9.3047,39.9895,7.5354,84.1178-4.8013,126.1725Z" style="fill:url(#linear-gradient)"/><path d="M370.6467,224.5983c9.6864-36.0073,10.8627-72.6529,3.3923-106.4965-33.0482,10.4538-64.1949,29.795-90.5318,56.1865Z" style="fill:url(#linear-gradient-2)"/><path d="M249.5433,162.1515C219.2916,130.44,181.96,106.8433,142.6754,94.9068a21.1843,21.1843,0,0,0-9.9248-.6056,21.4356,21.4356,0,0,0-17.1912,16.2614c-9.3046,39.9895-7.5353,84.1178,4.8014,126.1725Z" style="fill:url(#linear-gradient-3)"/><path d="M141.3822,224.5983c-9.6864-36.0073-10.8627-72.6529-3.3924-106.4965,33.0483,10.4538,64.195,29.795,90.5319,56.1865Z" style="fill:url(#linear-gradient-4)"/><path d="M410.54,341.9345c0-98.5709-31.9549-207.4789-154.5255-207.4962v0l-.0142,0-.0146,0v0c-122.57.0173-154.5255,108.9253-154.5255,207.4962,0,48.428,32.3829,76.087,154.5255,76.0914v0l.0146,0,.0142,0v0C378.1572,418.0215,410.54,390.3625,410.54,341.9345Z" style="fill:url(#linear-gradient-5)"/><path d="M410.54,341.9345c0-10.3356-.3571-20.7846-1.1274-31.21-21.1133-9.877-52.4667-2.2805-70.07,3.4674a23.7128,23.7128,0,0,1-22.0433-3.9883c-13.3178-10.5748-36.4557-21.0158-61.2545-21.0158s-47.9366,10.441-61.2544,21.0158a23.7135,23.7135,0,0,1-22.0435,3.9883c-17.6291-5.7563-49.0483-13.3661-70.1625-3.4231-.768,10.4108-1.1242,20.8448-1.1242,31.1658,0,48.4155,32.3673,76.0724,154.4317,76.0911l.1049,0H256l.0142,0v0C378.1572,418.0215,410.54,390.3625,410.54,341.9345Z" style="fill:url(#linear-gradient-6)"/><path d="M295.0482,359.3714C283.0411,349.139,269.37,342.7709,262.5,339.954v-5.9873a15.02,15.02,0,0,0,4.1692-2.9317L283.9745,313.73a8.5517,8.5517,0,0,0-6.0469-14.5986H234.1015a8.5517,8.5517,0,0,0-6.0469,14.5986L245.36,331.035a15.0094,15.0094,0,0,0,4.14,2.918v6.001c-6.8694,2.8169-20.541,9.185-32.5481,19.4174a6.5,6.5,0,0,0,8.4322,9.8946c11.6281-9.91,25.4487-15.8765,30.6152-17.9029,5.17,2.0274,18.9888,7.9942,30.6167,17.9029a6.5,6.5,0,1,0,8.4321-9.8946Z" style="fill:#63250d"/><path d="M322.7044,289.0436A29.3054,29.3054,0,0,0,352.021,259.727H293.3878A29.3209,29.3209,0,0,0,322.7044,289.0436Z" style="fill:url(#linear-gradient-7)"/><circle cx="334.638" cy="270.7498" r="6.5391" style="fill:#ffefdc"/><path d="M189.3245,289.0436a29.3054,29.3054,0,0,0,29.3166-29.3166H160.0079A29.3209,29.3209,0,0,0,189.3245,289.0436Z" style="fill:url(#linear-gradient-8)"/><circle cx="201.2581" cy="270.7498" r="6.5391" style="fill:#ffefdc"/><ellipse cx="311.2381" cy="222.2144" rx="21.0217" ry="14.9654" transform="translate(-57.2315 119.8497) rotate(-19.9998)" style="fill:#ffe2ba"/><ellipse cx="201.2581" cy="222.2144" rx="14.9654" ry="21.0217" transform="translate(-76.3891 335.3342) rotate(-70.0002)" style="fill:#ffe2ba"/></g></svg>