<svg xmlns="http://www.w3.org/2000/svg" xmlns:xlink="http://www.w3.org/1999/xlink" viewBox="0 0 512 512"><defs><linearGradient id="linear-gradient" x1="-3239.9465" y1="2.4917" x2="-3239.9465" y2="120.9513" gradientTransform="matrix(-0.7071, -0.7071, -0.7071, 0.7071, -1857.4475, -2182.756)" gradientUnits="userSpaceOnUse"><stop offset="0" stop-color="#ffb03e"/><stop offset="1" stop-color="#ea911c"/></linearGradient><linearGradient id="linear-gradient-2" x1="-3239.9466" y1="27.0264" x2="-3239.9466" y2="120.9513" gradientTransform="matrix(-0.7071, -0.7071, -0.7071, 0.7071, -1857.4475, -2182.756)" gradientUnits="userSpaceOnUse"><stop offset="0" stop-color="#ffe2ba"/><stop offset="1" stop-color="#ffd2a3"/></linearGradient><linearGradient id="linear-gradient-3" x1="308.4048" y1="220.6153" x2="308.4048" y2="339.0749" gradientTransform="translate(-293.8524 172.0706) rotate(-45)" xlink:href="#linear-gradient"/><linearGradient id="linear-gradient-4" x1="308.4047" y1="245.15" x2="308.4047" y2="339.0749" gradientTransform="translate(-293.8524 172.0706) rotate(-45)" xlink:href="#linear-gradient-2"/><linearGradient id="linear-gradient-5" x1="255.9856" y1="124.699" x2="255.9856" y2="408.2871" gradientTransform="matrix(1, 0, 0, 1, 0, 0)" xlink:href="#linear-gradient"/><linearGradient id="linear-gradient-6" x1="255.9856" y1="279.4488" x2="255.9856" y2="408.2871" gradientTransform="matrix(1, 0, 0, 1, 0, 0)" xlink:href="#linear-gradient-2"/><linearGradient id="linear-gradient-7" x1="-91.7129" y1="804.1564" x2="-91.7129" y2="845.0041" gradientTransform="translate(458.2605 -532.2321)" gradientUnits="userSpaceOnUse"><stop offset="0" stop-color="#35b1ef"/><stop offset="1" stop-color="#0f82bc"/></linearGradient><linearGradient id="linear-gradient-8" x1="6513.6719" y1="804.1564" x2="6513.6719" y2="845.0041" gradientTransform="matrix(-1, 0, 0, 1, 6659.5917, -532.2321)" xlink:href="#linear-gradient-7"/></defs><g id="Brown_sad"><path d="M295.2766,141.0191c37.4283-22.8008,79.5953-35.9318,120.6307-37.294a21.1841,21.1841,0,0,1,9.7433,1.9838,21.4352,21.4352,0,0,1,12.3966,20.1567c-1.3624,41.0351-14.4926,83.2019-37.2935,120.6306Z" style="fill:url(#linear-gradient)"/><path d="M383.59,229.3322c18.6758-32.2734,29.2966-67.3658,30.84-101.99-34.6277,1.5441-69.719,12.1649-101.9891,30.8407Z" style="fill:url(#linear-gradient-2)"/><path d="M216.7234,141.0191c-37.4283-22.8008-79.5953-35.9318-120.6307-37.294a21.1841,21.1841,0,0,0-9.7433,1.9838,21.4352,21.4352,0,0,0-12.3966,20.1567c1.3624,41.0351,14.4926,83.2019,37.2935,120.6306Z" style="fill:url(#linear-gradient-3)"/><path d="M128.41,229.3322c-18.6758-32.2734-29.2966-67.3658-30.84-101.99,34.6277,1.5441,69.719,12.1649,101.9891,30.8407Z" style="fill:url(#linear-gradient-4)"/><path d="M410.5254,332.1956c0-98.5709-31.9549-207.4789-154.5254-207.4962v0l-.0143,0-.0146,0v0c-122.57.0173-154.5254,108.9253-154.5254,207.4962,0,48.428,32.3829,76.087,154.5254,76.0914v0l.0146,0,.0143,0v0C378.1427,408.2826,410.5254,380.6236,410.5254,332.1956Z" style="fill:url(#linear-gradient-5)"/><path d="M410.5254,332.1956c0-10.3357-.357-20.7846-1.1273-31.21-21.1133-9.877-52.4667-2.2805-70.07,3.4674a23.7128,23.7128,0,0,1-22.0434-3.9884C303.9669,289.89,280.829,279.4488,256.03,279.4488s-47.9365,10.4409-61.2544,21.0158a23.7133,23.7133,0,0,1-22.0434,3.9883c-17.6291-5.7563-49.0483-13.3661-70.1626-3.4231-.7679,10.4108-1.1241,20.8448-1.1241,31.1658,0,48.4155,32.3672,76.0724,154.4316,76.0911l.1049,0h.0035l.0143,0v0C378.1427,408.2826,410.5254,380.6236,410.5254,332.1956Z" style="fill:url(#linear-gradient-6)"/><path d="M307.583,370.1048c-4.2935-12.5393-20.8037-29.7884-45.0974-32.4658V324.2276a14.999,14.999,0,0,0,4.1692-2.9317L283.96,303.991a8.5517,8.5517,0,0,0-6.0469-14.5986H234.0869A8.5517,8.5517,0,0,0,228.04,303.991l17.3052,17.3049a15,15,0,0,0,4.14,2.9182V337.639c-24.2937,2.6774-40.804,19.9265-45.0974,32.4658a6.5,6.5,0,1,0,12.2991,4.2121c2.5783-7.5283,16.0532-24.0322,39.2983-24.0322s36.72,16.5039,39.2983,24.0322a6.5,6.5,0,1,0,12.2991-4.2121Z" style="fill:#63250d"/><path d="M329.26,283.9264a41.272,41.272,0,0,1-33.1906-16.655,6.5,6.5,0,1,1,10.4533-7.7289,28.2775,28.2775,0,0,0,34.5846,8.7623,6.5,6.5,0,0,1,5.4945,11.7812A40.9791,40.9791,0,0,1,329.26,283.9264Z" style="fill:#63250d"/><path d="M183.2072,283.9264a40.9611,40.9611,0,0,1-17.3418-3.84,6.5,6.5,0,1,1,5.4945-11.7812,28.28,28.28,0,0,0,34.5846-8.7623,6.5,6.5,0,1,1,10.4533,7.7289A41.2755,41.2755,0,0,1,183.2072,283.9264Z" style="fill:#63250d"/><ellipse cx="309.9237" cy="218.9755" rx="14.9654" ry="21.0217" transform="translate(-19.5143 407.3197) rotate(-65.0002)" style="fill:#ffe2ba"/><ellipse cx="202.5436" cy="218.9755" rx="21.0217" ry="14.9654" transform="matrix(0.9063, -0.4226, 0.4226, 0.9063, -73.5659, 106.114)" style="fill:#ffe2ba"/><path d="M370.4926,274.6285l-18.7419-2.6542a4.934,4.934,0,0,0-5.577,5.577l2.6542,18.742a19.1661,19.1661,0,0,0,18.9768,16.4787h0a19.1665,19.1665,0,0,0,19.1667-19.1663v0A19.1662,19.1662,0,0,0,370.4926,274.6285Z" style="fill:url(#linear-gradient-7)"/><path d="M141.9746,274.6285l18.742-2.6542a4.9339,4.9339,0,0,1,5.5769,5.577l-2.6541,18.742a19.1661,19.1661,0,0,1-18.9768,16.4787h0a19.1665,19.1665,0,0,1-19.1667-19.1663v0A19.1662,19.1662,0,0,1,141.9746,274.6285Z" style="fill:url(#linear-gradient-8)"/></g></svg>