<svg xmlns="http://www.w3.org/2000/svg" xmlns:xlink="http://www.w3.org/1999/xlink" viewBox="0 0 512 512"><defs><linearGradient id="linear-gradient" x1="-2118.5374" y1="119.8409" x2="-2118.5374" y2="238.3005" gradientTransform="matrix(-0.766, -0.6428, -0.6428, 0.766, -1129.9979, -1351.1514)" gradientUnits="userSpaceOnUse"><stop offset="0" stop-color="#ffb03e"/><stop offset="1" stop-color="#ea911c"/></linearGradient><linearGradient id="linear-gradient-2" x1="-2118.5375" y1="144.3756" x2="-2118.5375" y2="238.3005" gradientTransform="matrix(-0.766, -0.6428, -0.6428, 0.766, -1129.9979, -1351.1514)" gradientUnits="userSpaceOnUse"><stop offset="0" stop-color="#ffe2ba"/><stop offset="1" stop-color="#ffd2a3"/></linearGradient><linearGradient id="linear-gradient-3" x1="228.1729" y1="75.9051" x2="228.1729" y2="194.3647" gradientTransform="matrix(0.766, -0.6428, 0.6428, 0.766, -127.4452, 190.9417)" xlink:href="#linear-gradient"/><linearGradient id="linear-gradient-4" x1="228.1728" y1="100.4398" x2="228.1728" y2="194.3647" gradientTransform="matrix(0.766, -0.6428, 0.6428, 0.766, -127.4452, 190.9417)" xlink:href="#linear-gradient-2"/><linearGradient id="linear-gradient-5" x1="255.9856" y1="131.0112" x2="255.9856" y2="414.5993" gradientTransform="matrix(1, 0, 0, 1, 0, 0)" xlink:href="#linear-gradient"/><linearGradient id="linear-gradient-6" x1="255.9856" y1="285.761" x2="255.9856" y2="414.5993" gradientTransform="matrix(1, 0, 0, 1, 0, 0)" xlink:href="#linear-gradient-2"/><linearGradient id="linear-gradient-7" x1="308.3093" y1="798.3497" x2="336.5836" y2="749.3772" gradientTransform="matrix(1, 0, 0, -1, 0, 1041.6961)" gradientUnits="userSpaceOnUse"><stop offset="0" stop-color="#4c1b00"/><stop offset="1" stop-color="#2d0000"/></linearGradient><linearGradient id="linear-gradient-8" x1="7983.1708" y1="791.9154" x2="7946.9886" y2="755.7332" gradientTransform="translate(8156.3236 1041.6961) rotate(180)" xlink:href="#linear-gradient-7"/></defs><g id="Brown_disappointed"><path d="M282.585,145.2256c35.2987-25.9762,76.1608-42.7322,116.9213-47.6657a21.1837,21.1837,0,0,1,9.8791,1.127,21.4354,21.4354,0,0,1,14.1063,19c2.2192,40.9976-7.186,84.1483-26.638,123.4218Z" style="fill:url(#linear-gradient)"/><path d="M378.2591,225.5057c15.7919-33.7784,23.3138-69.6629,21.8338-104.29-34.3614,4.5563-68.3936,18.1951-98.9132,39.6123Z" style="fill:url(#linear-gradient-2)"/><path d="M229.415,145.2256c-35.2987-25.9762-76.1608-42.7322-116.9213-47.6657a21.1837,21.1837,0,0,0-9.8791,1.127,21.4354,21.4354,0,0,0-14.1063,19c-2.2192,40.9976,7.186,84.1483,26.638,123.4218Z" style="fill:url(#linear-gradient-3)"/><path d="M133.7409,225.5057c-15.7919-33.7784-23.3138-69.6629-21.8338-104.29,34.3614,4.5563,68.3936,18.1951,98.9132,39.6123Z" style="fill:url(#linear-gradient-4)"/><path d="M410.5254,338.5078c0-98.5709-31.9549-207.479-154.5254-207.4963v0l-.0143,0-.0146,0v0c-122.57.0173-154.5254,108.9254-154.5254,207.4963,0,48.428,32.3829,76.087,154.5254,76.0914v0l.0146,0,.0143,0v0C378.1427,414.5948,410.5254,386.9358,410.5254,338.5078Z" style="fill:url(#linear-gradient-5)"/><path d="M410.5254,338.5078c0-10.3357-.357-20.7846-1.1273-31.21-21.1133-9.877-52.4667-2.2805-70.07,3.4674a23.7128,23.7128,0,0,1-22.0434-3.9884C303.9669,296.2019,280.829,285.761,256.03,285.761s-47.9365,10.4409-61.2544,21.0158a23.7133,23.7133,0,0,1-22.0434,3.9883c-17.6291-5.7564-49.0483-13.3661-70.1626-3.4231-.7679,10.4108-1.1241,20.8448-1.1241,31.1658,0,48.4155,32.3672,76.0724,154.4316,76.0911l.1049,0h.0035l.0143,0v0C378.1427,414.5948,410.5254,386.9358,410.5254,338.5078Z" style="fill:url(#linear-gradient-6)"/><path d="M344.4806,374.5012c-10.7046-13.5916-38.397-29.3591-81.9951-30.7976V330.54a15.0043,15.0043,0,0,0,4.1694-2.9317L283.96,310.3032a8.5517,8.5517,0,0,0-6.0469-14.5986H234.087a8.5517,8.5517,0,0,0-6.0468,14.5986l17.3049,17.3049a15.0094,15.0094,0,0,0,4.14,2.9182v13.1773c-43.5982,1.4385-71.2905,17.206-81.9953,30.7976a6.5007,6.5007,0,0,0,10.2145,8.0437c7.5882-9.6382,32.6157-25.948,78.2808-25.948s70.6924,16.31,78.2805,25.948a6.5008,6.5008,0,0,0,10.2146-8.0437Z" style="fill:#63250d"/><path d="M344.4765,275.1729a21.801,21.801,0,0,1-43.602,0V247.639a127.155,127.155,0,0,0,43.602,7.8Z" style="fill:url(#linear-gradient-7)"/><circle cx="328.1229" cy="267.6201" r="8.1739" style="fill:#ffefdc"/><path d="M167.4946,275.1729a21.8011,21.8011,0,0,0,43.6021,0V247.639a127.1559,127.1559,0,0,1-43.6021,7.8Z" style="fill:url(#linear-gradient-8)"/><circle cx="194.7429" cy="267.6201" r="8.1739" style="fill:#ffefdc"/><ellipse cx="313.8237" cy="225.2876" rx="14.9654" ry="21.0217" transform="translate(-5.2108 443.1336) rotate(-70.0002)" style="fill:#ffe2ba"/><ellipse cx="198.6436" cy="225.2876" rx="21.0217" ry="14.9654" transform="translate(-65.0728 81.5258) rotate(-19.9998)" style="fill:#ffe2ba"/></g></svg>