<svg xmlns="http://www.w3.org/2000/svg" xmlns:xlink="http://www.w3.org/1999/xlink" viewBox="0 0 512 512"><defs><linearGradient id="linear-gradient" x1="-1269.5693" y1="-256.0193" x2="-1269.5693" y2="-137.5598" gradientTransform="matrix(-0.866, -0.5, -0.5, 0.866, -841.1823, -316.2111)" gradientUnits="userSpaceOnUse"><stop offset="0" stop-color="#ffb03e"/><stop offset="1" stop-color="#ea911c"/></linearGradient><linearGradient id="linear-gradient-2" x1="-1269.5694" y1="-231.4847" x2="-1269.5694" y2="-137.5598" gradientTransform="matrix(-0.866, -0.5, -0.5, 0.866, -841.1823, -316.2111)" gradientUnits="userSpaceOnUse"><stop offset="0" stop-color="#ffe2ba"/><stop offset="1" stop-color="#ffd2a3"/></linearGradient><linearGradient id="linear-gradient-3" x1="379.6788" y1="696.1745" x2="379.6788" y2="814.634" gradientTransform="translate(-551.1764 -316.2111) rotate(-30)" xlink:href="#linear-gradient"/><linearGradient id="linear-gradient-4" x1="379.6787" y1="720.7092" x2="379.6787" y2="814.634" gradientTransform="translate(-551.1764 -316.2111) rotate(-30)" xlink:href="#linear-gradient-2"/><linearGradient id="linear-gradient-5" x1="256" y1="134.4379" x2="256" y2="418.026" gradientTransform="matrix(1, 0, 0, 1, 0, 0)" xlink:href="#linear-gradient"/><linearGradient id="linear-gradient-6" x1="256" y1="289.1877" x2="256" y2="418.026" gradientTransform="matrix(1, 0, 0, 1, 0, 0)" xlink:href="#linear-gradient-2"/><linearGradient id="linear-gradient-7" x1="256" y1="340.5592" x2="256" y2="403.1635" gradientUnits="userSpaceOnUse"><stop offset="0" stop-color="#fff7ee"/><stop offset="0.4951" stop-color="#fef6ec"/><stop offset="0.6734" stop-color="#fcf1e5"/><stop offset="0.8005" stop-color="#f8e9da"/><stop offset="0.9025" stop-color="#f2dec9"/><stop offset="0.9896" stop-color="#ebd0b3"/><stop offset="1" stop-color="#eaceb0"/></linearGradient><linearGradient id="linear-gradient-8" x1="302.6669" y1="238.5207" x2="338.8491" y2="274.7029" gradientUnits="userSpaceOnUse"><stop offset="0" stop-color="#4c1b00"/><stop offset="1" stop-color="#2d0000"/></linearGradient><linearGradient id="linear-gradient-9" x1="7985.0916" y1="236.569" x2="7945.0061" y2="276.6546" gradientTransform="matrix(-1, 0, 0, 1, 8156.3236, 0)" xlink:href="#linear-gradient-8"/></defs><g id="Brown_beaming_smile"><path d="M262.4856,162.1515c30.2517-31.7111,67.5833-55.3082,106.8679-67.2447a21.1843,21.1843,0,0,1,9.9248-.6056,21.4354,21.4354,0,0,1,17.1911,16.2614c9.3047,39.9895,7.5354,84.1178-4.8013,126.1725Z" style="fill:url(#linear-gradient)"/><path d="M370.6467,224.5983c9.6864-36.0073,10.8627-72.6529,3.3923-106.4965-33.0482,10.4538-64.1949,29.795-90.5318,56.1865Z" style="fill:url(#linear-gradient-2)"/><path d="M249.5433,162.1515C219.2916,130.44,181.96,106.8433,142.6754,94.9068a21.1843,21.1843,0,0,0-9.9248-.6056,21.4356,21.4356,0,0,0-17.1912,16.2614c-9.3046,39.9895-7.5353,84.1178,4.8014,126.1725Z" style="fill:url(#linear-gradient-3)"/><path d="M141.3822,224.5983c-9.6864-36.0073-10.8627-72.6529-3.3924-106.4965,33.0483,10.4538,64.195,29.795,90.5319,56.1865Z" style="fill:url(#linear-gradient-4)"/><path d="M410.54,341.9345c0-98.5709-31.9549-207.4789-154.5255-207.4962v0l-.0142,0-.0146,0v0c-122.57.0173-154.5255,108.9253-154.5255,207.4962,0,48.428,32.3829,76.087,154.5255,76.0914v0l.0146,0,.0142,0v0C378.1572,418.0215,410.54,390.3625,410.54,341.9345Z" style="fill:url(#linear-gradient-5)"/><path d="M410.54,341.9345c0-10.3356-.3571-20.7846-1.1274-31.21-21.1133-9.877-52.4667-2.2805-70.07,3.4674a23.7128,23.7128,0,0,1-22.0433-3.9883c-13.3178-10.5748-36.4557-21.0158-61.2545-21.0158s-47.9366,10.441-61.2544,21.0158a23.7135,23.7135,0,0,1-22.0435,3.9883c-17.6291-5.7563-49.0483-13.3661-70.1625-3.4231-.768,10.4108-1.1242,20.8448-1.1242,31.1658,0,48.4155,32.3673,76.0724,154.4317,76.0911l.1049,0H256l.0142,0v0C378.1572,418.0215,410.54,390.3625,410.54,341.9345Z" style="fill:url(#linear-gradient-6)"/><path d="M316.5028,355.25a32.8317,32.8317,0,0,1-8.3064-1.07l-52.19-13.62-52.19,13.62a32.9118,32.9118,0,0,1-8.3082,1.07c-.84,0-1.6755-.0444-2.508-.1086l-.0166.0046s8.687,48.0179,63.0227,48.0179,63.0117-48.0179,63.0117-48.0179l-.0144-.0041C318.173,355.2055,317.34,355.25,316.5028,355.25Z" style="fill:url(#linear-gradient-7)"/><path d="M297.6805,351.4342v38.35a56.7708,56.7708,0,0,1-13,7.85v-49.59Z" style="fill:#ddc1a3"/><path d="M262.5005,342.254v60.66q-3.135.2548-6.49.25h-.01q-3.36,0-6.5-.25v-60.66l6.5-1.69Z" style="fill:#ddc1a3"/><path d="M227.32,348.0441v49.58a56.0747,56.0747,0,0,1-13-7.85v-38.34Z" style="fill:#ddc1a3"/><path d="M350.4243,320.995a6.4979,6.4979,0,0,0-9.104,1.2708l-9.1723,12.1508a19.6225,19.6225,0,0,1-20.6743,7.1841l-48.9732-12.78V317.0665a15.0126,15.0126,0,0,0,4.169-2.9316L283.9744,296.83a8.5517,8.5517,0,0,0-6.0469-14.5987H234.1016a8.5517,8.5517,0,0,0-6.0471,14.5987L245.36,314.1349a15.0113,15.0113,0,0,0,4.1409,2.9185V328.82l-48.9736,12.78a19.613,19.613,0,0,1-20.6743-7.1828l-9.1711-12.1507a6.5,6.5,0,0,0-10.3772,7.83l9.1724,12.1521a32.5617,32.5617,0,0,0,26.0254,13,32.91,32.91,0,0,0,8.308-1.07l52.19-13.62,52.19,13.62a32.5952,32.5952,0,0,0,34.3318-11.93l9.1724-12.1508A6.499,6.499,0,0,0,350.4243,320.995Z" style="fill:#63250d"/><path d="M344.5074,249.3107a21.8011,21.8011,0,0,0-43.6021,0v27.5339a127.1552,127.1552,0,0,1,43.6021-7.8Z" style="fill:url(#linear-gradient-8)"/><circle cx="328.1537" cy="247.4908" r="8.1739" style="fill:#ffefdc"/><path d="M167.5255,249.3107a21.801,21.801,0,1,1,43.602,0v27.5339a127.155,127.155,0,0,0-43.602-7.8Z" style="fill:url(#linear-gradient-9)"/><circle cx="194.7737" cy="247.4908" r="8.1739" style="fill:#ffefdc"/><ellipse cx="316.4381" cy="187.1144" rx="17.8658" ry="14.9654" style="fill:#ffe2ba"/><ellipse cx="196.0581" cy="187.1144" rx="17.8659" ry="14.9654" style="fill:#ffe2ba"/></g></svg>