<svg xmlns="http://www.w3.org/2000/svg" xmlns:xlink="http://www.w3.org/1999/xlink" viewBox="0 0 512 512"><defs><linearGradient id="linear-gradient" x1="-1132.9925" y1="-621.2868" x2="-1132.9925" y2="-502.8273" gradientTransform="matrix(-0.9063, -0.4226, -0.4226, 0.9063, -899.3522, 174.103)" gradientUnits="userSpaceOnUse"><stop offset="0" stop-color="#ffb03e"/><stop offset="1" stop-color="#ea911c"/></linearGradient><linearGradient id="linear-gradient-2" x1="-1132.9926" y1="-596.7521" x2="-1132.9926" y2="-502.8273" gradientTransform="matrix(-0.9063, -0.4226, -0.4226, 0.9063, -899.3522, 174.103)" gradientUnits="userSpaceOnUse"><stop offset="0" stop-color="#ffe2ba"/><stop offset="1" stop-color="#ffd2a3"/></linearGradient><linearGradient id="linear-gradient-3" x1="109.1801" y1="-1135.0724" x2="109.1801" y2="-1016.6128" gradientTransform="translate(888.1036 960.5419) rotate(-50)" xlink:href="#linear-gradient"/><linearGradient id="linear-gradient-4" x1="109.18" y1="-1110.5377" x2="109.18" y2="-1016.6128" gradientTransform="translate(888.1036 960.5419) rotate(-50)" xlink:href="#linear-gradient-2"/><linearGradient id="linear-gradient-5" x1="273.7105" y1="140.5761" x2="273.7105" y2="424.1642" gradientTransform="matrix(1, 0, 0, 1, 0, 0)" xlink:href="#linear-gradient"/><linearGradient id="linear-gradient-6" x1="273.7105" y1="295.3259" x2="273.7105" y2="424.1642" gradientTransform="matrix(1, 0, 0, 1, 0, 0)" xlink:href="#linear-gradient-2"/><linearGradient id="linear-gradient-7" x1="321.3692" y1="248.8654" x2="359.4607" y2="286.9569" gradientUnits="userSpaceOnUse"><stop offset="0" stop-color="#4c1b00"/><stop offset="1" stop-color="#2d0000"/></linearGradient><linearGradient id="linear-gradient-8" x1="188.3043" y1="249.7869" x2="225.7814" y2="287.264" xlink:href="#linear-gradient-7"/></defs><g id="Brown_raised_eyebrow"><path d="M272.3961,165.69c27.3728-34.227,62.5057-60.988,100.6-76.303a21.1867,21.1867,0,0,1,9.8343-1.4683,21.4354,21.4354,0,0,1,18.543,14.7013c12.7545,39.0263,14.838,83.1409,6.2136,126.1108Z" style="fill:url(#linear-gradient)"/><path d="M385.5881,218.4721c6.5114-36.7146,4.4893-73.3232-5.9023-106.387-32.0113,13.2944-61.3538,35.2766-85.29,63.8631Z" style="fill:url(#linear-gradient-2)"/><path d="M227.454,166.3047c-39.2731-19.452-82.424-28.8579-123.422-26.6384a21.1841,21.1841,0,0,0-9.5334,2.8253,21.4353,21.4353,0,0,0-10.5926,21.16c4.9336,40.76,21.689,81.6221,47.6652,116.9212Z" style="fill:url(#linear-gradient-3)"/><path d="M147.1739,261.9787c-21.4175-30.5229-35.0564-64.5561-39.6117-98.9137,34.6306-1.48,70.514,6.0422,104.289,21.8344Z" style="fill:url(#linear-gradient-4)"/><path d="M428.25,348.0727c0-98.5709-31.9548-207.4789-154.5254-207.4962v0l-.0143,0-.0146,0v0c-122.57.0173-154.5254,108.9253-154.5254,207.4962,0,48.428,32.3829,76.087,154.5254,76.0914v0l.0146,0,.0143,0v0C395.8676,424.16,428.25,396.5007,428.25,348.0727Z" style="fill:url(#linear-gradient-5)"/><path d="M428.25,348.0727c0-10.3356-.357-20.7846-1.1273-31.21-21.1133-9.8771-52.4667-2.2806-70.07,3.4674a23.7134,23.7134,0,0,1-22.0434-3.9884c-13.3178-10.5748-36.4557-21.0158-61.2545-21.0158s-47.9365,10.441-61.2544,21.0158a23.7136,23.7136,0,0,1-22.0434,3.9884c-17.6291-5.7564-49.0483-13.3661-70.1625-3.4232-.768,10.4108-1.1242,20.8449-1.1242,31.1658,0,48.4155,32.3672,76.0724,154.4316,76.0911l.1049,0h.0035l.0143,0v0C395.8676,424.16,428.25,396.5007,428.25,348.0727Z" style="fill:url(#linear-gradient-6)"/><path d="M353.91,385.9436c-24.1541-11.0425-50.0084-17.6138-73.6988-21.4722V340.1047a15.01,15.01,0,0,0,4.1691-2.9316l17.3051-17.3052a8.5513,8.5513,0,0,0-6.0468-14.5981H251.8119a8.5513,8.5513,0,0,0-6.0469,14.5981L263.07,337.1731a15.0051,15.0051,0,0,0,4.1406,2.9185v22.4931a394.3507,394.3507,0,0,0-72.1475-2.7695,6.5,6.5,0,0,0,.95,12.9644c.843-.0621,85.1768-5.7867,152.4911,24.9858a6.5,6.5,0,0,0,5.4056-11.8218Z" style="fill:#63250d"/><rect x="318.6179" y="238.8483" width="43.5942" height="58.1256" rx="21.7971" style="fill:url(#linear-gradient-7)"/><circle cx="345.8642" cy="258.829" r="9.0821" style="fill:#ffefdc"/><path d="M185.2458,252.8454v22.3314a21.797,21.797,0,0,0,21.7969,21.7971h0A21.7971,21.7971,0,0,0,228.84,275.1768V252.8454s-6.427,3.0071-21.7972,3.0071S185.2458,252.8454,185.2458,252.8454Z" style="fill:url(#linear-gradient-8)"/><circle cx="212.4861" cy="271.5201" r="8.1739" style="fill:#ffefdc"/><ellipse cx="335.215" cy="188.3703" rx="14.9654" ry="17.8658" transform="translate(91.4969 485.7825) rotate(-80)" style="fill:#ffe2ba"/><ellipse cx="201.8389" cy="223.8829" rx="17.8658" ry="14.9654" transform="translate(-35.8105 38.4502) rotate(-10)" style="fill:#ffe2ba"/></g></svg>