<svg xmlns="http://www.w3.org/2000/svg" xmlns:xlink="http://www.w3.org/1999/xlink" viewBox="0 0 512 512"><defs><linearGradient id="linear-gradient" x1="-5634.0329" y1="200.9071" x2="-5634.0329" y2="319.3667" gradientTransform="matrix(-0.342, -0.9397, -0.9397, 0.342, -1262.0516, -5214.9396)" gradientUnits="userSpaceOnUse"><stop offset="0" stop-color="#ffb03e"/><stop offset="1" stop-color="#ea911c"/></linearGradient><linearGradient id="linear-gradient-2" x1="-5634.0329" y1="225.4418" x2="-5634.0329" y2="319.3667" gradientTransform="matrix(-0.342, -0.9397, -0.9397, 0.342, -1262.0516, -5214.9396)" gradientUnits="userSpaceOnUse"><stop offset="0" stop-color="#ffe2ba"/><stop offset="1" stop-color="#ffd2a3"/></linearGradient><linearGradient id="linear-gradient-3" x1="248.3254" y1="-1096.9604" x2="248.3254" y2="-978.5009" gradientTransform="translate(981.7632 756.5658) rotate(-70)" xlink:href="#linear-gradient"/><linearGradient id="linear-gradient-4" x1="248.3253" y1="-1072.4257" x2="248.3253" y2="-978.5009" gradientTransform="translate(981.7632 756.5658) rotate(-70)" xlink:href="#linear-gradient-2"/><linearGradient id="linear-gradient-5" x1="256.6356" y1="94.4079" x2="256.6356" y2="377.9961" gradientUnits="userSpaceOnUse"><stop offset="0.0944" stop-color="#3bca9e"/><stop offset="0.1259" stop-color="#44c89a"/><stop offset="0.1773" stop-color="#5cc38e"/><stop offset="0.2421" stop-color="#84bb7a"/><stop offset="0.3179" stop-color="#bbb05f"/><stop offset="0.4" stop-color="#ffa23e"/><stop offset="1" stop-color="#ea911c"/></linearGradient><linearGradient id="linear-gradient-6" x1="256.6356" y1="269.3092" x2="256.6356" y2="415.219" gradientTransform="matrix(1, 0, 0, 1, 0, 0)" xlink:href="#linear-gradient-2"/><linearGradient id="linear-gradient-7" x1="281.0159" y1="399.619" x2="281.0159" y2="455.3871" gradientUnits="userSpaceOnUse"><stop offset="0" stop-color="#fff7ee"/><stop offset="1" stop-color="#eaceb0"/></linearGradient></defs><g id="Brown_sick_unwell"><path d="M339.2855,118.4637c43.5577-4.8467,87.3232,1.0732,125.09,17.1809a21.1835,21.1835,0,0,1,7.9921,5.9156,21.4356,21.4356,0,0,1,2.7166,23.5073c-18.577,36.6145-48.2975,69.2816-84.78,93.5674Z" style="fill:url(#linear-gradient)"/><path d="M382.0016,235.8253c30.5654-21.3569,55.0218-48.6729,71.0534-79.4-32.036-13.2349-68.3281-18.4394-105.4674-15.1513Z" style="fill:url(#linear-gradient-2)"/><path d="M172.7145,118.4637c-43.5577-4.8467-87.3232,1.0732-125.09,17.1809a21.1835,21.1835,0,0,0-7.9921,5.9156,21.4356,21.4356,0,0,0-2.7166,23.5073c18.577,36.6145,48.2975,69.2816,84.78,93.5674Z" style="fill:url(#linear-gradient-3)"/><path d="M129.9984,235.8253c-30.5654-21.3569-55.0218-48.6729-71.0534-79.4,32.036-13.2349,68.3281-18.4394,105.4674-15.1513Z" style="fill:url(#linear-gradient-4)"/><path d="M411.1754,301.9046c0-98.571-31.9549-207.479-154.5254-207.4963v0l-.0143,0-.0146,0v0c-122.57.0173-154.5254,108.9253-154.5254,207.4963,0,48.428,32.3829,76.0869,154.5254,76.0914v0l.0146,0,.0143,0v0C378.7927,377.9915,411.1754,350.3326,411.1754,301.9046Z" style="fill:url(#linear-gradient-5)"/><path d="M411.1754,301.9044q0-6.1794-.1771-12.4052c-21.6829-6.539-50.34.5177-67.1,5.99a24.8289,24.8289,0,0,1-23.08-4.1758c-13.9442-11.0722-38.17-22.0045-64.1354-22.0045s-50.1919,10.9323-64.1355,22.0045a24.83,24.83,0,0,1-23.08,4.1758c-16.7847-5.4806-45.5012-12.55-67.1947-5.9608q-.1728,6.2056-.1764,12.3757c0,32.9153,14.9657,56.2341,62.9,67.7982a12.4533,12.4533,0,0,1,9.3147,13.8243q-.0363.2743-.0708.5492a27.7388,27.7388,0,0,0,11.6884,26.2578,28.3258,28.3258,0,0,0,16.2058,4.8851H309.892a28.3286,28.3286,0,0,0,16.211-4.8881,27.736,27.736,0,0,0,11.6856-26.2561q-.0186-.1483-.0378-.2966a12.511,12.511,0,0,1,9.5359-13.84C396.0045,358.4569,411.1754,335.0449,411.1754,301.9044Z" style="fill:url(#linear-gradient-6)"/><path d="M355.4755,344.5007a6.5045,6.5045,0,0,1-6.2257-8.3763c6.4962-21.5579,28.3943-26.84,29.3236-27.055a6.5,6.5,0,0,1,2.95,12.661c-.7059.1714-15.5492,3.947-19.8276,18.1442A6.5014,6.5014,0,0,1,355.4755,344.5007Z" style="fill:#63250d"/><path d="M156.554,344.5007a6.5014,6.5014,0,0,1-6.2207-4.6261c-4.29-14.234-19.2-17.9931-19.8339-18.1454a6.5,6.5,0,0,1,2.9554-12.66c.9293.2145,22.8288,5.4971,29.3249,27.055a6.5045,6.5045,0,0,1-6.2257,8.3763Z" style="fill:#63250d"/><path d="M256.0165,399.619l-.002.0188v30.747a8.3338,8.3338,0,1,0,16.6676,0V419.9683a8.3339,8.3339,0,0,1,16.6677,0v27.0849a8.3338,8.3338,0,1,0,16.6676,0V399.6383l-.0021-.0193Z" style="fill:url(#linear-gradient-7)"/><path d="M256.0145,337.999a61.6314,61.6314,0,0,0-61.1372,53.8675,6.8249,6.8249,0,0,0,6.7165,7.7525H310.4352a6.8249,6.8249,0,0,0,6.7165-7.7525A61.6314,61.6314,0,0,0,256.0145,337.999Z" style="fill:#ce2c2c"/><path d="M245.36,325.0172a15.01,15.01,0,0,0,4.14,2.9184v10.416a60.3953,60.3953,0,0,1,13-.0034V327.9488a15,15,0,0,0,4.1694-2.9316l17.305-17.3052a8.5514,8.5514,0,0,0-6.0469-14.5982H234.1016a8.5513,8.5513,0,0,0-6.0469,14.5982Z" style="fill:#63250d"/><rect x="301.2152" y="250.7275" width="67.0567" height="22.5341" rx="11.267" style="fill:#ffefdc"/><rect x="147.046" y="250.7275" width="67.0567" height="22.5341" rx="11.267" style="fill:#ffefdc"/><path d="M256,214.8245a6.5,6.5,0,0,1-6.5-6.5v-21.982a6.5,6.5,0,0,1,13,0v21.982A6.5,6.5,0,0,1,256,214.8245Z" style="fill:#63250d"/><ellipse cx="306.6737" cy="211.7169" rx="14.9654" ry="26.5773" transform="translate(-14.8125 400.1829) rotate(-65.0001)" style="fill:#ffe2ba"/><ellipse cx="205.3263" cy="211.7169" rx="26.5773" ry="14.9654" transform="translate(-70.2378 106.6103) rotate(-24.9999)" style="fill:#ffe2ba"/><path d="M361.3776,175.6442a6.5,6.5,0,0,1-6.5-6.5V88.0059a6.5,6.5,0,0,1,13,0v81.1383A6.5,6.5,0,0,1,361.3776,175.6442Z" style="fill:#63250d"/><path d="M340.5776,192.8425a6.5,6.5,0,0,1-6.5-6.5V72.4059a6.5,6.5,0,0,1,13,0V186.3425A6.5,6.5,0,0,1,340.5776,192.8425Z" style="fill:#63250d"/><path d="M319.7776,187.1106a6.5,6.5,0,0,1-6.5-6.5V63.1129a6.5,6.5,0,0,1,13,0V180.6106A6.5,6.5,0,0,1,319.7776,187.1106Z" style="fill:#63250d"/><path d="M298.9776,170.1827a6.5,6.5,0,0,1-6.5-6.5V78.9135a6.5,6.5,0,0,1,13,0v84.7692A6.5,6.5,0,0,1,298.9776,170.1827Z" style="fill:#63250d"/></g></svg>