<?xml version="1.0" encoding="utf-8"?>
<!-- Generator: Adobe Illustrator 25.0.0, SVG Export Plug-In . SVG Version: 6.00 Build 0)  -->
<svg version="1.1" id="Capa_1" xmlns="http://www.w3.org/2000/svg" xmlns:xlink="http://www.w3.org/1999/xlink" x="0px" y="0px"
	 viewBox="0 0 608.9 204" style="enable-background:new 0 0 608.9 204;" xml:space="preserve">
<style type="text/css">
	.st0{fill:#FFFFFF;}
	.st1{opacity:0.7;}
</style>
<g>
	<g>
		<g>
			<path class="st0" d="M140,130.6c-7.9,0-16.1,3-21.3,9v-30.8H94.3v92.9h24.4v-7.6h0.3c4.4,6.8,12.7,9.9,20.8,9.9
				c20.5,0,34.7-16.9,34.7-36.7S160.4,130.6,140,130.6z M133.6,182.8c-9.9,0-15.7-6.7-15.7-15.4c0-8.5,5.8-15.5,15.7-15.5
				s15.7,7.1,15.7,15.5C149.2,176.1,143.5,182.8,133.6,182.8z"/>
			<path class="st0" d="M237.3,133.1v6.2c0,0.1-0.2,0.2-0.3,0.1c-5.1-5.8-13.3-8.7-21.1-8.7c-20.4,0-34.5,16.9-34.5,36.6
				s14.3,36.7,34.7,36.7c8,0,16.5-3.1,20.8-9.9h0.3v7.5c0,0.1,0.1,0.1,0.1,0.1h9.8c8,0,14.4-6.5,14.4-14.4v-54.2
				c0-0.1-0.1-0.1-0.1-0.1L237.3,133.1C237.4,132.9,237.3,133,237.3,133.1z M222.5,182.8c-9.9,0-15.7-6.7-15.7-15.4
				c0-8.5,5.8-15.5,15.7-15.5s15.7,7.1,15.7,15.5C238.1,176.1,232.4,182.8,222.5,182.8z"/>
			<path class="st0" d="M270,90.4v111.3h24.4V90.4H270z"/>
			<path class="st0" d="M357.3,132.9v6.7c-5.1-6-13.4-9-21.3-9c-20.4,0-34.4,16.9-34.4,36.6s14.3,36.7,34.7,36.7
				c8,0,16.5-3.1,20.8-9.9h0.3v7.6h10c8,0,14.4-6.4,14.4-14.4v-54.4h-24.5V132.9z M342.4,182.8c-9.9,0-15.7-6.7-15.7-15.4
				c0-8.5,5.8-15.5,15.7-15.5c9.9,0,15.7,7.1,15.7,15.5C358.1,176.1,352.3,182.8,342.4,182.8z"/>
			<path class="st0" d="M436.5,130.6c-9.5,0-16.4,2.8-22,11.1h-0.3v-8.9h-24.4v68.8h24.4V166c0-8.6,2.8-16,12.7-16
				c12.1,0,11,11.5,11,18.1V187c0,8.1,6.5,14.6,14.6,14.6h9.8v-42.5C462.4,142.3,455,130.6,436.5,130.6z"/>
			<path class="st0" d="M512.5,150.5c4.7,0,9,2.1,12.6,4.8v-20.6c-4.8-2.7-10.5-4-16.1-4c-21.6,0-38.5,15.3-38.5,37.4
				c0,20.8,17,35.9,37.4,35.9c5.9,0,11.8-1.2,17.2-3.9v-20.6c-3.2,2.9-7.9,4.7-12.2,4.7c-10.1,0-17.2-7-17.2-16.9
				C495.7,157.7,503.1,150.5,512.5,150.5z"/>
			<path class="st0" d="M608.9,168.9c0-23.5-13.8-38.2-37.7-38.2c-22.4,0-38.1,13.8-38.1,36.7c0,23.7,17,36.6,39.8,36.6
				c15.7,0,31.1-7.4,35-23.6h-23.5c-2.7,4.6-6.4,6.3-11.7,6.3c-10.1,0-15.3-5.4-15.3-15.3h51.4L608.9,168.9L608.9,168.9z M558,157.3
				c1.5-7.1,7.4-10.9,14.5-10.9c6.6,0,12.6,4.3,13.8,10.9H558z"/>
		</g>
	</g>
	<g class="st1">
		<g>
			<path class="st0" d="M43.8,66.9L56.3,40c2.4-5.1,7.5-8.4,13.2-8.4h18.1l-35.9,68.8H36.1L0,31.7h27.3L43.8,66.9z"/>
			<path class="st0" d="M136.3,31.7V11h24.4v20.6h20.8v5.6c0,8-6.5,14.5-14.5,14.5h-6.3v48.7h-24.4V51.8"/>
			<path class="st0" d="M246.7,100.5h-10v-7.6h-0.3c-4.3,6.8-12.7,9.9-20.8,9.9c-20.4,0-34.7-17-34.7-36.7s14.1-36.6,34.5-36.6
				c7.9,0,16.2,2.9,21.3,9v-6.7h24.4V86C261.1,94,254.7,100.5,246.7,100.5z M206.2,66.1c0,8.7,5.8,15.4,15.7,15.4
				s15.7-6.7,15.7-15.4c0-8.4-5.8-15.6-15.7-15.6C211.9,50.6,206.2,57.7,206.2,66.1z"/>
			<path class="st0" d="M92.1,13.7C92.1,6.2,98.3,0,105.8,0s13.7,6.2,13.7,13.7s-6.2,13.7-13.7,13.7S92.1,21.2,92.1,13.7z"/>
			<rect x="93.7" y="40.4" class="st0" width="24.4" height="60.8"/>
		</g>
	</g>
</g>
</svg>
